<svg xmlns="http://www.w3.org/2000/svg" width="1276" height="216" viewBox="0 0 1276 216" font-family="Segoe UI, Helvetica, Arial, sans-serif"><rect width="1276" height="216" rx="10" fill="#ece4d6"/><clipPath id="c0"><rect x="22" y="22" width="232" height="140" rx="8"/></clipPath><g clip-path="url(#c0)"><g transform="translate(22,22)"><rect width="232" height="140" fill="#b87040"/><g fill="none" stroke="#7c4b2c" stroke-width="1.6" opacity="0.6"><path d="M-38.0,0.0 A19.0,19.0 0 0 0 0.0,0.0 M-31.7,0.0 A12.7,12.7 0 0 0 -6.3,0.0 M-25.3,0.0 A6.3,6.3 0 0 0 -12.7,0.0 M0.0,0.0 A19.0,19.0 0 0 0 38.0,0.0 M6.3,0.0 A12.7,12.7 0 0 0 31.7,0.0 M12.7,0.0 A6.3,6.3 0 0 0 25.3,0.0 M38.0,0.0 A19.0,19.0 0 0 0 76.0,0.0 M44.3,0.0 A12.7,12.7 0 0 0 69.7,0.0 M50.7,0.0 A6.3,6.3 0 0 0 63.3,0.0 M76.0,0.0 A19.0,19.0 0 0 0 114.0,0.0 M82.3,0.0 A12.7,12.7 0 0 0 107.7,0.0 M88.7,0.0 A6.3,6.3 0 0 0 101.3,0.0 M114.0,0.0 A19.0,19.0 0 0 0 152.0,0.0 M120.3,0.0 A12.7,12.7 0 0 0 145.7,0.0 M126.7,0.0 A6.3,6.3 0 0 0 139.3,0.0 M152.0,0.0 A19.0,19.0 0 0 0 190.0,0.0 M158.3,0.0 A12.7,12.7 0 0 0 183.7,0.0 M164.7,0.0 A6.3,6.3 0 0 0 177.3,0.0 M190.0,0.0 A19.0,19.0 0 0 0 228.0,0.0 M196.3,0.0 A12.7,12.7 0 0 0 221.7,0.0 M202.7,0.0 A6.3,6.3 0 0 0 215.3,0.0 M228.0,0.0 A19.0,19.0 0 0 0 266.0,0.0 M234.3,0.0 A12.7,12.7 0 0 0 259.7,0.0 M240.7,0.0 A6.3,6.3 0 0 0 253.3,0.0 M266.0,0.0 A19.0,19.0 0 0 0 304.0,0.0 M272.3,0.0 A12.7,12.7 0 0 0 297.7,0.0 M278.7,0.0 A6.3,6.3 0 0 0 291.3,0.0 M-19.0,19.0 A19.0,19.0 0 0 0 19.0,19.0 M-12.7,19.0 A12.7,12.7 0 0 0 12.7,19.0 M-6.3,19.0 A6.3,6.3 0 0 0 6.3,19.0 M19.0,19.0 A19.0,19.0 0 0 0 57.0,19.0 M25.3,19.0 A12.7,12.7 0 0 0 50.7,19.0 M31.7,19.0 A6.3,6.3 0 0 0 44.3,19.0 M57.0,19.0 A19.0,19.0 0 0 0 95.0,19.0 M63.3,19.0 A12.7,12.7 0 0 0 88.7,19.0 M69.7,19.0 A6.3,6.3 0 0 0 82.3,19.0 M95.0,19.0 A19.0,19.0 0 0 0 133.0,19.0 M101.3,19.0 A12.7,12.7 0 0 0 126.7,19.0 M107.7,19.0 A6.3,6.3 0 0 0 120.3,19.0 M133.0,19.0 A19.0,19.0 0 0 0 171.0,19.0 M139.3,19.0 A12.7,12.7 0 0 0 164.7,19.0 M145.7,19.0 A6.3,6.3 0 0 0 158.3,19.0 M171.0,19.0 A19.0,19.0 0 0 0 209.0,19.0 M177.3,19.0 A12.7,12.7 0 0 0 202.7,19.0 M183.7,19.0 A6.3,6.3 0 0 0 196.3,19.0 M209.0,19.0 A19.0,19.0 0 0 0 247.0,19.0 M215.3,19.0 A12.7,12.7 0 0 0 240.7,19.0 M221.7,19.0 A6.3,6.3 0 0 0 234.3,19.0 M247.0,19.0 A19.0,19.0 0 0 0 285.0,19.0 M253.3,19.0 A12.7,12.7 0 0 0 278.7,19.0 M259.7,19.0 A6.3,6.3 0 0 0 272.3,19.0 M285.0,19.0 A19.0,19.0 0 0 0 323.0,19.0 M291.3,19.0 A12.7,12.7 0 0 0 316.7,19.0 M297.7,19.0 A6.3,6.3 0 0 0 310.3,19.0 M-38.0,38.0 A19.0,19.0 0 0 0 0.0,38.0 M-31.7,38.0 A12.7,12.7 0 0 0 -6.3,38.0 M-25.3,38.0 A6.3,6.3 0 0 0 -12.7,38.0 M0.0,38.0 A19.0,19.0 0 0 0 38.0,38.0 M6.3,38.0 A12.7,12.7 0 0 0 31.7,38.0 M12.7,38.0 A6.3,6.3 0 0 0 25.3,38.0 M38.0,38.0 A19.0,19.0 0 0 0 76.0,38.0 M44.3,38.0 A12.7,12.7 0 0 0 69.7,38.0 M50.7,38.0 A6.3,6.3 0 0 0 63.3,38.0 M76.0,38.0 A19.0,19.0 0 0 0 114.0,38.0 M82.3,38.0 A12.7,12.7 0 0 0 107.7,38.0 M88.7,38.0 A6.3,6.3 0 0 0 101.3,38.0 M114.0,38.0 A19.0,19.0 0 0 0 152.0,38.0 M120.3,38.0 A12.7,12.7 0 0 0 145.7,38.0 M126.7,38.0 A6.3,6.3 0 0 0 139.3,38.0 M152.0,38.0 A19.0,19.0 0 0 0 190.0,38.0 M158.3,38.0 A12.7,12.7 0 0 0 183.7,38.0 M164.7,38.0 A6.3,6.3 0 0 0 177.3,38.0 M190.0,38.0 A19.0,19.0 0 0 0 228.0,38.0 M196.3,38.0 A12.7,12.7 0 0 0 221.7,38.0 M202.7,38.0 A6.3,6.3 0 0 0 215.3,38.0 M228.0,38.0 A19.0,19.0 0 0 0 266.0,38.0 M234.3,38.0 A12.7,12.7 0 0 0 259.7,38.0 M240.7,38.0 A6.3,6.3 0 0 0 253.3,38.0 M266.0,38.0 A19.0,19.0 0 0 0 304.0,38.0 M272.3,38.0 A12.7,12.7 0 0 0 297.7,38.0 M278.7,38.0 A6.3,6.3 0 0 0 291.3,38.0 M-19.0,57.0 A19.0,19.0 0 0 0 19.0,57.0 M-12.7,57.0 A12.7,12.7 0 0 0 12.7,57.0 M-6.3,57.0 A6.3,6.3 0 0 0 6.3,57.0 M19.0,57.0 A19.0,19.0 0 0 0 57.0,57.0 M25.3,57.0 A12.7,12.7 0 0 0 50.7,57.0 M31.7,57.0 A6.3,6.3 0 0 0 44.3,57.0 M57.0,57.0 A19.0,19.0 0 0 0 95.0,57.0 M63.3,57.0 A12.7,12.7 0 0 0 88.7,57.0 M69.7,57.0 A6.3,6.3 0 0 0 82.3,57.0 M95.0,57.0 A19.0,19.0 0 0 0 133.0,57.0 M101.3,57.0 A12.7,12.7 0 0 0 126.7,57.0 M107.7,57.0 A6.3,6.3 0 0 0 120.3,57.0 M133.0,57.0 A19.0,19.0 0 0 0 171.0,57.0 M139.3,57.0 A12.7,12.7 0 0 0 164.7,57.0 M145.7,57.0 A6.3,6.3 0 0 0 158.3,57.0 M171.0,57.0 A19.0,19.0 0 0 0 209.0,57.0 M177.3,57.0 A12.7,12.7 0 0 0 202.7,57.0 M183.7,57.0 A6.3,6.3 0 0 0 196.3,57.0 M209.0,57.0 A19.0,19.0 0 0 0 247.0,57.0 M215.3,57.0 A12.7,12.7 0 0 0 240.7,57.0 M221.7,57.0 A6.3,6.3 0 0 0 234.3,57.0 M247.0,57.0 A19.0,19.0 0 0 0 285.0,57.0 M253.3,57.0 A12.7,12.7 0 0 0 278.7,57.0 M259.7,57.0 A6.3,6.3 0 0 0 272.3,57.0 M285.0,57.0 A19.0,19.0 0 0 0 323.0,57.0 M291.3,57.0 A12.7,12.7 0 0 0 316.7,57.0 M297.7,57.0 A6.3,6.3 0 0 0 310.3,57.0 M-38.0,76.0 A19.0,19.0 0 0 0 0.0,76.0 M-31.7,76.0 A12.7,12.7 0 0 0 -6.3,76.0 M-25.3,76.0 A6.3,6.3 0 0 0 -12.7,76.0 M0.0,76.0 A19.0,19.0 0 0 0 38.0,76.0 M6.3,76.0 A12.7,12.7 0 0 0 31.7,76.0 M12.7,76.0 A6.3,6.3 0 0 0 25.3,76.0 M38.0,76.0 A19.0,19.0 0 0 0 76.0,76.0 M44.3,76.0 A12.7,12.7 0 0 0 69.7,76.0 M50.7,76.0 A6.3,6.3 0 0 0 63.3,76.0 M76.0,76.0 A19.0,19.0 0 0 0 114.0,76.0 M82.3,76.0 A12.7,12.7 0 0 0 107.7,76.0 M88.7,76.0 A6.3,6.3 0 0 0 101.3,76.0 M114.0,76.0 A19.0,19.0 0 0 0 152.0,76.0 M120.3,76.0 A12.7,12.7 0 0 0 145.7,76.0 M126.7,76.0 A6.3,6.3 0 0 0 139.3,76.0 M152.0,76.0 A19.0,19.0 0 0 0 190.0,76.0 M158.3,76.0 A12.7,12.7 0 0 0 183.7,76.0 M164.7,76.0 A6.3,6.3 0 0 0 177.3,76.0 M190.0,76.0 A19.0,19.0 0 0 0 228.0,76.0 M196.3,76.0 A12.7,12.7 0 0 0 221.7,76.0 M202.7,76.0 A6.3,6.3 0 0 0 215.3,76.0 M228.0,76.0 A19.0,19.0 0 0 0 266.0,76.0 M234.3,76.0 A12.7,12.7 0 0 0 259.7,76.0 M240.7,76.0 A6.3,6.3 0 0 0 253.3,76.0 M266.0,76.0 A19.0,19.0 0 0 0 304.0,76.0 M272.3,76.0 A12.7,12.7 0 0 0 297.7,76.0 M278.7,76.0 A6.3,6.3 0 0 0 291.3,76.0 M-19.0,95.0 A19.0,19.0 0 0 0 19.0,95.0 M-12.7,95.0 A12.7,12.7 0 0 0 12.7,95.0 M-6.3,95.0 A6.3,6.3 0 0 0 6.3,95.0 M19.0,95.0 A19.0,19.0 0 0 0 57.0,95.0 M25.3,95.0 A12.7,12.7 0 0 0 50.7,95.0 M31.7,95.0 A6.3,6.3 0 0 0 44.3,95.0 M57.0,95.0 A19.0,19.0 0 0 0 95.0,95.0 M63.3,95.0 A12.7,12.7 0 0 0 88.7,95.0 M69.7,95.0 A6.3,6.3 0 0 0 82.3,95.0 M95.0,95.0 A19.0,19.0 0 0 0 133.0,95.0 M101.3,95.0 A12.7,12.7 0 0 0 126.7,95.0 M107.7,95.0 A6.3,6.3 0 0 0 120.3,95.0 M133.0,95.0 A19.0,19.0 0 0 0 171.0,95.0 M139.3,95.0 A12.7,12.7 0 0 0 164.7,95.0 M145.7,95.0 A6.3,6.3 0 0 0 158.3,95.0 M171.0,95.0 A19.0,19.0 0 0 0 209.0,95.0 M177.3,95.0 A12.7,12.7 0 0 0 202.7,95.0 M183.7,95.0 A6.3,6.3 0 0 0 196.3,95.0 M209.0,95.0 A19.0,19.0 0 0 0 247.0,95.0 M215.3,95.0 A12.7,12.7 0 0 0 240.7,95.0 M221.7,95.0 A6.3,6.3 0 0 0 234.3,95.0 M247.0,95.0 A19.0,19.0 0 0 0 285.0,95.0 M253.3,95.0 A12.7,12.7 0 0 0 278.7,95.0 M259.7,95.0 A6.3,6.3 0 0 0 272.3,95.0 M285.0,95.0 A19.0,19.0 0 0 0 323.0,95.0 M291.3,95.0 A12.7,12.7 0 0 0 316.7,95.0 M297.7,95.0 A6.3,6.3 0 0 0 310.3,95.0 M-38.0,114.0 A19.0,19.0 0 0 0 0.0,114.0 M-31.7,114.0 A12.7,12.7 0 0 0 -6.3,114.0 M-25.3,114.0 A6.3,6.3 0 0 0 -12.7,114.0 M0.0,114.0 A19.0,19.0 0 0 0 38.0,114.0 M6.3,114.0 A12.7,12.7 0 0 0 31.7,114.0 M12.7,114.0 A6.3,6.3 0 0 0 25.3,114.0 M38.0,114.0 A19.0,19.0 0 0 0 76.0,114.0 M44.3,114.0 A12.7,12.7 0 0 0 69.7,114.0 M50.7,114.0 A6.3,6.3 0 0 0 63.3,114.0 M76.0,114.0 A19.0,19.0 0 0 0 114.0,114.0 M82.3,114.0 A12.7,12.7 0 0 0 107.7,114.0 M88.7,114.0 A6.3,6.3 0 0 0 101.3,114.0 M114.0,114.0 A19.0,19.0 0 0 0 152.0,114.0 M120.3,114.0 A12.7,12.7 0 0 0 145.7,114.0 M126.7,114.0 A6.3,6.3 0 0 0 139.3,114.0 M152.0,114.0 A19.0,19.0 0 0 0 190.0,114.0 M158.3,114.0 A12.7,12.7 0 0 0 183.7,114.0 M164.7,114.0 A6.3,6.3 0 0 0 177.3,114.0 M190.0,114.0 A19.0,19.0 0 0 0 228.0,114.0 M196.3,114.0 A12.7,12.7 0 0 0 221.7,114.0 M202.7,114.0 A6.3,6.3 0 0 0 215.3,114.0 M228.0,114.0 A19.0,19.0 0 0 0 266.0,114.0 M234.3,114.0 A12.7,12.7 0 0 0 259.7,114.0 M240.7,114.0 A6.3,6.3 0 0 0 253.3,114.0 M266.0,114.0 A19.0,19.0 0 0 0 304.0,114.0 M272.3,114.0 A12.7,12.7 0 0 0 297.7,114.0 M278.7,114.0 A6.3,6.3 0 0 0 291.3,114.0 M-19.0,133.0 A19.0,19.0 0 0 0 19.0,133.0 M-12.7,133.0 A12.7,12.7 0 0 0 12.7,133.0 M-6.3,133.0 A6.3,6.3 0 0 0 6.3,133.0 M19.0,133.0 A19.0,19.0 0 0 0 57.0,133.0 M25.3,133.0 A12.7,12.7 0 0 0 50.7,133.0 M31.7,133.0 A6.3,6.3 0 0 0 44.3,133.0 M57.0,133.0 A19.0,19.0 0 0 0 95.0,133.0 M63.3,133.0 A12.7,12.7 0 0 0 88.7,133.0 M69.7,133.0 A6.3,6.3 0 0 0 82.3,133.0 M95.0,133.0 A19.0,19.0 0 0 0 133.0,133.0 M101.3,133.0 A12.7,12.7 0 0 0 126.7,133.0 M107.7,133.0 A6.3,6.3 0 0 0 120.3,133.0 M133.0,133.0 A19.0,19.0 0 0 0 171.0,133.0 M139.3,133.0 A12.7,12.7 0 0 0 164.7,133.0 M145.7,133.0 A6.3,6.3 0 0 0 158.3,133.0 M171.0,133.0 A19.0,19.0 0 0 0 209.0,133.0 M177.3,133.0 A12.7,12.7 0 0 0 202.7,133.0 M183.7,133.0 A6.3,6.3 0 0 0 196.3,133.0 M209.0,133.0 A19.0,19.0 0 0 0 247.0,133.0 M215.3,133.0 A12.7,12.7 0 0 0 240.7,133.0 M221.7,133.0 A6.3,6.3 0 0 0 234.3,133.0 M247.0,133.0 A19.0,19.0 0 0 0 285.0,133.0 M253.3,133.0 A12.7,12.7 0 0 0 278.7,133.0 M259.7,133.0 A6.3,6.3 0 0 0 272.3,133.0 M285.0,133.0 A19.0,19.0 0 0 0 323.0,133.0 M291.3,133.0 A12.7,12.7 0 0 0 316.7,133.0 M297.7,133.0 A6.3,6.3 0 0 0 310.3,133.0 M-38.0,152.0 A19.0,19.0 0 0 0 0.0,152.0 M-31.7,152.0 A12.7,12.7 0 0 0 -6.3,152.0 M-25.3,152.0 A6.3,6.3 0 0 0 -12.7,152.0 M0.0,152.0 A19.0,19.0 0 0 0 38.0,152.0 M6.3,152.0 A12.7,12.7 0 0 0 31.7,152.0 M12.7,152.0 A6.3,6.3 0 0 0 25.3,152.0 M38.0,152.0 A19.0,19.0 0 0 0 76.0,152.0 M44.3,152.0 A12.7,12.7 0 0 0 69.7,152.0 M50.7,152.0 A6.3,6.3 0 0 0 63.3,152.0 M76.0,152.0 A19.0,19.0 0 0 0 114.0,152.0 M82.3,152.0 A12.7,12.7 0 0 0 107.7,152.0 M88.7,152.0 A6.3,6.3 0 0 0 101.3,152.0 M114.0,152.0 A19.0,19.0 0 0 0 152.0,152.0 M120.3,152.0 A12.7,12.7 0 0 0 145.7,152.0 M126.7,152.0 A6.3,6.3 0 0 0 139.3,152.0 M152.0,152.0 A19.0,19.0 0 0 0 190.0,152.0 M158.3,152.0 A12.7,12.7 0 0 0 183.7,152.0 M164.7,152.0 A6.3,6.3 0 0 0 177.3,152.0 M190.0,152.0 A19.0,19.0 0 0 0 228.0,152.0 M196.3,152.0 A12.7,12.7 0 0 0 221.7,152.0 M202.7,152.0 A6.3,6.3 0 0 0 215.3,152.0 M228.0,152.0 A19.0,19.0 0 0 0 266.0,152.0 M234.3,152.0 A12.7,12.7 0 0 0 259.7,152.0 M240.7,152.0 A6.3,6.3 0 0 0 253.3,152.0 M266.0,152.0 A19.0,19.0 0 0 0 304.0,152.0 M272.3,152.0 A12.7,12.7 0 0 0 297.7,152.0 M278.7,152.0 A6.3,6.3 0 0 0 291.3,152.0"/></g></g></g><text x="138.0" y="183" text-anchor="middle" font-size="14" font-weight="600" fill="#3a2a1a">seigaiha 青海波</text><clipPath id="c1"><rect x="272" y="22" width="232" height="140" rx="8"/></clipPath><g clip-path="url(#c1)"><g transform="translate(272,22)"><rect width="232" height="140" fill="#b87040"/><g fill="none" stroke="#7c4b2c" stroke-width="1.6" opacity="0.6"><circle cx="0.0" cy="0.0" r="22.0"/><circle cx="22.0" cy="0.0" r="22.0"/><circle cx="44.0" cy="0.0" r="22.0"/><circle cx="66.0" cy="0.0" r="22.0"/><circle cx="88.0" cy="0.0" r="22.0"/><circle cx="110.0" cy="0.0" r="22.0"/><circle cx="132.0" cy="0.0" r="22.0"/><circle cx="154.0" cy="0.0" r="22.0"/><circle cx="176.0" cy="0.0" r="22.0"/><circle cx="198.0" cy="0.0" r="22.0"/><circle cx="220.0" cy="0.0" r="22.0"/><circle cx="242.0" cy="0.0" r="22.0"/><circle cx="264.0" cy="0.0" r="22.0"/><circle cx="286.0" cy="0.0" r="22.0"/><circle cx="308.0" cy="0.0" r="22.0"/><circle cx="0.0" cy="22.0" r="22.0"/><circle cx="22.0" cy="22.0" r="22.0"/><circle cx="44.0" cy="22.0" r="22.0"/><circle cx="66.0" cy="22.0" r="22.0"/><circle cx="88.0" cy="22.0" r="22.0"/><circle cx="110.0" cy="22.0" r="22.0"/><circle cx="132.0" cy="22.0" r="22.0"/><circle cx="154.0" cy="22.0" r="22.0"/><circle cx="176.0" cy="22.0" r="22.0"/><circle cx="198.0" cy="22.0" r="22.0"/><circle cx="220.0" cy="22.0" r="22.0"/><circle cx="242.0" cy="22.0" r="22.0"/><circle cx="264.0" cy="22.0" r="22.0"/><circle cx="286.0" cy="22.0" r="22.0"/><circle cx="308.0" cy="22.0" r="22.0"/><circle cx="0.0" cy="44.0" r="22.0"/><circle cx="22.0" cy="44.0" r="22.0"/><circle cx="44.0" cy="44.0" r="22.0"/><circle cx="66.0" cy="44.0" r="22.0"/><circle cx="88.0" cy="44.0" r="22.0"/><circle cx="110.0" cy="44.0" r="22.0"/><circle cx="132.0" cy="44.0" r="22.0"/><circle cx="154.0" cy="44.0" r="22.0"/><circle cx="176.0" cy="44.0" r="22.0"/><circle cx="198.0" cy="44.0" r="22.0"/><circle cx="220.0" cy="44.0" r="22.0"/><circle cx="242.0" cy="44.0" r="22.0"/><circle cx="264.0" cy="44.0" r="22.0"/><circle cx="286.0" cy="44.0" r="22.0"/><circle cx="308.0" cy="44.0" r="22.0"/><circle cx="0.0" cy="66.0" r="22.0"/><circle cx="22.0" cy="66.0" r="22.0"/><circle cx="44.0" cy="66.0" r="22.0"/><circle cx="66.0" cy="66.0" r="22.0"/><circle cx="88.0" cy="66.0" r="22.0"/><circle cx="110.0" cy="66.0" r="22.0"/><circle cx="132.0" cy="66.0" r="22.0"/><circle cx="154.0" cy="66.0" r="22.0"/><circle cx="176.0" cy="66.0" r="22.0"/><circle cx="198.0" cy="66.0" r="22.0"/><circle cx="220.0" cy="66.0" r="22.0"/><circle cx="242.0" cy="66.0" r="22.0"/><circle cx="264.0" cy="66.0" r="22.0"/><circle cx="286.0" cy="66.0" r="22.0"/><circle cx="308.0" cy="66.0" r="22.0"/><circle cx="0.0" cy="88.0" r="22.0"/><circle cx="22.0" cy="88.0" r="22.0"/><circle cx="44.0" cy="88.0" r="22.0"/><circle cx="66.0" cy="88.0" r="22.0"/><circle cx="88.0" cy="88.0" r="22.0"/><circle cx="110.0" cy="88.0" r="22.0"/><circle cx="132.0" cy="88.0" r="22.0"/><circle cx="154.0" cy="88.0" r="22.0"/><circle cx="176.0" cy="88.0" r="22.0"/><circle cx="198.0" cy="88.0" r="22.0"/><circle cx="220.0" cy="88.0" r="22.0"/><circle cx="242.0" cy="88.0" r="22.0"/><circle cx="264.0" cy="88.0" r="22.0"/><circle cx="286.0" cy="88.0" r="22.0"/><circle cx="308.0" cy="88.0" r="22.0"/><circle cx="0.0" cy="110.0" r="22.0"/><circle cx="22.0" cy="110.0" r="22.0"/><circle cx="44.0" cy="110.0" r="22.0"/><circle cx="66.0" cy="110.0" r="22.0"/><circle cx="88.0" cy="110.0" r="22.0"/><circle cx="110.0" cy="110.0" r="22.0"/><circle cx="132.0" cy="110.0" r="22.0"/><circle cx="154.0" cy="110.0" r="22.0"/><circle cx="176.0" cy="110.0" r="22.0"/><circle cx="198.0" cy="110.0" r="22.0"/><circle cx="220.0" cy="110.0" r="22.0"/><circle cx="242.0" cy="110.0" r="22.0"/><circle cx="264.0" cy="110.0" r="22.0"/><circle cx="286.0" cy="110.0" r="22.0"/><circle cx="308.0" cy="110.0" r="22.0"/><circle cx="0.0" cy="132.0" r="22.0"/><circle cx="22.0" cy="132.0" r="22.0"/><circle cx="44.0" cy="132.0" r="22.0"/><circle cx="66.0" cy="132.0" r="22.0"/><circle cx="88.0" cy="132.0" r="22.0"/><circle cx="110.0" cy="132.0" r="22.0"/><circle cx="132.0" cy="132.0" r="22.0"/><circle cx="154.0" cy="132.0" r="22.0"/><circle cx="176.0" cy="132.0" r="22.0"/><circle cx="198.0" cy="132.0" r="22.0"/><circle cx="220.0" cy="132.0" r="22.0"/><circle cx="242.0" cy="132.0" r="22.0"/><circle cx="264.0" cy="132.0" r="22.0"/><circle cx="286.0" cy="132.0" r="22.0"/><circle cx="308.0" cy="132.0" r="22.0"/><circle cx="0.0" cy="154.0" r="22.0"/><circle cx="22.0" cy="154.0" r="22.0"/><circle cx="44.0" cy="154.0" r="22.0"/><circle cx="66.0" cy="154.0" r="22.0"/><circle cx="88.0" cy="154.0" r="22.0"/><circle cx="110.0" cy="154.0" r="22.0"/><circle cx="132.0" cy="154.0" r="22.0"/><circle cx="154.0" cy="154.0" r="22.0"/><circle cx="176.0" cy="154.0" r="22.0"/><circle cx="198.0" cy="154.0" r="22.0"/><circle cx="220.0" cy="154.0" r="22.0"/><circle cx="242.0" cy="154.0" r="22.0"/><circle cx="264.0" cy="154.0" r="22.0"/><circle cx="286.0" cy="154.0" r="22.0"/><circle cx="308.0" cy="154.0" r="22.0"/></g></g></g><text x="388.0" y="183" text-anchor="middle" font-size="14" font-weight="600" fill="#3a2a1a">shippo 七宝</text><clipPath id="c2"><rect x="522" y="22" width="232" height="140" rx="8"/></clipPath><g clip-path="url(#c2)"><g transform="translate(522,22)"><rect width="232" height="140" fill="#b87040"/><g fill="none" stroke="#7c4b2c" stroke-width="1.6" opacity="0.6"><path d="M0.0,18.0 L-15.6,9.0 L-15.6,-9.0 L-0.0,-18.0 L15.6,-9.0 L15.6,9.0 Z"/><path d="M31.2,18.0 L15.6,9.0 L15.6,-9.0 L31.2,-18.0 L46.8,-9.0 L46.8,9.0 Z"/><path d="M62.4,18.0 L46.8,9.0 L46.8,-9.0 L62.4,-18.0 L77.9,-9.0 L77.9,9.0 Z"/><path d="M93.5,18.0 L77.9,9.0 L77.9,-9.0 L93.5,-18.0 L109.1,-9.0 L109.1,9.0 Z"/><path d="M124.7,18.0 L109.1,9.0 L109.1,-9.0 L124.7,-18.0 L140.3,-9.0 L140.3,9.0 Z"/><path d="M155.9,18.0 L140.3,9.0 L140.3,-9.0 L155.9,-18.0 L171.5,-9.0 L171.5,9.0 Z"/><path d="M187.1,18.0 L171.5,9.0 L171.5,-9.0 L187.1,-18.0 L202.6,-9.0 L202.6,9.0 Z"/><path d="M218.2,18.0 L202.6,9.0 L202.6,-9.0 L218.2,-18.0 L233.8,-9.0 L233.8,9.0 Z"/><path d="M249.4,18.0 L233.8,9.0 L233.8,-9.0 L249.4,-18.0 L265.0,-9.0 L265.0,9.0 Z"/><path d="M280.6,18.0 L265.0,9.0 L265.0,-9.0 L280.6,-18.0 L296.2,-9.0 L296.2,9.0 Z"/><path d="M311.8,18.0 L296.2,9.0 L296.2,-9.0 L311.8,-18.0 L327.4,-9.0 L327.4,9.0 Z"/><path d="M15.6,45.0 L-0.0,36.0 L0.0,18.0 L15.6,9.0 L31.2,18.0 L31.2,36.0 Z"/><path d="M46.8,45.0 L31.2,36.0 L31.2,18.0 L46.8,9.0 L62.4,18.0 L62.4,36.0 Z"/><path d="M77.9,45.0 L62.4,36.0 L62.4,18.0 L77.9,9.0 L93.5,18.0 L93.5,36.0 Z"/><path d="M109.1,45.0 L93.5,36.0 L93.5,18.0 L109.1,9.0 L124.7,18.0 L124.7,36.0 Z"/><path d="M140.3,45.0 L124.7,36.0 L124.7,18.0 L140.3,9.0 L155.9,18.0 L155.9,36.0 Z"/><path d="M171.5,45.0 L155.9,36.0 L155.9,18.0 L171.5,9.0 L187.1,18.0 L187.1,36.0 Z"/><path d="M202.6,45.0 L187.1,36.0 L187.1,18.0 L202.6,9.0 L218.2,18.0 L218.2,36.0 Z"/><path d="M233.8,45.0 L218.2,36.0 L218.2,18.0 L233.8,9.0 L249.4,18.0 L249.4,36.0 Z"/><path d="M265.0,45.0 L249.4,36.0 L249.4,18.0 L265.0,9.0 L280.6,18.0 L280.6,36.0 Z"/><path d="M296.2,45.0 L280.6,36.0 L280.6,18.0 L296.2,9.0 L311.8,18.0 L311.8,36.0 Z"/><path d="M0.0,72.0 L-15.6,63.0 L-15.6,45.0 L-0.0,36.0 L15.6,45.0 L15.6,63.0 Z"/><path d="M31.2,72.0 L15.6,63.0 L15.6,45.0 L31.2,36.0 L46.8,45.0 L46.8,63.0 Z"/><path d="M62.4,72.0 L46.8,63.0 L46.8,45.0 L62.4,36.0 L77.9,45.0 L77.9,63.0 Z"/><path d="M93.5,72.0 L77.9,63.0 L77.9,45.0 L93.5,36.0 L109.1,45.0 L109.1,63.0 Z"/><path d="M124.7,72.0 L109.1,63.0 L109.1,45.0 L124.7,36.0 L140.3,45.0 L140.3,63.0 Z"/><path d="M155.9,72.0 L140.3,63.0 L140.3,45.0 L155.9,36.0 L171.5,45.0 L171.5,63.0 Z"/><path d="M187.1,72.0 L171.5,63.0 L171.5,45.0 L187.1,36.0 L202.6,45.0 L202.6,63.0 Z"/><path d="M218.2,72.0 L202.6,63.0 L202.6,45.0 L218.2,36.0 L233.8,45.0 L233.8,63.0 Z"/><path d="M249.4,72.0 L233.8,63.0 L233.8,45.0 L249.4,36.0 L265.0,45.0 L265.0,63.0 Z"/><path d="M280.6,72.0 L265.0,63.0 L265.0,45.0 L280.6,36.0 L296.2,45.0 L296.2,63.0 Z"/><path d="M311.8,72.0 L296.2,63.0 L296.2,45.0 L311.8,36.0 L327.4,45.0 L327.4,63.0 Z"/><path d="M15.6,99.0 L-0.0,90.0 L0.0,72.0 L15.6,63.0 L31.2,72.0 L31.2,90.0 Z"/><path d="M46.8,99.0 L31.2,90.0 L31.2,72.0 L46.8,63.0 L62.4,72.0 L62.4,90.0 Z"/><path d="M77.9,99.0 L62.4,90.0 L62.4,72.0 L77.9,63.0 L93.5,72.0 L93.5,90.0 Z"/><path d="M109.1,99.0 L93.5,90.0 L93.5,72.0 L109.1,63.0 L124.7,72.0 L124.7,90.0 Z"/><path d="M140.3,99.0 L124.7,90.0 L124.7,72.0 L140.3,63.0 L155.9,72.0 L155.9,90.0 Z"/><path d="M171.5,99.0 L155.9,90.0 L155.9,72.0 L171.5,63.0 L187.1,72.0 L187.1,90.0 Z"/><path d="M202.6,99.0 L187.1,90.0 L187.1,72.0 L202.6,63.0 L218.2,72.0 L218.2,90.0 Z"/><path d="M233.8,99.0 L218.2,90.0 L218.2,72.0 L233.8,63.0 L249.4,72.0 L249.4,90.0 Z"/><path d="M265.0,99.0 L249.4,90.0 L249.4,72.0 L265.0,63.0 L280.6,72.0 L280.6,90.0 Z"/><path d="M296.2,99.0 L280.6,90.0 L280.6,72.0 L296.2,63.0 L311.8,72.0 L311.8,90.0 Z"/><path d="M0.0,126.0 L-15.6,117.0 L-15.6,99.0 L-0.0,90.0 L15.6,99.0 L15.6,117.0 Z"/><path d="M31.2,126.0 L15.6,117.0 L15.6,99.0 L31.2,90.0 L46.8,99.0 L46.8,117.0 Z"/><path d="M62.4,126.0 L46.8,117.0 L46.8,99.0 L62.4,90.0 L77.9,99.0 L77.9,117.0 Z"/><path d="M93.5,126.0 L77.9,117.0 L77.9,99.0 L93.5,90.0 L109.1,99.0 L109.1,117.0 Z"/><path d="M124.7,126.0 L109.1,117.0 L109.1,99.0 L124.7,90.0 L140.3,99.0 L140.3,117.0 Z"/><path d="M155.9,126.0 L140.3,117.0 L140.3,99.0 L155.9,90.0 L171.5,99.0 L171.5,117.0 Z"/><path d="M187.1,126.0 L171.5,117.0 L171.5,99.0 L187.1,90.0 L202.6,99.0 L202.6,117.0 Z"/><path d="M218.2,126.0 L202.6,117.0 L202.6,99.0 L218.2,90.0 L233.8,99.0 L233.8,117.0 Z"/><path d="M249.4,126.0 L233.8,117.0 L233.8,99.0 L249.4,90.0 L265.0,99.0 L265.0,117.0 Z"/><path d="M280.6,126.0 L265.0,117.0 L265.0,99.0 L280.6,90.0 L296.2,99.0 L296.2,117.0 Z"/><path d="M311.8,126.0 L296.2,117.0 L296.2,99.0 L311.8,90.0 L327.4,99.0 L327.4,117.0 Z"/><path d="M15.6,153.0 L-0.0,144.0 L0.0,126.0 L15.6,117.0 L31.2,126.0 L31.2,144.0 Z"/><path d="M46.8,153.0 L31.2,144.0 L31.2,126.0 L46.8,117.0 L62.4,126.0 L62.4,144.0 Z"/><path d="M77.9,153.0 L62.4,144.0 L62.4,126.0 L77.9,117.0 L93.5,126.0 L93.5,144.0 Z"/><path d="M109.1,153.0 L93.5,144.0 L93.5,126.0 L109.1,117.0 L124.7,126.0 L124.7,144.0 Z"/><path d="M140.3,153.0 L124.7,144.0 L124.7,126.0 L140.3,117.0 L155.9,126.0 L155.9,144.0 Z"/><path d="M171.5,153.0 L155.9,144.0 L155.9,126.0 L171.5,117.0 L187.1,126.0 L187.1,144.0 Z"/><path d="M202.6,153.0 L187.1,144.0 L187.1,126.0 L202.6,117.0 L218.2,126.0 L218.2,144.0 Z"/><path d="M233.8,153.0 L218.2,144.0 L218.2,126.0 L233.8,117.0 L249.4,126.0 L249.4,144.0 Z"/><path d="M265.0,153.0 L249.4,144.0 L249.4,126.0 L265.0,117.0 L280.6,126.0 L280.6,144.0 Z"/><path d="M296.2,153.0 L280.6,144.0 L280.6,126.0 L296.2,117.0 L311.8,126.0 L311.8,144.0 Z"/></g></g></g><text x="638.0" y="183" text-anchor="middle" font-size="14" font-weight="600" fill="#3a2a1a">kikko 亀甲</text><clipPath id="c3"><rect x="772" y="22" width="232" height="140" rx="8"/></clipPath><g clip-path="url(#c3)"><g transform="translate(772,22)"><rect width="232" height="140" fill="#b87040"/><g fill="none" stroke="#7c4b2c" stroke-width="1.6" opacity="0.6"><path d="M0.0,-26.0 L13.0,-13.0 L26.0,-26.0"/><path d="M0.0,-13.0 L13.0,0.0 L26.0,-13.0"/><path d="M0.0,0.0 L13.0,13.0 L26.0,0.0"/><path d="M0.0,13.0 L13.0,26.0 L26.0,13.0"/><path d="M0.0,26.0 L13.0,39.0 L26.0,26.0"/><path d="M0.0,39.0 L13.0,52.0 L26.0,39.0"/><path d="M0.0,52.0 L13.0,65.0 L26.0,52.0"/><path d="M0.0,65.0 L13.0,78.0 L26.0,65.0"/><path d="M0.0,78.0 L13.0,91.0 L26.0,78.0"/><path d="M0.0,91.0 L13.0,104.0 L26.0,91.0"/><path d="M0.0,104.0 L13.0,117.0 L26.0,104.0"/><path d="M0.0,117.0 L13.0,130.0 L26.0,117.0"/><path d="M0.0,130.0 L13.0,143.0 L26.0,130.0"/><path d="M0.0,143.0 L13.0,156.0 L26.0,143.0"/><path d="M0.0,156.0 L13.0,169.0 L26.0,156.0"/><path d="M0.0,169.0 L13.0,182.0 L26.0,169.0"/><path d="M26.0,-26.0 L39.0,-13.0 L52.0,-26.0"/><path d="M26.0,-13.0 L39.0,0.0 L52.0,-13.0"/><path d="M26.0,0.0 L39.0,13.0 L52.0,0.0"/><path d="M26.0,13.0 L39.0,26.0 L52.0,13.0"/><path d="M26.0,26.0 L39.0,39.0 L52.0,26.0"/><path d="M26.0,39.0 L39.0,52.0 L52.0,39.0"/><path d="M26.0,52.0 L39.0,65.0 L52.0,52.0"/><path d="M26.0,65.0 L39.0,78.0 L52.0,65.0"/><path d="M26.0,78.0 L39.0,91.0 L52.0,78.0"/><path d="M26.0,91.0 L39.0,104.0 L52.0,91.0"/><path d="M26.0,104.0 L39.0,117.0 L52.0,104.0"/><path d="M26.0,117.0 L39.0,130.0 L52.0,117.0"/><path d="M26.0,130.0 L39.0,143.0 L52.0,130.0"/><path d="M26.0,143.0 L39.0,156.0 L52.0,143.0"/><path d="M26.0,156.0 L39.0,169.0 L52.0,156.0"/><path d="M26.0,169.0 L39.0,182.0 L52.0,169.0"/><path d="M52.0,-26.0 L65.0,-13.0 L78.0,-26.0"/><path d="M52.0,-13.0 L65.0,0.0 L78.0,-13.0"/><path d="M52.0,0.0 L65.0,13.0 L78.0,0.0"/><path d="M52.0,13.0 L65.0,26.0 L78.0,13.0"/><path d="M52.0,26.0 L65.0,39.0 L78.0,26.0"/><path d="M52.0,39.0 L65.0,52.0 L78.0,39.0"/><path d="M52.0,52.0 L65.0,65.0 L78.0,52.0"/><path d="M52.0,65.0 L65.0,78.0 L78.0,65.0"/><path d="M52.0,78.0 L65.0,91.0 L78.0,78.0"/><path d="M52.0,91.0 L65.0,104.0 L78.0,91.0"/><path d="M52.0,104.0 L65.0,117.0 L78.0,104.0"/><path d="M52.0,117.0 L65.0,130.0 L78.0,117.0"/><path d="M52.0,130.0 L65.0,143.0 L78.0,130.0"/><path d="M52.0,143.0 L65.0,156.0 L78.0,143.0"/><path d="M52.0,156.0 L65.0,169.0 L78.0,156.0"/><path d="M52.0,169.0 L65.0,182.0 L78.0,169.0"/><path d="M78.0,-26.0 L91.0,-13.0 L104.0,-26.0"/><path d="M78.0,-13.0 L91.0,0.0 L104.0,-13.0"/><path d="M78.0,0.0 L91.0,13.0 L104.0,0.0"/><path d="M78.0,13.0 L91.0,26.0 L104.0,13.0"/><path d="M78.0,26.0 L91.0,39.0 L104.0,26.0"/><path d="M78.0,39.0 L91.0,52.0 L104.0,39.0"/><path d="M78.0,52.0 L91.0,65.0 L104.0,52.0"/><path d="M78.0,65.0 L91.0,78.0 L104.0,65.0"/><path d="M78.0,78.0 L91.0,91.0 L104.0,78.0"/><path d="M78.0,91.0 L91.0,104.0 L104.0,91.0"/><path d="M78.0,104.0 L91.0,117.0 L104.0,104.0"/><path d="M78.0,117.0 L91.0,130.0 L104.0,117.0"/><path d="M78.0,130.0 L91.0,143.0 L104.0,130.0"/><path d="M78.0,143.0 L91.0,156.0 L104.0,143.0"/><path d="M78.0,156.0 L91.0,169.0 L104.0,156.0"/><path d="M78.0,169.0 L91.0,182.0 L104.0,169.0"/><path d="M104.0,-26.0 L117.0,-13.0 L130.0,-26.0"/><path d="M104.0,-13.0 L117.0,0.0 L130.0,-13.0"/><path d="M104.0,0.0 L117.0,13.0 L130.0,0.0"/><path d="M104.0,13.0 L117.0,26.0 L130.0,13.0"/><path d="M104.0,26.0 L117.0,39.0 L130.0,26.0"/><path d="M104.0,39.0 L117.0,52.0 L130.0,39.0"/><path d="M104.0,52.0 L117.0,65.0 L130.0,52.0"/><path d="M104.0,65.0 L117.0,78.0 L130.0,65.0"/><path d="M104.0,78.0 L117.0,91.0 L130.0,78.0"/><path d="M104.0,91.0 L117.0,104.0 L130.0,91.0"/><path d="M104.0,104.0 L117.0,117.0 L130.0,104.0"/><path d="M104.0,117.0 L117.0,130.0 L130.0,117.0"/><path d="M104.0,130.0 L117.0,143.0 L130.0,130.0"/><path d="M104.0,143.0 L117.0,156.0 L130.0,143.0"/><path d="M104.0,156.0 L117.0,169.0 L130.0,156.0"/><path d="M104.0,169.0 L117.0,182.0 L130.0,169.0"/><path d="M130.0,-26.0 L143.0,-13.0 L156.0,-26.0"/><path d="M130.0,-13.0 L143.0,0.0 L156.0,-13.0"/><path d="M130.0,0.0 L143.0,13.0 L156.0,0.0"/><path d="M130.0,13.0 L143.0,26.0 L156.0,13.0"/><path d="M130.0,26.0 L143.0,39.0 L156.0,26.0"/><path d="M130.0,39.0 L143.0,52.0 L156.0,39.0"/><path d="M130.0,52.0 L143.0,65.0 L156.0,52.0"/><path d="M130.0,65.0 L143.0,78.0 L156.0,65.0"/><path d="M130.0,78.0 L143.0,91.0 L156.0,78.0"/><path d="M130.0,91.0 L143.0,104.0 L156.0,91.0"/><path d="M130.0,104.0 L143.0,117.0 L156.0,104.0"/><path d="M130.0,117.0 L143.0,130.0 L156.0,117.0"/><path d="M130.0,130.0 L143.0,143.0 L156.0,130.0"/><path d="M130.0,143.0 L143.0,156.0 L156.0,143.0"/><path d="M130.0,156.0 L143.0,169.0 L156.0,156.0"/><path d="M130.0,169.0 L143.0,182.0 L156.0,169.0"/><path d="M156.0,-26.0 L169.0,-13.0 L182.0,-26.0"/><path d="M156.0,-13.0 L169.0,0.0 L182.0,-13.0"/><path d="M156.0,0.0 L169.0,13.0 L182.0,0.0"/><path d="M156.0,13.0 L169.0,26.0 L182.0,13.0"/><path d="M156.0,26.0 L169.0,39.0 L182.0,26.0"/><path d="M156.0,39.0 L169.0,52.0 L182.0,39.0"/><path d="M156.0,52.0 L169.0,65.0 L182.0,52.0"/><path d="M156.0,65.0 L169.0,78.0 L182.0,65.0"/><path d="M156.0,78.0 L169.0,91.0 L182.0,78.0"/><path d="M156.0,91.0 L169.0,104.0 L182.0,91.0"/><path d="M156.0,104.0 L169.0,117.0 L182.0,104.0"/><path d="M156.0,117.0 L169.0,130.0 L182.0,117.0"/><path d="M156.0,130.0 L169.0,143.0 L182.0,130.0"/><path d="M156.0,143.0 L169.0,156.0 L182.0,143.0"/><path d="M156.0,156.0 L169.0,169.0 L182.0,156.0"/><path d="M156.0,169.0 L169.0,182.0 L182.0,169.0"/><path d="M182.0,-26.0 L195.0,-13.0 L208.0,-26.0"/><path d="M182.0,-13.0 L195.0,0.0 L208.0,-13.0"/><path d="M182.0,0.0 L195.0,13.0 L208.0,0.0"/><path d="M182.0,13.0 L195.0,26.0 L208.0,13.0"/><path d="M182.0,26.0 L195.0,39.0 L208.0,26.0"/><path d="M182.0,39.0 L195.0,52.0 L208.0,39.0"/><path d="M182.0,52.0 L195.0,65.0 L208.0,52.0"/><path d="M182.0,65.0 L195.0,78.0 L208.0,65.0"/><path d="M182.0,78.0 L195.0,91.0 L208.0,78.0"/><path d="M182.0,91.0 L195.0,104.0 L208.0,91.0"/><path d="M182.0,104.0 L195.0,117.0 L208.0,104.0"/><path d="M182.0,117.0 L195.0,130.0 L208.0,117.0"/><path d="M182.0,130.0 L195.0,143.0 L208.0,130.0"/><path d="M182.0,143.0 L195.0,156.0 L208.0,143.0"/><path d="M182.0,156.0 L195.0,169.0 L208.0,156.0"/><path d="M182.0,169.0 L195.0,182.0 L208.0,169.0"/><path d="M208.0,-26.0 L221.0,-13.0 L234.0,-26.0"/><path d="M208.0,-13.0 L221.0,0.0 L234.0,-13.0"/><path d="M208.0,0.0 L221.0,13.0 L234.0,0.0"/><path d="M208.0,13.0 L221.0,26.0 L234.0,13.0"/><path d="M208.0,26.0 L221.0,39.0 L234.0,26.0"/><path d="M208.0,39.0 L221.0,52.0 L234.0,39.0"/><path d="M208.0,52.0 L221.0,65.0 L234.0,52.0"/><path d="M208.0,65.0 L221.0,78.0 L234.0,65.0"/><path d="M208.0,78.0 L221.0,91.0 L234.0,78.0"/><path d="M208.0,91.0 L221.0,104.0 L234.0,91.0"/><path d="M208.0,104.0 L221.0,117.0 L234.0,104.0"/><path d="M208.0,117.0 L221.0,130.0 L234.0,117.0"/><path d="M208.0,130.0 L221.0,143.0 L234.0,130.0"/><path d="M208.0,143.0 L221.0,156.0 L234.0,143.0"/><path d="M208.0,156.0 L221.0,169.0 L234.0,156.0"/><path d="M208.0,169.0 L221.0,182.0 L234.0,169.0"/><path d="M234.0,-26.0 L247.0,-13.0 L260.0,-26.0"/><path d="M234.0,-13.0 L247.0,0.0 L260.0,-13.0"/><path d="M234.0,0.0 L247.0,13.0 L260.0,0.0"/><path d="M234.0,13.0 L247.0,26.0 L260.0,13.0"/><path d="M234.0,26.0 L247.0,39.0 L260.0,26.0"/><path d="M234.0,39.0 L247.0,52.0 L260.0,39.0"/><path d="M234.0,52.0 L247.0,65.0 L260.0,52.0"/><path d="M234.0,65.0 L247.0,78.0 L260.0,65.0"/><path d="M234.0,78.0 L247.0,91.0 L260.0,78.0"/><path d="M234.0,91.0 L247.0,104.0 L260.0,91.0"/><path d="M234.0,104.0 L247.0,117.0 L260.0,104.0"/><path d="M234.0,117.0 L247.0,130.0 L260.0,117.0"/><path d="M234.0,130.0 L247.0,143.0 L260.0,130.0"/><path d="M234.0,143.0 L247.0,156.0 L260.0,143.0"/><path d="M234.0,156.0 L247.0,169.0 L260.0,156.0"/><path d="M234.0,169.0 L247.0,182.0 L260.0,169.0"/><path d="M260.0,-26.0 L273.0,-13.0 L286.0,-26.0"/><path d="M260.0,-13.0 L273.0,0.0 L286.0,-13.0"/><path d="M260.0,0.0 L273.0,13.0 L286.0,0.0"/><path d="M260.0,13.0 L273.0,26.0 L286.0,13.0"/><path d="M260.0,26.0 L273.0,39.0 L286.0,26.0"/><path d="M260.0,39.0 L273.0,52.0 L286.0,39.0"/><path d="M260.0,52.0 L273.0,65.0 L286.0,52.0"/><path d="M260.0,65.0 L273.0,78.0 L286.0,65.0"/><path d="M260.0,78.0 L273.0,91.0 L286.0,78.0"/><path d="M260.0,91.0 L273.0,104.0 L286.0,91.0"/><path d="M260.0,104.0 L273.0,117.0 L286.0,104.0"/><path d="M260.0,117.0 L273.0,130.0 L286.0,117.0"/><path d="M260.0,130.0 L273.0,143.0 L286.0,130.0"/><path d="M260.0,143.0 L273.0,156.0 L286.0,143.0"/><path d="M260.0,156.0 L273.0,169.0 L286.0,156.0"/><path d="M260.0,169.0 L273.0,182.0 L286.0,169.0"/><path d="M286.0,-26.0 L299.0,-13.0 L312.0,-26.0"/><path d="M286.0,-13.0 L299.0,0.0 L312.0,-13.0"/><path d="M286.0,0.0 L299.0,13.0 L312.0,0.0"/><path d="M286.0,13.0 L299.0,26.0 L312.0,13.0"/><path d="M286.0,26.0 L299.0,39.0 L312.0,26.0"/><path d="M286.0,39.0 L299.0,52.0 L312.0,39.0"/><path d="M286.0,52.0 L299.0,65.0 L312.0,52.0"/><path d="M286.0,65.0 L299.0,78.0 L312.0,65.0"/><path d="M286.0,78.0 L299.0,91.0 L312.0,78.0"/><path d="M286.0,91.0 L299.0,104.0 L312.0,91.0"/><path d="M286.0,104.0 L299.0,117.0 L312.0,104.0"/><path d="M286.0,117.0 L299.0,130.0 L312.0,117.0"/><path d="M286.0,130.0 L299.0,143.0 L312.0,130.0"/><path d="M286.0,143.0 L299.0,156.0 L312.0,143.0"/><path d="M286.0,156.0 L299.0,169.0 L312.0,156.0"/><path d="M286.0,169.0 L299.0,182.0 L312.0,169.0"/><path d="M312.0,-26.0 L325.0,-13.0 L338.0,-26.0"/><path d="M312.0,-13.0 L325.0,0.0 L338.0,-13.0"/><path d="M312.0,0.0 L325.0,13.0 L338.0,0.0"/><path d="M312.0,13.0 L325.0,26.0 L338.0,13.0"/><path d="M312.0,26.0 L325.0,39.0 L338.0,26.0"/><path d="M312.0,39.0 L325.0,52.0 L338.0,39.0"/><path d="M312.0,52.0 L325.0,65.0 L338.0,52.0"/><path d="M312.0,65.0 L325.0,78.0 L338.0,65.0"/><path d="M312.0,78.0 L325.0,91.0 L338.0,78.0"/><path d="M312.0,91.0 L325.0,104.0 L338.0,91.0"/><path d="M312.0,104.0 L325.0,117.0 L338.0,104.0"/><path d="M312.0,117.0 L325.0,130.0 L338.0,117.0"/><path d="M312.0,130.0 L325.0,143.0 L338.0,130.0"/><path d="M312.0,143.0 L325.0,156.0 L338.0,143.0"/><path d="M312.0,156.0 L325.0,169.0 L338.0,156.0"/><path d="M312.0,169.0 L325.0,182.0 L338.0,169.0"/></g></g></g><text x="888.0" y="183" text-anchor="middle" font-size="14" font-weight="600" fill="#3a2a1a">yabane 矢絣</text><clipPath id="c4"><rect x="1022" y="22" width="232" height="140" rx="8"/></clipPath><g clip-path="url(#c4)"><g transform="translate(1022,22)"><rect width="232" height="140" fill="#b87040"/><g fill="none" stroke="#7c4b2c" stroke-width="1.6" opacity="0.6"><path d="M-15.0,-26.0 L7.5,-13.0 M15.0,-26.0 L-7.5,-13.0 M0.0,0.0 L0.0,-26.0 M-30.0,0.0 L-7.5,-13.0 M0.0,0.0 L-22.5,-13.0 M-15.0,-26.0 L-15.0,0.0 M15.0,-26.0 L37.5,-13.0 M45.0,-26.0 L22.5,-13.0 M30.0,0.0 L30.0,-26.0 M0.0,0.0 L22.5,-13.0 M30.0,0.0 L7.5,-13.0 M15.0,-26.0 L15.0,0.0 M45.0,-26.0 L67.5,-13.0 M75.0,-26.0 L52.5,-13.0 M60.0,0.0 L60.0,-26.0 M30.0,0.0 L52.5,-13.0 M60.0,0.0 L37.5,-13.0 M45.0,-26.0 L45.0,0.0 M75.0,-26.0 L97.5,-13.0 M105.0,-26.0 L82.5,-13.0 M90.0,0.0 L90.0,-26.0 M60.0,0.0 L82.5,-13.0 M90.0,0.0 L67.5,-13.0 M75.0,-26.0 L75.0,0.0 M105.0,-26.0 L127.5,-13.0 M135.0,-26.0 L112.5,-13.0 M120.0,0.0 L120.0,-26.0 M90.0,0.0 L112.5,-13.0 M120.0,0.0 L97.5,-13.0 M105.0,-26.0 L105.0,0.0 M135.0,-26.0 L157.5,-13.0 M165.0,-26.0 L142.5,-13.0 M150.0,0.0 L150.0,-26.0 M120.0,0.0 L142.5,-13.0 M150.0,0.0 L127.5,-13.0 M135.0,-26.0 L135.0,0.0 M165.0,-26.0 L187.5,-13.0 M195.0,-26.0 L172.5,-13.0 M180.0,0.0 L180.0,-26.0 M150.0,0.0 L172.5,-13.0 M180.0,0.0 L157.5,-13.0 M165.0,-26.0 L165.0,0.0 M195.0,-26.0 L217.5,-13.0 M225.0,-26.0 L202.5,-13.0 M210.0,0.0 L210.0,-26.0 M180.0,0.0 L202.5,-13.0 M210.0,0.0 L187.5,-13.0 M195.0,-26.0 L195.0,0.0 M225.0,-26.0 L247.5,-13.0 M255.0,-26.0 L232.5,-13.0 M240.0,0.0 L240.0,-26.0 M210.0,0.0 L232.5,-13.0 M240.0,0.0 L217.5,-13.0 M225.0,-26.0 L225.0,0.0 M255.0,-26.0 L277.5,-13.0 M285.0,-26.0 L262.5,-13.0 M270.0,0.0 L270.0,-26.0 M240.0,0.0 L262.5,-13.0 M270.0,0.0 L247.5,-13.0 M255.0,-26.0 L255.0,0.0 M285.0,-26.0 L307.5,-13.0 M315.0,-26.0 L292.5,-13.0 M300.0,0.0 L300.0,-26.0 M270.0,0.0 L292.5,-13.0 M300.0,0.0 L277.5,-13.0 M285.0,-26.0 L285.0,0.0 M315.0,-26.0 L337.5,-13.0 M345.0,-26.0 L322.5,-13.0 M330.0,0.0 L330.0,-26.0 M300.0,0.0 L322.5,-13.0 M330.0,0.0 L307.5,-13.0 M315.0,-26.0 L315.0,0.0 M-30.0,0.0 L-7.5,13.0 M0.0,0.0 L-22.5,13.0 M-15.0,26.0 L-15.0,0.0 M-15.0,26.0 L7.5,13.0 M15.0,26.0 L-7.5,13.0 M0.0,0.0 L0.0,26.0 M0.0,0.0 L22.5,13.0 M30.0,0.0 L7.5,13.0 M15.0,26.0 L15.0,0.0 M15.0,26.0 L37.5,13.0 M45.0,26.0 L22.5,13.0 M30.0,0.0 L30.0,26.0 M30.0,0.0 L52.5,13.0 M60.0,0.0 L37.5,13.0 M45.0,26.0 L45.0,0.0 M45.0,26.0 L67.5,13.0 M75.0,26.0 L52.5,13.0 M60.0,0.0 L60.0,26.0 M60.0,0.0 L82.5,13.0 M90.0,0.0 L67.5,13.0 M75.0,26.0 L75.0,0.0 M75.0,26.0 L97.5,13.0 M105.0,26.0 L82.5,13.0 M90.0,0.0 L90.0,26.0 M90.0,0.0 L112.5,13.0 M120.0,0.0 L97.5,13.0 M105.0,26.0 L105.0,0.0 M105.0,26.0 L127.5,13.0 M135.0,26.0 L112.5,13.0 M120.0,0.0 L120.0,26.0 M120.0,0.0 L142.5,13.0 M150.0,0.0 L127.5,13.0 M135.0,26.0 L135.0,0.0 M135.0,26.0 L157.5,13.0 M165.0,26.0 L142.5,13.0 M150.0,0.0 L150.0,26.0 M150.0,0.0 L172.5,13.0 M180.0,0.0 L157.5,13.0 M165.0,26.0 L165.0,0.0 M165.0,26.0 L187.5,13.0 M195.0,26.0 L172.5,13.0 M180.0,0.0 L180.0,26.0 M180.0,0.0 L202.5,13.0 M210.0,0.0 L187.5,13.0 M195.0,26.0 L195.0,0.0 M195.0,26.0 L217.5,13.0 M225.0,26.0 L202.5,13.0 M210.0,0.0 L210.0,26.0 M210.0,0.0 L232.5,13.0 M240.0,0.0 L217.5,13.0 M225.0,26.0 L225.0,0.0 M225.0,26.0 L247.5,13.0 M255.0,26.0 L232.5,13.0 M240.0,0.0 L240.0,26.0 M240.0,0.0 L262.5,13.0 M270.0,0.0 L247.5,13.0 M255.0,26.0 L255.0,0.0 M255.0,26.0 L277.5,13.0 M285.0,26.0 L262.5,13.0 M270.0,0.0 L270.0,26.0 M270.0,0.0 L292.5,13.0 M300.0,0.0 L277.5,13.0 M285.0,26.0 L285.0,0.0 M285.0,26.0 L307.5,13.0 M315.0,26.0 L292.5,13.0 M300.0,0.0 L300.0,26.0 M300.0,0.0 L322.5,13.0 M330.0,0.0 L307.5,13.0 M315.0,26.0 L315.0,0.0 M315.0,26.0 L337.5,13.0 M345.0,26.0 L322.5,13.0 M330.0,0.0 L330.0,26.0 M-15.0,26.0 L7.5,39.0 M15.0,26.0 L-7.5,39.0 M0.0,52.0 L0.0,26.0 M-30.0,52.0 L-7.5,39.0 M0.0,52.0 L-22.5,39.0 M-15.0,26.0 L-15.0,52.0 M15.0,26.0 L37.5,39.0 M45.0,26.0 L22.5,39.0 M30.0,52.0 L30.0,26.0 M0.0,52.0 L22.5,39.0 M30.0,52.0 L7.5,39.0 M15.0,26.0 L15.0,52.0 M45.0,26.0 L67.5,39.0 M75.0,26.0 L52.5,39.0 M60.0,52.0 L60.0,26.0 M30.0,52.0 L52.5,39.0 M60.0,52.0 L37.5,39.0 M45.0,26.0 L45.0,52.0 M75.0,26.0 L97.5,39.0 M105.0,26.0 L82.5,39.0 M90.0,52.0 L90.0,26.0 M60.0,52.0 L82.5,39.0 M90.0,52.0 L67.5,39.0 M75.0,26.0 L75.0,52.0 M105.0,26.0 L127.5,39.0 M135.0,26.0 L112.5,39.0 M120.0,52.0 L120.0,26.0 M90.0,52.0 L112.5,39.0 M120.0,52.0 L97.5,39.0 M105.0,26.0 L105.0,52.0 M135.0,26.0 L157.5,39.0 M165.0,26.0 L142.5,39.0 M150.0,52.0 L150.0,26.0 M120.0,52.0 L142.5,39.0 M150.0,52.0 L127.5,39.0 M135.0,26.0 L135.0,52.0 M165.0,26.0 L187.5,39.0 M195.0,26.0 L172.5,39.0 M180.0,52.0 L180.0,26.0 M150.0,52.0 L172.5,39.0 M180.0,52.0 L157.5,39.0 M165.0,26.0 L165.0,52.0 M195.0,26.0 L217.5,39.0 M225.0,26.0 L202.5,39.0 M210.0,52.0 L210.0,26.0 M180.0,52.0 L202.5,39.0 M210.0,52.0 L187.5,39.0 M195.0,26.0 L195.0,52.0 M225.0,26.0 L247.5,39.0 M255.0,26.0 L232.5,39.0 M240.0,52.0 L240.0,26.0 M210.0,52.0 L232.5,39.0 M240.0,52.0 L217.5,39.0 M225.0,26.0 L225.0,52.0 M255.0,26.0 L277.5,39.0 M285.0,26.0 L262.5,39.0 M270.0,52.0 L270.0,26.0 M240.0,52.0 L262.5,39.0 M270.0,52.0 L247.5,39.0 M255.0,26.0 L255.0,52.0 M285.0,26.0 L307.5,39.0 M315.0,26.0 L292.5,39.0 M300.0,52.0 L300.0,26.0 M270.0,52.0 L292.5,39.0 M300.0,52.0 L277.5,39.0 M285.0,26.0 L285.0,52.0 M315.0,26.0 L337.5,39.0 M345.0,26.0 L322.5,39.0 M330.0,52.0 L330.0,26.0 M300.0,52.0 L322.5,39.0 M330.0,52.0 L307.5,39.0 M315.0,26.0 L315.0,52.0 M-30.0,52.0 L-7.5,65.0 M0.0,52.0 L-22.5,65.0 M-15.0,77.9 L-15.0,52.0 M-15.0,77.9 L7.5,65.0 M15.0,77.9 L-7.5,65.0 M0.0,52.0 L0.0,77.9 M0.0,52.0 L22.5,65.0 M30.0,52.0 L7.5,65.0 M15.0,77.9 L15.0,52.0 M15.0,77.9 L37.5,65.0 M45.0,77.9 L22.5,65.0 M30.0,52.0 L30.0,77.9 M30.0,52.0 L52.5,65.0 M60.0,52.0 L37.5,65.0 M45.0,77.9 L45.0,52.0 M45.0,77.9 L67.5,65.0 M75.0,77.9 L52.5,65.0 M60.0,52.0 L60.0,77.9 M60.0,52.0 L82.5,65.0 M90.0,52.0 L67.5,65.0 M75.0,77.9 L75.0,52.0 M75.0,77.9 L97.5,65.0 M105.0,77.9 L82.5,65.0 M90.0,52.0 L90.0,77.9 M90.0,52.0 L112.5,65.0 M120.0,52.0 L97.5,65.0 M105.0,77.9 L105.0,52.0 M105.0,77.9 L127.5,65.0 M135.0,77.9 L112.5,65.0 M120.0,52.0 L120.0,77.9 M120.0,52.0 L142.5,65.0 M150.0,52.0 L127.5,65.0 M135.0,77.9 L135.0,52.0 M135.0,77.9 L157.5,65.0 M165.0,77.9 L142.5,65.0 M150.0,52.0 L150.0,77.9 M150.0,52.0 L172.5,65.0 M180.0,52.0 L157.5,65.0 M165.0,77.9 L165.0,52.0 M165.0,77.9 L187.5,65.0 M195.0,77.9 L172.5,65.0 M180.0,52.0 L180.0,77.9 M180.0,52.0 L202.5,65.0 M210.0,52.0 L187.5,65.0 M195.0,77.9 L195.0,52.0 M195.0,77.9 L217.5,65.0 M225.0,77.9 L202.5,65.0 M210.0,52.0 L210.0,77.9 M210.0,52.0 L232.5,65.0 M240.0,52.0 L217.5,65.0 M225.0,77.9 L225.0,52.0 M225.0,77.9 L247.5,65.0 M255.0,77.9 L232.5,65.0 M240.0,52.0 L240.0,77.9 M240.0,52.0 L262.5,65.0 M270.0,52.0 L247.5,65.0 M255.0,77.9 L255.0,52.0 M255.0,77.9 L277.5,65.0 M285.0,77.9 L262.5,65.0 M270.0,52.0 L270.0,77.9 M270.0,52.0 L292.5,65.0 M300.0,52.0 L277.5,65.0 M285.0,77.9 L285.0,52.0 M285.0,77.9 L307.5,65.0 M315.0,77.9 L292.5,65.0 M300.0,52.0 L300.0,77.9 M300.0,52.0 L322.5,65.0 M330.0,52.0 L307.5,65.0 M315.0,77.9 L315.0,52.0 M315.0,77.9 L337.5,65.0 M345.0,77.9 L322.5,65.0 M330.0,52.0 L330.0,77.9 M-15.0,77.9 L7.5,90.9 M15.0,77.9 L-7.5,90.9 M0.0,103.9 L0.0,77.9 M-30.0,103.9 L-7.5,90.9 M0.0,103.9 L-22.5,90.9 M-15.0,77.9 L-15.0,103.9 M15.0,77.9 L37.5,90.9 M45.0,77.9 L22.5,90.9 M30.0,103.9 L30.0,77.9 M0.0,103.9 L22.5,90.9 M30.0,103.9 L7.5,90.9 M15.0,77.9 L15.0,103.9 M45.0,77.9 L67.5,90.9 M75.0,77.9 L52.5,90.9 M60.0,103.9 L60.0,77.9 M30.0,103.9 L52.5,90.9 M60.0,103.9 L37.5,90.9 M45.0,77.9 L45.0,103.9 M75.0,77.9 L97.5,90.9 M105.0,77.9 L82.5,90.9 M90.0,103.9 L90.0,77.9 M60.0,103.9 L82.5,90.9 M90.0,103.9 L67.5,90.9 M75.0,77.9 L75.0,103.9 M105.0,77.9 L127.5,90.9 M135.0,77.9 L112.5,90.9 M120.0,103.9 L120.0,77.9 M90.0,103.9 L112.5,90.9 M120.0,103.9 L97.5,90.9 M105.0,77.9 L105.0,103.9 M135.0,77.9 L157.5,90.9 M165.0,77.9 L142.5,90.9 M150.0,103.9 L150.0,77.9 M120.0,103.9 L142.5,90.9 M150.0,103.9 L127.5,90.9 M135.0,77.9 L135.0,103.9 M165.0,77.9 L187.5,90.9 M195.0,77.9 L172.5,90.9 M180.0,103.9 L180.0,77.9 M150.0,103.9 L172.5,90.9 M180.0,103.9 L157.5,90.9 M165.0,77.9 L165.0,103.9 M195.0,77.9 L217.5,90.9 M225.0,77.9 L202.5,90.9 M210.0,103.9 L210.0,77.9 M180.0,103.9 L202.5,90.9 M210.0,103.9 L187.5,90.9 M195.0,77.9 L195.0,103.9 M225.0,77.9 L247.5,90.9 M255.0,77.9 L232.5,90.9 M240.0,103.9 L240.0,77.9 M210.0,103.9 L232.5,90.9 M240.0,103.9 L217.5,90.9 M225.0,77.9 L225.0,103.9 M255.0,77.9 L277.5,90.9 M285.0,77.9 L262.5,90.9 M270.0,103.9 L270.0,77.9 M240.0,103.9 L262.5,90.9 M270.0,103.9 L247.5,90.9 M255.0,77.9 L255.0,103.9 M285.0,77.9 L307.5,90.9 M315.0,77.9 L292.5,90.9 M300.0,103.9 L300.0,77.9 M270.0,103.9 L292.5,90.9 M300.0,103.9 L277.5,90.9 M285.0,77.9 L285.0,103.9 M315.0,77.9 L337.5,90.9 M345.0,77.9 L322.5,90.9 M330.0,103.9 L330.0,77.9 M300.0,103.9 L322.5,90.9 M330.0,103.9 L307.5,90.9 M315.0,77.9 L315.0,103.9 M-30.0,103.9 L-7.5,116.9 M0.0,103.9 L-22.5,116.9 M-15.0,129.9 L-15.0,103.9 M-15.0,129.9 L7.5,116.9 M15.0,129.9 L-7.5,116.9 M0.0,103.9 L0.0,129.9 M0.0,103.9 L22.5,116.9 M30.0,103.9 L7.5,116.9 M15.0,129.9 L15.0,103.9 M15.0,129.9 L37.5,116.9 M45.0,129.9 L22.5,116.9 M30.0,103.9 L30.0,129.9 M30.0,103.9 L52.5,116.9 M60.0,103.9 L37.5,116.9 M45.0,129.9 L45.0,103.9 M45.0,129.9 L67.5,116.9 M75.0,129.9 L52.5,116.9 M60.0,103.9 L60.0,129.9 M60.0,103.9 L82.5,116.9 M90.0,103.9 L67.5,116.9 M75.0,129.9 L75.0,103.9 M75.0,129.9 L97.5,116.9 M105.0,129.9 L82.5,116.9 M90.0,103.9 L90.0,129.9 M90.0,103.9 L112.5,116.9 M120.0,103.9 L97.5,116.9 M105.0,129.9 L105.0,103.9 M105.0,129.9 L127.5,116.9 M135.0,129.9 L112.5,116.9 M120.0,103.9 L120.0,129.9 M120.0,103.9 L142.5,116.9 M150.0,103.9 L127.5,116.9 M135.0,129.9 L135.0,103.9 M135.0,129.9 L157.5,116.9 M165.0,129.9 L142.5,116.9 M150.0,103.9 L150.0,129.9 M150.0,103.9 L172.5,116.9 M180.0,103.9 L157.5,116.9 M165.0,129.9 L165.0,103.9 M165.0,129.9 L187.5,116.9 M195.0,129.9 L172.5,116.9 M180.0,103.9 L180.0,129.9 M180.0,103.9 L202.5,116.9 M210.0,103.9 L187.5,116.9 M195.0,129.9 L195.0,103.9 M195.0,129.9 L217.5,116.9 M225.0,129.9 L202.5,116.9 M210.0,103.9 L210.0,129.9 M210.0,103.9 L232.5,116.9 M240.0,103.9 L217.5,116.9 M225.0,129.9 L225.0,103.9 M225.0,129.9 L247.5,116.9 M255.0,129.9 L232.5,116.9 M240.0,103.9 L240.0,129.9 M240.0,103.9 L262.5,116.9 M270.0,103.9 L247.5,116.9 M255.0,129.9 L255.0,103.9 M255.0,129.9 L277.5,116.9 M285.0,129.9 L262.5,116.9 M270.0,103.9 L270.0,129.9 M270.0,103.9 L292.5,116.9 M300.0,103.9 L277.5,116.9 M285.0,129.9 L285.0,103.9 M285.0,129.9 L307.5,116.9 M315.0,129.9 L292.5,116.9 M300.0,103.9 L300.0,129.9 M300.0,103.9 L322.5,116.9 M330.0,103.9 L307.5,116.9 M315.0,129.9 L315.0,103.9 M315.0,129.9 L337.5,116.9 M345.0,129.9 L322.5,116.9 M330.0,103.9 L330.0,129.9 M-15.0,129.9 L7.5,142.9 M15.0,129.9 L-7.5,142.9 M0.0,155.9 L0.0,129.9 M-30.0,155.9 L-7.5,142.9 M0.0,155.9 L-22.5,142.9 M-15.0,129.9 L-15.0,155.9 M15.0,129.9 L37.5,142.9 M45.0,129.9 L22.5,142.9 M30.0,155.9 L30.0,129.9 M0.0,155.9 L22.5,142.9 M30.0,155.9 L7.5,142.9 M15.0,129.9 L15.0,155.9 M45.0,129.9 L67.5,142.9 M75.0,129.9 L52.5,142.9 M60.0,155.9 L60.0,129.9 M30.0,155.9 L52.5,142.9 M60.0,155.9 L37.5,142.9 M45.0,129.9 L45.0,155.9 M75.0,129.9 L97.5,142.9 M105.0,129.9 L82.5,142.9 M90.0,155.9 L90.0,129.9 M60.0,155.9 L82.5,142.9 M90.0,155.9 L67.5,142.9 M75.0,129.9 L75.0,155.9 M105.0,129.9 L127.5,142.9 M135.0,129.9 L112.5,142.9 M120.0,155.9 L120.0,129.9 M90.0,155.9 L112.5,142.9 M120.0,155.9 L97.5,142.9 M105.0,129.9 L105.0,155.9 M135.0,129.9 L157.5,142.9 M165.0,129.9 L142.5,142.9 M150.0,155.9 L150.0,129.9 M120.0,155.9 L142.5,142.9 M150.0,155.9 L127.5,142.9 M135.0,129.9 L135.0,155.9 M165.0,129.9 L187.5,142.9 M195.0,129.9 L172.5,142.9 M180.0,155.9 L180.0,129.9 M150.0,155.9 L172.5,142.9 M180.0,155.9 L157.5,142.9 M165.0,129.9 L165.0,155.9 M195.0,129.9 L217.5,142.9 M225.0,129.9 L202.5,142.9 M210.0,155.9 L210.0,129.9 M180.0,155.9 L202.5,142.9 M210.0,155.9 L187.5,142.9 M195.0,129.9 L195.0,155.9 M225.0,129.9 L247.5,142.9 M255.0,129.9 L232.5,142.9 M240.0,155.9 L240.0,129.9 M210.0,155.9 L232.5,142.9 M240.0,155.9 L217.5,142.9 M225.0,129.9 L225.0,155.9 M255.0,129.9 L277.5,142.9 M285.0,129.9 L262.5,142.9 M270.0,155.9 L270.0,129.9 M240.0,155.9 L262.5,142.9 M270.0,155.9 L247.5,142.9 M255.0,129.9 L255.0,155.9 M285.0,129.9 L307.5,142.9 M315.0,129.9 L292.5,142.9 M300.0,155.9 L300.0,129.9 M270.0,155.9 L292.5,142.9 M300.0,155.9 L277.5,142.9 M285.0,129.9 L285.0,155.9 M315.0,129.9 L337.5,142.9 M345.0,129.9 L322.5,142.9 M330.0,155.9 L330.0,129.9 M300.0,155.9 L322.5,142.9 M330.0,155.9 L307.5,142.9 M315.0,129.9 L315.0,155.9 M-30.0,155.9 L-7.5,168.9 M0.0,155.9 L-22.5,168.9 M-15.0,181.9 L-15.0,155.9 M-15.0,181.9 L7.5,168.9 M15.0,181.9 L-7.5,168.9 M0.0,155.9 L0.0,181.9 M0.0,155.9 L22.5,168.9 M30.0,155.9 L7.5,168.9 M15.0,181.9 L15.0,155.9 M15.0,181.9 L37.5,168.9 M45.0,181.9 L22.5,168.9 M30.0,155.9 L30.0,181.9 M30.0,155.9 L52.5,168.9 M60.0,155.9 L37.5,168.9 M45.0,181.9 L45.0,155.9 M45.0,181.9 L67.5,168.9 M75.0,181.9 L52.5,168.9 M60.0,155.9 L60.0,181.9 M60.0,155.9 L82.5,168.9 M90.0,155.9 L67.5,168.9 M75.0,181.9 L75.0,155.9 M75.0,181.9 L97.5,168.9 M105.0,181.9 L82.5,168.9 M90.0,155.9 L90.0,181.9 M90.0,155.9 L112.5,168.9 M120.0,155.9 L97.5,168.9 M105.0,181.9 L105.0,155.9 M105.0,181.9 L127.5,168.9 M135.0,181.9 L112.5,168.9 M120.0,155.9 L120.0,181.9 M120.0,155.9 L142.5,168.9 M150.0,155.9 L127.5,168.9 M135.0,181.9 L135.0,155.9 M135.0,181.9 L157.5,168.9 M165.0,181.9 L142.5,168.9 M150.0,155.9 L150.0,181.9 M150.0,155.9 L172.5,168.9 M180.0,155.9 L157.5,168.9 M165.0,181.9 L165.0,155.9 M165.0,181.9 L187.5,168.9 M195.0,181.9 L172.5,168.9 M180.0,155.9 L180.0,181.9 M180.0,155.9 L202.5,168.9 M210.0,155.9 L187.5,168.9 M195.0,181.9 L195.0,155.9 M195.0,181.9 L217.5,168.9 M225.0,181.9 L202.5,168.9 M210.0,155.9 L210.0,181.9 M210.0,155.9 L232.5,168.9 M240.0,155.9 L217.5,168.9 M225.0,181.9 L225.0,155.9 M225.0,181.9 L247.5,168.9 M255.0,181.9 L232.5,168.9 M240.0,155.9 L240.0,181.9 M240.0,155.9 L262.5,168.9 M270.0,155.9 L247.5,168.9 M255.0,181.9 L255.0,155.9 M255.0,181.9 L277.5,168.9 M285.0,181.9 L262.5,168.9 M270.0,155.9 L270.0,181.9 M270.0,155.9 L292.5,168.9 M300.0,155.9 L277.5,168.9 M285.0,181.9 L285.0,155.9 M285.0,181.9 L307.5,168.9 M315.0,181.9 L292.5,168.9 M300.0,155.9 L300.0,181.9 M300.0,155.9 L322.5,168.9 M330.0,155.9 L307.5,168.9 M315.0,181.9 L315.0,155.9 M315.0,181.9 L337.5,168.9 M345.0,181.9 L322.5,168.9 M330.0,155.9 L330.0,181.9"/></g></g></g><text x="1138.0" y="183" text-anchor="middle" font-size="14" font-weight="600" fill="#3a2a1a">asanoha 麻の葉</text></svg>