<svg xmlns="http://www.w3.org/2000/svg" width="820" height="196" viewBox="0 0 820 196" font-family="Segoe UI, Helvetica, Arial, sans-serif"><rect width="820" height="196" rx="10" fill="#f0e0c8"/><defs><clipPath id="wk-seg-0"><rect x="20.00" y="20" width="258.25" height="156" rx="6"/></clipPath><clipPath id="wk-seg-1"><rect x="281.25" y="20" width="131.71" height="156" rx="6"/></clipPath><clipPath id="wk-seg-2"><rect x="415.96" y="20" width="66.40" height="156" rx="6"/></clipPath><clipPath id="wk-seg-3"><rect x="485.36" y="20" width="41.90" height="156" rx="6"/></clipPath><clipPath id="wk-seg-4"><rect x="530.26" y="20" width="21.49" height="156" rx="6"/></clipPath><clipPath id="wk-seg-5"><rect x="554.75" y="20" width="9.25" height="156" rx="6"/></clipPath></defs><g clip-path="url(#wk-seg-0)"><g transform="translate(20.00,20)"><rect width="258.25" height="156" fill="#b87040"/><g fill="none" stroke="#774828" stroke-width="1.6" opacity="0.6"><path d="M-38.00,0.00 A19.00,19.00 0 0 0 0.00,0.00 M-31.67,0.00 A12.67,12.67 0 0 0 -6.33,0.00 M-25.33,0.00 A6.33,6.33 0 0 0 -12.67,0.00 M0.00,0.00 A19.00,19.00 0 0 0 38.00,0.00 M6.33,0.00 A12.67,12.67 0 0 0 31.67,0.00 M12.67,0.00 A6.33,6.33 0 0 0 25.33,0.00 M38.00,0.00 A19.00,19.00 0 0 0 76.00,0.00 M44.33,0.00 A12.67,12.67 0 0 0 69.67,0.00 M50.67,0.00 A6.33,6.33 0 0 0 63.33,0.00 M76.00,0.00 A19.00,19.00 0 0 0 114.00,0.00 M82.33,0.00 A12.67,12.67 0 0 0 107.67,0.00 M88.67,0.00 A6.33,6.33 0 0 0 101.33,0.00 M114.00,0.00 A19.00,19.00 0 0 0 152.00,0.00 M120.33,0.00 A12.67,12.67 0 0 0 145.67,0.00 M126.67,0.00 A6.33,6.33 0 0 0 139.33,0.00 M152.00,0.00 A19.00,19.00 0 0 0 190.00,0.00 M158.33,0.00 A12.67,12.67 0 0 0 183.67,0.00 M164.67,0.00 A6.33,6.33 0 0 0 177.33,0.00 M190.00,0.00 A19.00,19.00 0 0 0 228.00,0.00 M196.33,0.00 A12.67,12.67 0 0 0 221.67,0.00 M202.67,0.00 A6.33,6.33 0 0 0 215.33,0.00 M228.00,0.00 A19.00,19.00 0 0 0 266.00,0.00 M234.33,0.00 A12.67,12.67 0 0 0 259.67,0.00 M240.67,0.00 A6.33,6.33 0 0 0 253.33,0.00 M266.00,0.00 A19.00,19.00 0 0 0 304.00,0.00 M272.33,0.00 A12.67,12.67 0 0 0 297.67,0.00 M278.67,0.00 A6.33,6.33 0 0 0 291.33,0.00 M-19.00,19.00 A19.00,19.00 0 0 0 19.00,19.00 M-12.67,19.00 A12.67,12.67 0 0 0 12.67,19.00 M-6.33,19.00 A6.33,6.33 0 0 0 6.33,19.00 M19.00,19.00 A19.00,19.00 0 0 0 57.00,19.00 M25.33,19.00 A12.67,12.67 0 0 0 50.67,19.00 M31.67,19.00 A6.33,6.33 0 0 0 44.33,19.00 M57.00,19.00 A19.00,19.00 0 0 0 95.00,19.00 M63.33,19.00 A12.67,12.67 0 0 0 88.67,19.00 M69.67,19.00 A6.33,6.33 0 0 0 82.33,19.00 M95.00,19.00 A19.00,19.00 0 0 0 133.00,19.00 M101.33,19.00 A12.67,12.67 0 0 0 126.67,19.00 M107.67,19.00 A6.33,6.33 0 0 0 120.33,19.00 M133.00,19.00 A19.00,19.00 0 0 0 171.00,19.00 M139.33,19.00 A12.67,12.67 0 0 0 164.67,19.00 M145.67,19.00 A6.33,6.33 0 0 0 158.33,19.00 M171.00,19.00 A19.00,19.00 0 0 0 209.00,19.00 M177.33,19.00 A12.67,12.67 0 0 0 202.67,19.00 M183.67,19.00 A6.33,6.33 0 0 0 196.33,19.00 M209.00,19.00 A19.00,19.00 0 0 0 247.00,19.00 M215.33,19.00 A12.67,12.67 0 0 0 240.67,19.00 M221.67,19.00 A6.33,6.33 0 0 0 234.33,19.00 M247.00,19.00 A19.00,19.00 0 0 0 285.00,19.00 M253.33,19.00 A12.67,12.67 0 0 0 278.67,19.00 M259.67,19.00 A6.33,6.33 0 0 0 272.33,19.00 M285.00,19.00 A19.00,19.00 0 0 0 323.00,19.00 M291.33,19.00 A12.67,12.67 0 0 0 316.67,19.00 M297.67,19.00 A6.33,6.33 0 0 0 310.33,19.00 M-38.00,38.00 A19.00,19.00 0 0 0 0.00,38.00 M-31.67,38.00 A12.67,12.67 0 0 0 -6.33,38.00 M-25.33,38.00 A6.33,6.33 0 0 0 -12.67,38.00 M0.00,38.00 A19.00,19.00 0 0 0 38.00,38.00 M6.33,38.00 A12.67,12.67 0 0 0 31.67,38.00 M12.67,38.00 A6.33,6.33 0 0 0 25.33,38.00 M38.00,38.00 A19.00,19.00 0 0 0 76.00,38.00 M44.33,38.00 A12.67,12.67 0 0 0 69.67,38.00 M50.67,38.00 A6.33,6.33 0 0 0 63.33,38.00 M76.00,38.00 A19.00,19.00 0 0 0 114.00,38.00 M82.33,38.00 A12.67,12.67 0 0 0 107.67,38.00 M88.67,38.00 A6.33,6.33 0 0 0 101.33,38.00 M114.00,38.00 A19.00,19.00 0 0 0 152.00,38.00 M120.33,38.00 A12.67,12.67 0 0 0 145.67,38.00 M126.67,38.00 A6.33,6.33 0 0 0 139.33,38.00 M152.00,38.00 A19.00,19.00 0 0 0 190.00,38.00 M158.33,38.00 A12.67,12.67 0 0 0 183.67,38.00 M164.67,38.00 A6.33,6.33 0 0 0 177.33,38.00 M190.00,38.00 A19.00,19.00 0 0 0 228.00,38.00 M196.33,38.00 A12.67,12.67 0 0 0 221.67,38.00 M202.67,38.00 A6.33,6.33 0 0 0 215.33,38.00 M228.00,38.00 A19.00,19.00 0 0 0 266.00,38.00 M234.33,38.00 A12.67,12.67 0 0 0 259.67,38.00 M240.67,38.00 A6.33,6.33 0 0 0 253.33,38.00 M266.00,38.00 A19.00,19.00 0 0 0 304.00,38.00 M272.33,38.00 A12.67,12.67 0 0 0 297.67,38.00 M278.67,38.00 A6.33,6.33 0 0 0 291.33,38.00 M-19.00,57.00 A19.00,19.00 0 0 0 19.00,57.00 M-12.67,57.00 A12.67,12.67 0 0 0 12.67,57.00 M-6.33,57.00 A6.33,6.33 0 0 0 6.33,57.00 M19.00,57.00 A19.00,19.00 0 0 0 57.00,57.00 M25.33,57.00 A12.67,12.67 0 0 0 50.67,57.00 M31.67,57.00 A6.33,6.33 0 0 0 44.33,57.00 M57.00,57.00 A19.00,19.00 0 0 0 95.00,57.00 M63.33,57.00 A12.67,12.67 0 0 0 88.67,57.00 M69.67,57.00 A6.33,6.33 0 0 0 82.33,57.00 M95.00,57.00 A19.00,19.00 0 0 0 133.00,57.00 M101.33,57.00 A12.67,12.67 0 0 0 126.67,57.00 M107.67,57.00 A6.33,6.33 0 0 0 120.33,57.00 M133.00,57.00 A19.00,19.00 0 0 0 171.00,57.00 M139.33,57.00 A12.67,12.67 0 0 0 164.67,57.00 M145.67,57.00 A6.33,6.33 0 0 0 158.33,57.00 M171.00,57.00 A19.00,19.00 0 0 0 209.00,57.00 M177.33,57.00 A12.67,12.67 0 0 0 202.67,57.00 M183.67,57.00 A6.33,6.33 0 0 0 196.33,57.00 M209.00,57.00 A19.00,19.00 0 0 0 247.00,57.00 M215.33,57.00 A12.67,12.67 0 0 0 240.67,57.00 M221.67,57.00 A6.33,6.33 0 0 0 234.33,57.00 M247.00,57.00 A19.00,19.00 0 0 0 285.00,57.00 M253.33,57.00 A12.67,12.67 0 0 0 278.67,57.00 M259.67,57.00 A6.33,6.33 0 0 0 272.33,57.00 M285.00,57.00 A19.00,19.00 0 0 0 323.00,57.00 M291.33,57.00 A12.67,12.67 0 0 0 316.67,57.00 M297.67,57.00 A6.33,6.33 0 0 0 310.33,57.00 M-38.00,76.00 A19.00,19.00 0 0 0 0.00,76.00 M-31.67,76.00 A12.67,12.67 0 0 0 -6.33,76.00 M-25.33,76.00 A6.33,6.33 0 0 0 -12.67,76.00 M0.00,76.00 A19.00,19.00 0 0 0 38.00,76.00 M6.33,76.00 A12.67,12.67 0 0 0 31.67,76.00 M12.67,76.00 A6.33,6.33 0 0 0 25.33,76.00 M38.00,76.00 A19.00,19.00 0 0 0 76.00,76.00 M44.33,76.00 A12.67,12.67 0 0 0 69.67,76.00 M50.67,76.00 A6.33,6.33 0 0 0 63.33,76.00 M76.00,76.00 A19.00,19.00 0 0 0 114.00,76.00 M82.33,76.00 A12.67,12.67 0 0 0 107.67,76.00 M88.67,76.00 A6.33,6.33 0 0 0 101.33,76.00 M114.00,76.00 A19.00,19.00 0 0 0 152.00,76.00 M120.33,76.00 A12.67,12.67 0 0 0 145.67,76.00 M126.67,76.00 A6.33,6.33 0 0 0 139.33,76.00 M152.00,76.00 A19.00,19.00 0 0 0 190.00,76.00 M158.33,76.00 A12.67,12.67 0 0 0 183.67,76.00 M164.67,76.00 A6.33,6.33 0 0 0 177.33,76.00 M190.00,76.00 A19.00,19.00 0 0 0 228.00,76.00 M196.33,76.00 A12.67,12.67 0 0 0 221.67,76.00 M202.67,76.00 A6.33,6.33 0 0 0 215.33,76.00 M228.00,76.00 A19.00,19.00 0 0 0 266.00,76.00 M234.33,76.00 A12.67,12.67 0 0 0 259.67,76.00 M240.67,76.00 A6.33,6.33 0 0 0 253.33,76.00 M266.00,76.00 A19.00,19.00 0 0 0 304.00,76.00 M272.33,76.00 A12.67,12.67 0 0 0 297.67,76.00 M278.67,76.00 A6.33,6.33 0 0 0 291.33,76.00 M-19.00,95.00 A19.00,19.00 0 0 0 19.00,95.00 M-12.67,95.00 A12.67,12.67 0 0 0 12.67,95.00 M-6.33,95.00 A6.33,6.33 0 0 0 6.33,95.00 M19.00,95.00 A19.00,19.00 0 0 0 57.00,95.00 M25.33,95.00 A12.67,12.67 0 0 0 50.67,95.00 M31.67,95.00 A6.33,6.33 0 0 0 44.33,95.00 M57.00,95.00 A19.00,19.00 0 0 0 95.00,95.00 M63.33,95.00 A12.67,12.67 0 0 0 88.67,95.00 M69.67,95.00 A6.33,6.33 0 0 0 82.33,95.00 M95.00,95.00 A19.00,19.00 0 0 0 133.00,95.00 M101.33,95.00 A12.67,12.67 0 0 0 126.67,95.00 M107.67,95.00 A6.33,6.33 0 0 0 120.33,95.00 M133.00,95.00 A19.00,19.00 0 0 0 171.00,95.00 M139.33,95.00 A12.67,12.67 0 0 0 164.67,95.00 M145.67,95.00 A6.33,6.33 0 0 0 158.33,95.00 M171.00,95.00 A19.00,19.00 0 0 0 209.00,95.00 M177.33,95.00 A12.67,12.67 0 0 0 202.67,95.00 M183.67,95.00 A6.33,6.33 0 0 0 196.33,95.00 M209.00,95.00 A19.00,19.00 0 0 0 247.00,95.00 M215.33,95.00 A12.67,12.67 0 0 0 240.67,95.00 M221.67,95.00 A6.33,6.33 0 0 0 234.33,95.00 M247.00,95.00 A19.00,19.00 0 0 0 285.00,95.00 M253.33,95.00 A12.67,12.67 0 0 0 278.67,95.00 M259.67,95.00 A6.33,6.33 0 0 0 272.33,95.00 M285.00,95.00 A19.00,19.00 0 0 0 323.00,95.00 M291.33,95.00 A12.67,12.67 0 0 0 316.67,95.00 M297.67,95.00 A6.33,6.33 0 0 0 310.33,95.00 M-38.00,114.00 A19.00,19.00 0 0 0 0.00,114.00 M-31.67,114.00 A12.67,12.67 0 0 0 -6.33,114.00 M-25.33,114.00 A6.33,6.33 0 0 0 -12.67,114.00 M0.00,114.00 A19.00,19.00 0 0 0 38.00,114.00 M6.33,114.00 A12.67,12.67 0 0 0 31.67,114.00 M12.67,114.00 A6.33,6.33 0 0 0 25.33,114.00 M38.00,114.00 A19.00,19.00 0 0 0 76.00,114.00 M44.33,114.00 A12.67,12.67 0 0 0 69.67,114.00 M50.67,114.00 A6.33,6.33 0 0 0 63.33,114.00 M76.00,114.00 A19.00,19.00 0 0 0 114.00,114.00 M82.33,114.00 A12.67,12.67 0 0 0 107.67,114.00 M88.67,114.00 A6.33,6.33 0 0 0 101.33,114.00 M114.00,114.00 A19.00,19.00 0 0 0 152.00,114.00 M120.33,114.00 A12.67,12.67 0 0 0 145.67,114.00 M126.67,114.00 A6.33,6.33 0 0 0 139.33,114.00 M152.00,114.00 A19.00,19.00 0 0 0 190.00,114.00 M158.33,114.00 A12.67,12.67 0 0 0 183.67,114.00 M164.67,114.00 A6.33,6.33 0 0 0 177.33,114.00 M190.00,114.00 A19.00,19.00 0 0 0 228.00,114.00 M196.33,114.00 A12.67,12.67 0 0 0 221.67,114.00 M202.67,114.00 A6.33,6.33 0 0 0 215.33,114.00 M228.00,114.00 A19.00,19.00 0 0 0 266.00,114.00 M234.33,114.00 A12.67,12.67 0 0 0 259.67,114.00 M240.67,114.00 A6.33,6.33 0 0 0 253.33,114.00 M266.00,114.00 A19.00,19.00 0 0 0 304.00,114.00 M272.33,114.00 A12.67,12.67 0 0 0 297.67,114.00 M278.67,114.00 A6.33,6.33 0 0 0 291.33,114.00 M-19.00,133.00 A19.00,19.00 0 0 0 19.00,133.00 M-12.67,133.00 A12.67,12.67 0 0 0 12.67,133.00 M-6.33,133.00 A6.33,6.33 0 0 0 6.33,133.00 M19.00,133.00 A19.00,19.00 0 0 0 57.00,133.00 M25.33,133.00 A12.67,12.67 0 0 0 50.67,133.00 M31.67,133.00 A6.33,6.33 0 0 0 44.33,133.00 M57.00,133.00 A19.00,19.00 0 0 0 95.00,133.00 M63.33,133.00 A12.67,12.67 0 0 0 88.67,133.00 M69.67,133.00 A6.33,6.33 0 0 0 82.33,133.00 M95.00,133.00 A19.00,19.00 0 0 0 133.00,133.00 M101.33,133.00 A12.67,12.67 0 0 0 126.67,133.00 M107.67,133.00 A6.33,6.33 0 0 0 120.33,133.00 M133.00,133.00 A19.00,19.00 0 0 0 171.00,133.00 M139.33,133.00 A12.67,12.67 0 0 0 164.67,133.00 M145.67,133.00 A6.33,6.33 0 0 0 158.33,133.00 M171.00,133.00 A19.00,19.00 0 0 0 209.00,133.00 M177.33,133.00 A12.67,12.67 0 0 0 202.67,133.00 M183.67,133.00 A6.33,6.33 0 0 0 196.33,133.00 M209.00,133.00 A19.00,19.00 0 0 0 247.00,133.00 M215.33,133.00 A12.67,12.67 0 0 0 240.67,133.00 M221.67,133.00 A6.33,6.33 0 0 0 234.33,133.00 M247.00,133.00 A19.00,19.00 0 0 0 285.00,133.00 M253.33,133.00 A12.67,12.67 0 0 0 278.67,133.00 M259.67,133.00 A6.33,6.33 0 0 0 272.33,133.00 M285.00,133.00 A19.00,19.00 0 0 0 323.00,133.00 M291.33,133.00 A12.67,12.67 0 0 0 316.67,133.00 M297.67,133.00 A6.33,6.33 0 0 0 310.33,133.00 M-38.00,152.00 A19.00,19.00 0 0 0 0.00,152.00 M-31.67,152.00 A12.67,12.67 0 0 0 -6.33,152.00 M-25.33,152.00 A6.33,6.33 0 0 0 -12.67,152.00 M0.00,152.00 A19.00,19.00 0 0 0 38.00,152.00 M6.33,152.00 A12.67,12.67 0 0 0 31.67,152.00 M12.67,152.00 A6.33,6.33 0 0 0 25.33,152.00 M38.00,152.00 A19.00,19.00 0 0 0 76.00,152.00 M44.33,152.00 A12.67,12.67 0 0 0 69.67,152.00 M50.67,152.00 A6.33,6.33 0 0 0 63.33,152.00 M76.00,152.00 A19.00,19.00 0 0 0 114.00,152.00 M82.33,152.00 A12.67,12.67 0 0 0 107.67,152.00 M88.67,152.00 A6.33,6.33 0 0 0 101.33,152.00 M114.00,152.00 A19.00,19.00 0 0 0 152.00,152.00 M120.33,152.00 A12.67,12.67 0 0 0 145.67,152.00 M126.67,152.00 A6.33,6.33 0 0 0 139.33,152.00 M152.00,152.00 A19.00,19.00 0 0 0 190.00,152.00 M158.33,152.00 A12.67,12.67 0 0 0 183.67,152.00 M164.67,152.00 A6.33,6.33 0 0 0 177.33,152.00 M190.00,152.00 A19.00,19.00 0 0 0 228.00,152.00 M196.33,152.00 A12.67,12.67 0 0 0 221.67,152.00 M202.67,152.00 A6.33,6.33 0 0 0 215.33,152.00 M228.00,152.00 A19.00,19.00 0 0 0 266.00,152.00 M234.33,152.00 A12.67,12.67 0 0 0 259.67,152.00 M240.67,152.00 A6.33,6.33 0 0 0 253.33,152.00 M266.00,152.00 A19.00,19.00 0 0 0 304.00,152.00 M272.33,152.00 A12.67,12.67 0 0 0 297.67,152.00 M278.67,152.00 A6.33,6.33 0 0 0 291.33,152.00 M-19.00,171.00 A19.00,19.00 0 0 0 19.00,171.00 M-12.67,171.00 A12.67,12.67 0 0 0 12.67,171.00 M-6.33,171.00 A6.33,6.33 0 0 0 6.33,171.00 M19.00,171.00 A19.00,19.00 0 0 0 57.00,171.00 M25.33,171.00 A12.67,12.67 0 0 0 50.67,171.00 M31.67,171.00 A6.33,6.33 0 0 0 44.33,171.00 M57.00,171.00 A19.00,19.00 0 0 0 95.00,171.00 M63.33,171.00 A12.67,12.67 0 0 0 88.67,171.00 M69.67,171.00 A6.33,6.33 0 0 0 82.33,171.00 M95.00,171.00 A19.00,19.00 0 0 0 133.00,171.00 M101.33,171.00 A12.67,12.67 0 0 0 126.67,171.00 M107.67,171.00 A6.33,6.33 0 0 0 120.33,171.00 M133.00,171.00 A19.00,19.00 0 0 0 171.00,171.00 M139.33,171.00 A12.67,12.67 0 0 0 164.67,171.00 M145.67,171.00 A6.33,6.33 0 0 0 158.33,171.00 M171.00,171.00 A19.00,19.00 0 0 0 209.00,171.00 M177.33,171.00 A12.67,12.67 0 0 0 202.67,171.00 M183.67,171.00 A6.33,6.33 0 0 0 196.33,171.00 M209.00,171.00 A19.00,19.00 0 0 0 247.00,171.00 M215.33,171.00 A12.67,12.67 0 0 0 240.67,171.00 M221.67,171.00 A6.33,6.33 0 0 0 234.33,171.00 M247.00,171.00 A19.00,19.00 0 0 0 285.00,171.00 M253.33,171.00 A12.67,12.67 0 0 0 278.67,171.00 M259.67,171.00 A6.33,6.33 0 0 0 272.33,171.00 M285.00,171.00 A19.00,19.00 0 0 0 323.00,171.00 M291.33,171.00 A12.67,12.67 0 0 0 316.67,171.00 M297.67,171.00 A6.33,6.33 0 0 0 310.33,171.00"/></g></g></g><g clip-path="url(#wk-seg-1)"><g transform="translate(281.25,20)"><rect width="131.71" height="156" fill="#7a4a2a"/><g fill="none" stroke="#53321c" stroke-width="1.6" opacity="0.6"><path d="M-38.00,0.00 A19.00,19.00 0 0 0 0.00,0.00 M-31.67,0.00 A12.67,12.67 0 0 0 -6.33,0.00 M-25.33,0.00 A6.33,6.33 0 0 0 -12.67,0.00 M0.00,0.00 A19.00,19.00 0 0 0 38.00,0.00 M6.33,0.00 A12.67,12.67 0 0 0 31.67,0.00 M12.67,0.00 A6.33,6.33 0 0 0 25.33,0.00 M38.00,0.00 A19.00,19.00 0 0 0 76.00,0.00 M44.33,0.00 A12.67,12.67 0 0 0 69.67,0.00 M50.67,0.00 A6.33,6.33 0 0 0 63.33,0.00 M76.00,0.00 A19.00,19.00 0 0 0 114.00,0.00 M82.33,0.00 A12.67,12.67 0 0 0 107.67,0.00 M88.67,0.00 A6.33,6.33 0 0 0 101.33,0.00 M114.00,0.00 A19.00,19.00 0 0 0 152.00,0.00 M120.33,0.00 A12.67,12.67 0 0 0 145.67,0.00 M126.67,0.00 A6.33,6.33 0 0 0 139.33,0.00 M152.00,0.00 A19.00,19.00 0 0 0 190.00,0.00 M158.33,0.00 A12.67,12.67 0 0 0 183.67,0.00 M164.67,0.00 A6.33,6.33 0 0 0 177.33,0.00 M-19.00,19.00 A19.00,19.00 0 0 0 19.00,19.00 M-12.67,19.00 A12.67,12.67 0 0 0 12.67,19.00 M-6.33,19.00 A6.33,6.33 0 0 0 6.33,19.00 M19.00,19.00 A19.00,19.00 0 0 0 57.00,19.00 M25.33,19.00 A12.67,12.67 0 0 0 50.67,19.00 M31.67,19.00 A6.33,6.33 0 0 0 44.33,19.00 M57.00,19.00 A19.00,19.00 0 0 0 95.00,19.00 M63.33,19.00 A12.67,12.67 0 0 0 88.67,19.00 M69.67,19.00 A6.33,6.33 0 0 0 82.33,19.00 M95.00,19.00 A19.00,19.00 0 0 0 133.00,19.00 M101.33,19.00 A12.67,12.67 0 0 0 126.67,19.00 M107.67,19.00 A6.33,6.33 0 0 0 120.33,19.00 M133.00,19.00 A19.00,19.00 0 0 0 171.00,19.00 M139.33,19.00 A12.67,12.67 0 0 0 164.67,19.00 M145.67,19.00 A6.33,6.33 0 0 0 158.33,19.00 M171.00,19.00 A19.00,19.00 0 0 0 209.00,19.00 M177.33,19.00 A12.67,12.67 0 0 0 202.67,19.00 M183.67,19.00 A6.33,6.33 0 0 0 196.33,19.00 M-38.00,38.00 A19.00,19.00 0 0 0 0.00,38.00 M-31.67,38.00 A12.67,12.67 0 0 0 -6.33,38.00 M-25.33,38.00 A6.33,6.33 0 0 0 -12.67,38.00 M0.00,38.00 A19.00,19.00 0 0 0 38.00,38.00 M6.33,38.00 A12.67,12.67 0 0 0 31.67,38.00 M12.67,38.00 A6.33,6.33 0 0 0 25.33,38.00 M38.00,38.00 A19.00,19.00 0 0 0 76.00,38.00 M44.33,38.00 A12.67,12.67 0 0 0 69.67,38.00 M50.67,38.00 A6.33,6.33 0 0 0 63.33,38.00 M76.00,38.00 A19.00,19.00 0 0 0 114.00,38.00 M82.33,38.00 A12.67,12.67 0 0 0 107.67,38.00 M88.67,38.00 A6.33,6.33 0 0 0 101.33,38.00 M114.00,38.00 A19.00,19.00 0 0 0 152.00,38.00 M120.33,38.00 A12.67,12.67 0 0 0 145.67,38.00 M126.67,38.00 A6.33,6.33 0 0 0 139.33,38.00 M152.00,38.00 A19.00,19.00 0 0 0 190.00,38.00 M158.33,38.00 A12.67,12.67 0 0 0 183.67,38.00 M164.67,38.00 A6.33,6.33 0 0 0 177.33,38.00 M-19.00,57.00 A19.00,19.00 0 0 0 19.00,57.00 M-12.67,57.00 A12.67,12.67 0 0 0 12.67,57.00 M-6.33,57.00 A6.33,6.33 0 0 0 6.33,57.00 M19.00,57.00 A19.00,19.00 0 0 0 57.00,57.00 M25.33,57.00 A12.67,12.67 0 0 0 50.67,57.00 M31.67,57.00 A6.33,6.33 0 0 0 44.33,57.00 M57.00,57.00 A19.00,19.00 0 0 0 95.00,57.00 M63.33,57.00 A12.67,12.67 0 0 0 88.67,57.00 M69.67,57.00 A6.33,6.33 0 0 0 82.33,57.00 M95.00,57.00 A19.00,19.00 0 0 0 133.00,57.00 M101.33,57.00 A12.67,12.67 0 0 0 126.67,57.00 M107.67,57.00 A6.33,6.33 0 0 0 120.33,57.00 M133.00,57.00 A19.00,19.00 0 0 0 171.00,57.00 M139.33,57.00 A12.67,12.67 0 0 0 164.67,57.00 M145.67,57.00 A6.33,6.33 0 0 0 158.33,57.00 M171.00,57.00 A19.00,19.00 0 0 0 209.00,57.00 M177.33,57.00 A12.67,12.67 0 0 0 202.67,57.00 M183.67,57.00 A6.33,6.33 0 0 0 196.33,57.00 M-38.00,76.00 A19.00,19.00 0 0 0 0.00,76.00 M-31.67,76.00 A12.67,12.67 0 0 0 -6.33,76.00 M-25.33,76.00 A6.33,6.33 0 0 0 -12.67,76.00 M0.00,76.00 A19.00,19.00 0 0 0 38.00,76.00 M6.33,76.00 A12.67,12.67 0 0 0 31.67,76.00 M12.67,76.00 A6.33,6.33 0 0 0 25.33,76.00 M38.00,76.00 A19.00,19.00 0 0 0 76.00,76.00 M44.33,76.00 A12.67,12.67 0 0 0 69.67,76.00 M50.67,76.00 A6.33,6.33 0 0 0 63.33,76.00 M76.00,76.00 A19.00,19.00 0 0 0 114.00,76.00 M82.33,76.00 A12.67,12.67 0 0 0 107.67,76.00 M88.67,76.00 A6.33,6.33 0 0 0 101.33,76.00 M114.00,76.00 A19.00,19.00 0 0 0 152.00,76.00 M120.33,76.00 A12.67,12.67 0 0 0 145.67,76.00 M126.67,76.00 A6.33,6.33 0 0 0 139.33,76.00 M152.00,76.00 A19.00,19.00 0 0 0 190.00,76.00 M158.33,76.00 A12.67,12.67 0 0 0 183.67,76.00 M164.67,76.00 A6.33,6.33 0 0 0 177.33,76.00 M-19.00,95.00 A19.00,19.00 0 0 0 19.00,95.00 M-12.67,95.00 A12.67,12.67 0 0 0 12.67,95.00 M-6.33,95.00 A6.33,6.33 0 0 0 6.33,95.00 M19.00,95.00 A19.00,19.00 0 0 0 57.00,95.00 M25.33,95.00 A12.67,12.67 0 0 0 50.67,95.00 M31.67,95.00 A6.33,6.33 0 0 0 44.33,95.00 M57.00,95.00 A19.00,19.00 0 0 0 95.00,95.00 M63.33,95.00 A12.67,12.67 0 0 0 88.67,95.00 M69.67,95.00 A6.33,6.33 0 0 0 82.33,95.00 M95.00,95.00 A19.00,19.00 0 0 0 133.00,95.00 M101.33,95.00 A12.67,12.67 0 0 0 126.67,95.00 M107.67,95.00 A6.33,6.33 0 0 0 120.33,95.00 M133.00,95.00 A19.00,19.00 0 0 0 171.00,95.00 M139.33,95.00 A12.67,12.67 0 0 0 164.67,95.00 M145.67,95.00 A6.33,6.33 0 0 0 158.33,95.00 M171.00,95.00 A19.00,19.00 0 0 0 209.00,95.00 M177.33,95.00 A12.67,12.67 0 0 0 202.67,95.00 M183.67,95.00 A6.33,6.33 0 0 0 196.33,95.00 M-38.00,114.00 A19.00,19.00 0 0 0 0.00,114.00 M-31.67,114.00 A12.67,12.67 0 0 0 -6.33,114.00 M-25.33,114.00 A6.33,6.33 0 0 0 -12.67,114.00 M0.00,114.00 A19.00,19.00 0 0 0 38.00,114.00 M6.33,114.00 A12.67,12.67 0 0 0 31.67,114.00 M12.67,114.00 A6.33,6.33 0 0 0 25.33,114.00 M38.00,114.00 A19.00,19.00 0 0 0 76.00,114.00 M44.33,114.00 A12.67,12.67 0 0 0 69.67,114.00 M50.67,114.00 A6.33,6.33 0 0 0 63.33,114.00 M76.00,114.00 A19.00,19.00 0 0 0 114.00,114.00 M82.33,114.00 A12.67,12.67 0 0 0 107.67,114.00 M88.67,114.00 A6.33,6.33 0 0 0 101.33,114.00 M114.00,114.00 A19.00,19.00 0 0 0 152.00,114.00 M120.33,114.00 A12.67,12.67 0 0 0 145.67,114.00 M126.67,114.00 A6.33,6.33 0 0 0 139.33,114.00 M152.00,114.00 A19.00,19.00 0 0 0 190.00,114.00 M158.33,114.00 A12.67,12.67 0 0 0 183.67,114.00 M164.67,114.00 A6.33,6.33 0 0 0 177.33,114.00 M-19.00,133.00 A19.00,19.00 0 0 0 19.00,133.00 M-12.67,133.00 A12.67,12.67 0 0 0 12.67,133.00 M-6.33,133.00 A6.33,6.33 0 0 0 6.33,133.00 M19.00,133.00 A19.00,19.00 0 0 0 57.00,133.00 M25.33,133.00 A12.67,12.67 0 0 0 50.67,133.00 M31.67,133.00 A6.33,6.33 0 0 0 44.33,133.00 M57.00,133.00 A19.00,19.00 0 0 0 95.00,133.00 M63.33,133.00 A12.67,12.67 0 0 0 88.67,133.00 M69.67,133.00 A6.33,6.33 0 0 0 82.33,133.00 M95.00,133.00 A19.00,19.00 0 0 0 133.00,133.00 M101.33,133.00 A12.67,12.67 0 0 0 126.67,133.00 M107.67,133.00 A6.33,6.33 0 0 0 120.33,133.00 M133.00,133.00 A19.00,19.00 0 0 0 171.00,133.00 M139.33,133.00 A12.67,12.67 0 0 0 164.67,133.00 M145.67,133.00 A6.33,6.33 0 0 0 158.33,133.00 M171.00,133.00 A19.00,19.00 0 0 0 209.00,133.00 M177.33,133.00 A12.67,12.67 0 0 0 202.67,133.00 M183.67,133.00 A6.33,6.33 0 0 0 196.33,133.00 M-38.00,152.00 A19.00,19.00 0 0 0 0.00,152.00 M-31.67,152.00 A12.67,12.67 0 0 0 -6.33,152.00 M-25.33,152.00 A6.33,6.33 0 0 0 -12.67,152.00 M0.00,152.00 A19.00,19.00 0 0 0 38.00,152.00 M6.33,152.00 A12.67,12.67 0 0 0 31.67,152.00 M12.67,152.00 A6.33,6.33 0 0 0 25.33,152.00 M38.00,152.00 A19.00,19.00 0 0 0 76.00,152.00 M44.33,152.00 A12.67,12.67 0 0 0 69.67,152.00 M50.67,152.00 A6.33,6.33 0 0 0 63.33,152.00 M76.00,152.00 A19.00,19.00 0 0 0 114.00,152.00 M82.33,152.00 A12.67,12.67 0 0 0 107.67,152.00 M88.67,152.00 A6.33,6.33 0 0 0 101.33,152.00 M114.00,152.00 A19.00,19.00 0 0 0 152.00,152.00 M120.33,152.00 A12.67,12.67 0 0 0 145.67,152.00 M126.67,152.00 A6.33,6.33 0 0 0 139.33,152.00 M152.00,152.00 A19.00,19.00 0 0 0 190.00,152.00 M158.33,152.00 A12.67,12.67 0 0 0 183.67,152.00 M164.67,152.00 A6.33,6.33 0 0 0 177.33,152.00 M-19.00,171.00 A19.00,19.00 0 0 0 19.00,171.00 M-12.67,171.00 A12.67,12.67 0 0 0 12.67,171.00 M-6.33,171.00 A6.33,6.33 0 0 0 6.33,171.00 M19.00,171.00 A19.00,19.00 0 0 0 57.00,171.00 M25.33,171.00 A12.67,12.67 0 0 0 50.67,171.00 M31.67,171.00 A6.33,6.33 0 0 0 44.33,171.00 M57.00,171.00 A19.00,19.00 0 0 0 95.00,171.00 M63.33,171.00 A12.67,12.67 0 0 0 88.67,171.00 M69.67,171.00 A6.33,6.33 0 0 0 82.33,171.00 M95.00,171.00 A19.00,19.00 0 0 0 133.00,171.00 M101.33,171.00 A12.67,12.67 0 0 0 126.67,171.00 M107.67,171.00 A6.33,6.33 0 0 0 120.33,171.00 M133.00,171.00 A19.00,19.00 0 0 0 171.00,171.00 M139.33,171.00 A12.67,12.67 0 0 0 164.67,171.00 M145.67,171.00 A6.33,6.33 0 0 0 158.33,171.00 M171.00,171.00 A19.00,19.00 0 0 0 209.00,171.00 M177.33,171.00 A12.67,12.67 0 0 0 202.67,171.00 M183.67,171.00 A6.33,6.33 0 0 0 196.33,171.00"/></g></g></g><g clip-path="url(#wk-seg-2)"><g transform="translate(415.96,20)"><rect width="66.40" height="156" fill="#d89868"/><g fill="none" stroke="#8a5f40" stroke-width="1.6" opacity="0.6"><path d="M-38.00,0.00 A19.00,19.00 0 0 0 0.00,0.00 M-31.67,0.00 A12.67,12.67 0 0 0 -6.33,0.00 M-25.33,0.00 A6.33,6.33 0 0 0 -12.67,0.00 M0.00,0.00 A19.00,19.00 0 0 0 38.00,0.00 M6.33,0.00 A12.67,12.67 0 0 0 31.67,0.00 M12.67,0.00 A6.33,6.33 0 0 0 25.33,0.00 M38.00,0.00 A19.00,19.00 0 0 0 76.00,0.00 M44.33,0.00 A12.67,12.67 0 0 0 69.67,0.00 M50.67,0.00 A6.33,6.33 0 0 0 63.33,0.00 M76.00,0.00 A19.00,19.00 0 0 0 114.00,0.00 M82.33,0.00 A12.67,12.67 0 0 0 107.67,0.00 M88.67,0.00 A6.33,6.33 0 0 0 101.33,0.00 M-19.00,19.00 A19.00,19.00 0 0 0 19.00,19.00 M-12.67,19.00 A12.67,12.67 0 0 0 12.67,19.00 M-6.33,19.00 A6.33,6.33 0 0 0 6.33,19.00 M19.00,19.00 A19.00,19.00 0 0 0 57.00,19.00 M25.33,19.00 A12.67,12.67 0 0 0 50.67,19.00 M31.67,19.00 A6.33,6.33 0 0 0 44.33,19.00 M57.00,19.00 A19.00,19.00 0 0 0 95.00,19.00 M63.33,19.00 A12.67,12.67 0 0 0 88.67,19.00 M69.67,19.00 A6.33,6.33 0 0 0 82.33,19.00 M95.00,19.00 A19.00,19.00 0 0 0 133.00,19.00 M101.33,19.00 A12.67,12.67 0 0 0 126.67,19.00 M107.67,19.00 A6.33,6.33 0 0 0 120.33,19.00 M-38.00,38.00 A19.00,19.00 0 0 0 0.00,38.00 M-31.67,38.00 A12.67,12.67 0 0 0 -6.33,38.00 M-25.33,38.00 A6.33,6.33 0 0 0 -12.67,38.00 M0.00,38.00 A19.00,19.00 0 0 0 38.00,38.00 M6.33,38.00 A12.67,12.67 0 0 0 31.67,38.00 M12.67,38.00 A6.33,6.33 0 0 0 25.33,38.00 M38.00,38.00 A19.00,19.00 0 0 0 76.00,38.00 M44.33,38.00 A12.67,12.67 0 0 0 69.67,38.00 M50.67,38.00 A6.33,6.33 0 0 0 63.33,38.00 M76.00,38.00 A19.00,19.00 0 0 0 114.00,38.00 M82.33,38.00 A12.67,12.67 0 0 0 107.67,38.00 M88.67,38.00 A6.33,6.33 0 0 0 101.33,38.00 M-19.00,57.00 A19.00,19.00 0 0 0 19.00,57.00 M-12.67,57.00 A12.67,12.67 0 0 0 12.67,57.00 M-6.33,57.00 A6.33,6.33 0 0 0 6.33,57.00 M19.00,57.00 A19.00,19.00 0 0 0 57.00,57.00 M25.33,57.00 A12.67,12.67 0 0 0 50.67,57.00 M31.67,57.00 A6.33,6.33 0 0 0 44.33,57.00 M57.00,57.00 A19.00,19.00 0 0 0 95.00,57.00 M63.33,57.00 A12.67,12.67 0 0 0 88.67,57.00 M69.67,57.00 A6.33,6.33 0 0 0 82.33,57.00 M95.00,57.00 A19.00,19.00 0 0 0 133.00,57.00 M101.33,57.00 A12.67,12.67 0 0 0 126.67,57.00 M107.67,57.00 A6.33,6.33 0 0 0 120.33,57.00 M-38.00,76.00 A19.00,19.00 0 0 0 0.00,76.00 M-31.67,76.00 A12.67,12.67 0 0 0 -6.33,76.00 M-25.33,76.00 A6.33,6.33 0 0 0 -12.67,76.00 M0.00,76.00 A19.00,19.00 0 0 0 38.00,76.00 M6.33,76.00 A12.67,12.67 0 0 0 31.67,76.00 M12.67,76.00 A6.33,6.33 0 0 0 25.33,76.00 M38.00,76.00 A19.00,19.00 0 0 0 76.00,76.00 M44.33,76.00 A12.67,12.67 0 0 0 69.67,76.00 M50.67,76.00 A6.33,6.33 0 0 0 63.33,76.00 M76.00,76.00 A19.00,19.00 0 0 0 114.00,76.00 M82.33,76.00 A12.67,12.67 0 0 0 107.67,76.00 M88.67,76.00 A6.33,6.33 0 0 0 101.33,76.00 M-19.00,95.00 A19.00,19.00 0 0 0 19.00,95.00 M-12.67,95.00 A12.67,12.67 0 0 0 12.67,95.00 M-6.33,95.00 A6.33,6.33 0 0 0 6.33,95.00 M19.00,95.00 A19.00,19.00 0 0 0 57.00,95.00 M25.33,95.00 A12.67,12.67 0 0 0 50.67,95.00 M31.67,95.00 A6.33,6.33 0 0 0 44.33,95.00 M57.00,95.00 A19.00,19.00 0 0 0 95.00,95.00 M63.33,95.00 A12.67,12.67 0 0 0 88.67,95.00 M69.67,95.00 A6.33,6.33 0 0 0 82.33,95.00 M95.00,95.00 A19.00,19.00 0 0 0 133.00,95.00 M101.33,95.00 A12.67,12.67 0 0 0 126.67,95.00 M107.67,95.00 A6.33,6.33 0 0 0 120.33,95.00 M-38.00,114.00 A19.00,19.00 0 0 0 0.00,114.00 M-31.67,114.00 A12.67,12.67 0 0 0 -6.33,114.00 M-25.33,114.00 A6.33,6.33 0 0 0 -12.67,114.00 M0.00,114.00 A19.00,19.00 0 0 0 38.00,114.00 M6.33,114.00 A12.67,12.67 0 0 0 31.67,114.00 M12.67,114.00 A6.33,6.33 0 0 0 25.33,114.00 M38.00,114.00 A19.00,19.00 0 0 0 76.00,114.00 M44.33,114.00 A12.67,12.67 0 0 0 69.67,114.00 M50.67,114.00 A6.33,6.33 0 0 0 63.33,114.00 M76.00,114.00 A19.00,19.00 0 0 0 114.00,114.00 M82.33,114.00 A12.67,12.67 0 0 0 107.67,114.00 M88.67,114.00 A6.33,6.33 0 0 0 101.33,114.00 M-19.00,133.00 A19.00,19.00 0 0 0 19.00,133.00 M-12.67,133.00 A12.67,12.67 0 0 0 12.67,133.00 M-6.33,133.00 A6.33,6.33 0 0 0 6.33,133.00 M19.00,133.00 A19.00,19.00 0 0 0 57.00,133.00 M25.33,133.00 A12.67,12.67 0 0 0 50.67,133.00 M31.67,133.00 A6.33,6.33 0 0 0 44.33,133.00 M57.00,133.00 A19.00,19.00 0 0 0 95.00,133.00 M63.33,133.00 A12.67,12.67 0 0 0 88.67,133.00 M69.67,133.00 A6.33,6.33 0 0 0 82.33,133.00 M95.00,133.00 A19.00,19.00 0 0 0 133.00,133.00 M101.33,133.00 A12.67,12.67 0 0 0 126.67,133.00 M107.67,133.00 A6.33,6.33 0 0 0 120.33,133.00 M-38.00,152.00 A19.00,19.00 0 0 0 0.00,152.00 M-31.67,152.00 A12.67,12.67 0 0 0 -6.33,152.00 M-25.33,152.00 A6.33,6.33 0 0 0 -12.67,152.00 M0.00,152.00 A19.00,19.00 0 0 0 38.00,152.00 M6.33,152.00 A12.67,12.67 0 0 0 31.67,152.00 M12.67,152.00 A6.33,6.33 0 0 0 25.33,152.00 M38.00,152.00 A19.00,19.00 0 0 0 76.00,152.00 M44.33,152.00 A12.67,12.67 0 0 0 69.67,152.00 M50.67,152.00 A6.33,6.33 0 0 0 63.33,152.00 M76.00,152.00 A19.00,19.00 0 0 0 114.00,152.00 M82.33,152.00 A12.67,12.67 0 0 0 107.67,152.00 M88.67,152.00 A6.33,6.33 0 0 0 101.33,152.00 M-19.00,171.00 A19.00,19.00 0 0 0 19.00,171.00 M-12.67,171.00 A12.67,12.67 0 0 0 12.67,171.00 M-6.33,171.00 A6.33,6.33 0 0 0 6.33,171.00 M19.00,171.00 A19.00,19.00 0 0 0 57.00,171.00 M25.33,171.00 A12.67,12.67 0 0 0 50.67,171.00 M31.67,171.00 A6.33,6.33 0 0 0 44.33,171.00 M57.00,171.00 A19.00,19.00 0 0 0 95.00,171.00 M63.33,171.00 A12.67,12.67 0 0 0 88.67,171.00 M69.67,171.00 A6.33,6.33 0 0 0 82.33,171.00 M95.00,171.00 A19.00,19.00 0 0 0 133.00,171.00 M101.33,171.00 A12.67,12.67 0 0 0 126.67,171.00 M107.67,171.00 A6.33,6.33 0 0 0 120.33,171.00"/></g></g></g><g clip-path="url(#wk-seg-3)"><g transform="translate(485.36,20)"><rect width="41.90" height="156" fill="#9a5a3a"/><g fill="none" stroke="#663b25" stroke-width="1.6" opacity="0.6"><path d="M-38.00,0.00 A19.00,19.00 0 0 0 0.00,0.00 M-31.67,0.00 A12.67,12.67 0 0 0 -6.33,0.00 M-25.33,0.00 A6.33,6.33 0 0 0 -12.67,0.00 M0.00,0.00 A19.00,19.00 0 0 0 38.00,0.00 M6.33,0.00 A12.67,12.67 0 0 0 31.67,0.00 M12.67,0.00 A6.33,6.33 0 0 0 25.33,0.00 M38.00,0.00 A19.00,19.00 0 0 0 76.00,0.00 M44.33,0.00 A12.67,12.67 0 0 0 69.67,0.00 M50.67,0.00 A6.33,6.33 0 0 0 63.33,0.00 M76.00,0.00 A19.00,19.00 0 0 0 114.00,0.00 M82.33,0.00 A12.67,12.67 0 0 0 107.67,0.00 M88.67,0.00 A6.33,6.33 0 0 0 101.33,0.00 M-19.00,19.00 A19.00,19.00 0 0 0 19.00,19.00 M-12.67,19.00 A12.67,12.67 0 0 0 12.67,19.00 M-6.33,19.00 A6.33,6.33 0 0 0 6.33,19.00 M19.00,19.00 A19.00,19.00 0 0 0 57.00,19.00 M25.33,19.00 A12.67,12.67 0 0 0 50.67,19.00 M31.67,19.00 A6.33,6.33 0 0 0 44.33,19.00 M57.00,19.00 A19.00,19.00 0 0 0 95.00,19.00 M63.33,19.00 A12.67,12.67 0 0 0 88.67,19.00 M69.67,19.00 A6.33,6.33 0 0 0 82.33,19.00 M-38.00,38.00 A19.00,19.00 0 0 0 0.00,38.00 M-31.67,38.00 A12.67,12.67 0 0 0 -6.33,38.00 M-25.33,38.00 A6.33,6.33 0 0 0 -12.67,38.00 M0.00,38.00 A19.00,19.00 0 0 0 38.00,38.00 M6.33,38.00 A12.67,12.67 0 0 0 31.67,38.00 M12.67,38.00 A6.33,6.33 0 0 0 25.33,38.00 M38.00,38.00 A19.00,19.00 0 0 0 76.00,38.00 M44.33,38.00 A12.67,12.67 0 0 0 69.67,38.00 M50.67,38.00 A6.33,6.33 0 0 0 63.33,38.00 M76.00,38.00 A19.00,19.00 0 0 0 114.00,38.00 M82.33,38.00 A12.67,12.67 0 0 0 107.67,38.00 M88.67,38.00 A6.33,6.33 0 0 0 101.33,38.00 M-19.00,57.00 A19.00,19.00 0 0 0 19.00,57.00 M-12.67,57.00 A12.67,12.67 0 0 0 12.67,57.00 M-6.33,57.00 A6.33,6.33 0 0 0 6.33,57.00 M19.00,57.00 A19.00,19.00 0 0 0 57.00,57.00 M25.33,57.00 A12.67,12.67 0 0 0 50.67,57.00 M31.67,57.00 A6.33,6.33 0 0 0 44.33,57.00 M57.00,57.00 A19.00,19.00 0 0 0 95.00,57.00 M63.33,57.00 A12.67,12.67 0 0 0 88.67,57.00 M69.67,57.00 A6.33,6.33 0 0 0 82.33,57.00 M-38.00,76.00 A19.00,19.00 0 0 0 0.00,76.00 M-31.67,76.00 A12.67,12.67 0 0 0 -6.33,76.00 M-25.33,76.00 A6.33,6.33 0 0 0 -12.67,76.00 M0.00,76.00 A19.00,19.00 0 0 0 38.00,76.00 M6.33,76.00 A12.67,12.67 0 0 0 31.67,76.00 M12.67,76.00 A6.33,6.33 0 0 0 25.33,76.00 M38.00,76.00 A19.00,19.00 0 0 0 76.00,76.00 M44.33,76.00 A12.67,12.67 0 0 0 69.67,76.00 M50.67,76.00 A6.33,6.33 0 0 0 63.33,76.00 M76.00,76.00 A19.00,19.00 0 0 0 114.00,76.00 M82.33,76.00 A12.67,12.67 0 0 0 107.67,76.00 M88.67,76.00 A6.33,6.33 0 0 0 101.33,76.00 M-19.00,95.00 A19.00,19.00 0 0 0 19.00,95.00 M-12.67,95.00 A12.67,12.67 0 0 0 12.67,95.00 M-6.33,95.00 A6.33,6.33 0 0 0 6.33,95.00 M19.00,95.00 A19.00,19.00 0 0 0 57.00,95.00 M25.33,95.00 A12.67,12.67 0 0 0 50.67,95.00 M31.67,95.00 A6.33,6.33 0 0 0 44.33,95.00 M57.00,95.00 A19.00,19.00 0 0 0 95.00,95.00 M63.33,95.00 A12.67,12.67 0 0 0 88.67,95.00 M69.67,95.00 A6.33,6.33 0 0 0 82.33,95.00 M-38.00,114.00 A19.00,19.00 0 0 0 0.00,114.00 M-31.67,114.00 A12.67,12.67 0 0 0 -6.33,114.00 M-25.33,114.00 A6.33,6.33 0 0 0 -12.67,114.00 M0.00,114.00 A19.00,19.00 0 0 0 38.00,114.00 M6.33,114.00 A12.67,12.67 0 0 0 31.67,114.00 M12.67,114.00 A6.33,6.33 0 0 0 25.33,114.00 M38.00,114.00 A19.00,19.00 0 0 0 76.00,114.00 M44.33,114.00 A12.67,12.67 0 0 0 69.67,114.00 M50.67,114.00 A6.33,6.33 0 0 0 63.33,114.00 M76.00,114.00 A19.00,19.00 0 0 0 114.00,114.00 M82.33,114.00 A12.67,12.67 0 0 0 107.67,114.00 M88.67,114.00 A6.33,6.33 0 0 0 101.33,114.00 M-19.00,133.00 A19.00,19.00 0 0 0 19.00,133.00 M-12.67,133.00 A12.67,12.67 0 0 0 12.67,133.00 M-6.33,133.00 A6.33,6.33 0 0 0 6.33,133.00 M19.00,133.00 A19.00,19.00 0 0 0 57.00,133.00 M25.33,133.00 A12.67,12.67 0 0 0 50.67,133.00 M31.67,133.00 A6.33,6.33 0 0 0 44.33,133.00 M57.00,133.00 A19.00,19.00 0 0 0 95.00,133.00 M63.33,133.00 A12.67,12.67 0 0 0 88.67,133.00 M69.67,133.00 A6.33,6.33 0 0 0 82.33,133.00 M-38.00,152.00 A19.00,19.00 0 0 0 0.00,152.00 M-31.67,152.00 A12.67,12.67 0 0 0 -6.33,152.00 M-25.33,152.00 A6.33,6.33 0 0 0 -12.67,152.00 M0.00,152.00 A19.00,19.00 0 0 0 38.00,152.00 M6.33,152.00 A12.67,12.67 0 0 0 31.67,152.00 M12.67,152.00 A6.33,6.33 0 0 0 25.33,152.00 M38.00,152.00 A19.00,19.00 0 0 0 76.00,152.00 M44.33,152.00 A12.67,12.67 0 0 0 69.67,152.00 M50.67,152.00 A6.33,6.33 0 0 0 63.33,152.00 M76.00,152.00 A19.00,19.00 0 0 0 114.00,152.00 M82.33,152.00 A12.67,12.67 0 0 0 107.67,152.00 M88.67,152.00 A6.33,6.33 0 0 0 101.33,152.00 M-19.00,171.00 A19.00,19.00 0 0 0 19.00,171.00 M-12.67,171.00 A12.67,12.67 0 0 0 12.67,171.00 M-6.33,171.00 A6.33,6.33 0 0 0 6.33,171.00 M19.00,171.00 A19.00,19.00 0 0 0 57.00,171.00 M25.33,171.00 A12.67,12.67 0 0 0 50.67,171.00 M31.67,171.00 A6.33,6.33 0 0 0 44.33,171.00 M57.00,171.00 A19.00,19.00 0 0 0 95.00,171.00 M63.33,171.00 A12.67,12.67 0 0 0 88.67,171.00 M69.67,171.00 A6.33,6.33 0 0 0 82.33,171.00"/></g></g></g><g clip-path="url(#wk-seg-4)"><g transform="translate(530.26,20)"><rect width="21.49" height="156" fill="#c4a488"/><g fill="none" stroke="#7e6652" stroke-width="1.6" opacity="0.6"><path d="M-38.00,0.00 A19.00,19.00 0 0 0 0.00,0.00 M-31.67,0.00 A12.67,12.67 0 0 0 -6.33,0.00 M-25.33,0.00 A6.33,6.33 0 0 0 -12.67,0.00 M0.00,0.00 A19.00,19.00 0 0 0 38.00,0.00 M6.33,0.00 A12.67,12.67 0 0 0 31.67,0.00 M12.67,0.00 A6.33,6.33 0 0 0 25.33,0.00 M38.00,0.00 A19.00,19.00 0 0 0 76.00,0.00 M44.33,0.00 A12.67,12.67 0 0 0 69.67,0.00 M50.67,0.00 A6.33,6.33 0 0 0 63.33,0.00 M-19.00,19.00 A19.00,19.00 0 0 0 19.00,19.00 M-12.67,19.00 A12.67,12.67 0 0 0 12.67,19.00 M-6.33,19.00 A6.33,6.33 0 0 0 6.33,19.00 M19.00,19.00 A19.00,19.00 0 0 0 57.00,19.00 M25.33,19.00 A12.67,12.67 0 0 0 50.67,19.00 M31.67,19.00 A6.33,6.33 0 0 0 44.33,19.00 M57.00,19.00 A19.00,19.00 0 0 0 95.00,19.00 M63.33,19.00 A12.67,12.67 0 0 0 88.67,19.00 M69.67,19.00 A6.33,6.33 0 0 0 82.33,19.00 M-38.00,38.00 A19.00,19.00 0 0 0 0.00,38.00 M-31.67,38.00 A12.67,12.67 0 0 0 -6.33,38.00 M-25.33,38.00 A6.33,6.33 0 0 0 -12.67,38.00 M0.00,38.00 A19.00,19.00 0 0 0 38.00,38.00 M6.33,38.00 A12.67,12.67 0 0 0 31.67,38.00 M12.67,38.00 A6.33,6.33 0 0 0 25.33,38.00 M38.00,38.00 A19.00,19.00 0 0 0 76.00,38.00 M44.33,38.00 A12.67,12.67 0 0 0 69.67,38.00 M50.67,38.00 A6.33,6.33 0 0 0 63.33,38.00 M-19.00,57.00 A19.00,19.00 0 0 0 19.00,57.00 M-12.67,57.00 A12.67,12.67 0 0 0 12.67,57.00 M-6.33,57.00 A6.33,6.33 0 0 0 6.33,57.00 M19.00,57.00 A19.00,19.00 0 0 0 57.00,57.00 M25.33,57.00 A12.67,12.67 0 0 0 50.67,57.00 M31.67,57.00 A6.33,6.33 0 0 0 44.33,57.00 M57.00,57.00 A19.00,19.00 0 0 0 95.00,57.00 M63.33,57.00 A12.67,12.67 0 0 0 88.67,57.00 M69.67,57.00 A6.33,6.33 0 0 0 82.33,57.00 M-38.00,76.00 A19.00,19.00 0 0 0 0.00,76.00 M-31.67,76.00 A12.67,12.67 0 0 0 -6.33,76.00 M-25.33,76.00 A6.33,6.33 0 0 0 -12.67,76.00 M0.00,76.00 A19.00,19.00 0 0 0 38.00,76.00 M6.33,76.00 A12.67,12.67 0 0 0 31.67,76.00 M12.67,76.00 A6.33,6.33 0 0 0 25.33,76.00 M38.00,76.00 A19.00,19.00 0 0 0 76.00,76.00 M44.33,76.00 A12.67,12.67 0 0 0 69.67,76.00 M50.67,76.00 A6.33,6.33 0 0 0 63.33,76.00 M-19.00,95.00 A19.00,19.00 0 0 0 19.00,95.00 M-12.67,95.00 A12.67,12.67 0 0 0 12.67,95.00 M-6.33,95.00 A6.33,6.33 0 0 0 6.33,95.00 M19.00,95.00 A19.00,19.00 0 0 0 57.00,95.00 M25.33,95.00 A12.67,12.67 0 0 0 50.67,95.00 M31.67,95.00 A6.33,6.33 0 0 0 44.33,95.00 M57.00,95.00 A19.00,19.00 0 0 0 95.00,95.00 M63.33,95.00 A12.67,12.67 0 0 0 88.67,95.00 M69.67,95.00 A6.33,6.33 0 0 0 82.33,95.00 M-38.00,114.00 A19.00,19.00 0 0 0 0.00,114.00 M-31.67,114.00 A12.67,12.67 0 0 0 -6.33,114.00 M-25.33,114.00 A6.33,6.33 0 0 0 -12.67,114.00 M0.00,114.00 A19.00,19.00 0 0 0 38.00,114.00 M6.33,114.00 A12.67,12.67 0 0 0 31.67,114.00 M12.67,114.00 A6.33,6.33 0 0 0 25.33,114.00 M38.00,114.00 A19.00,19.00 0 0 0 76.00,114.00 M44.33,114.00 A12.67,12.67 0 0 0 69.67,114.00 M50.67,114.00 A6.33,6.33 0 0 0 63.33,114.00 M-19.00,133.00 A19.00,19.00 0 0 0 19.00,133.00 M-12.67,133.00 A12.67,12.67 0 0 0 12.67,133.00 M-6.33,133.00 A6.33,6.33 0 0 0 6.33,133.00 M19.00,133.00 A19.00,19.00 0 0 0 57.00,133.00 M25.33,133.00 A12.67,12.67 0 0 0 50.67,133.00 M31.67,133.00 A6.33,6.33 0 0 0 44.33,133.00 M57.00,133.00 A19.00,19.00 0 0 0 95.00,133.00 M63.33,133.00 A12.67,12.67 0 0 0 88.67,133.00 M69.67,133.00 A6.33,6.33 0 0 0 82.33,133.00 M-38.00,152.00 A19.00,19.00 0 0 0 0.00,152.00 M-31.67,152.00 A12.67,12.67 0 0 0 -6.33,152.00 M-25.33,152.00 A6.33,6.33 0 0 0 -12.67,152.00 M0.00,152.00 A19.00,19.00 0 0 0 38.00,152.00 M6.33,152.00 A12.67,12.67 0 0 0 31.67,152.00 M12.67,152.00 A6.33,6.33 0 0 0 25.33,152.00 M38.00,152.00 A19.00,19.00 0 0 0 76.00,152.00 M44.33,152.00 A12.67,12.67 0 0 0 69.67,152.00 M50.67,152.00 A6.33,6.33 0 0 0 63.33,152.00 M-19.00,171.00 A19.00,19.00 0 0 0 19.00,171.00 M-12.67,171.00 A12.67,12.67 0 0 0 12.67,171.00 M-6.33,171.00 A6.33,6.33 0 0 0 6.33,171.00 M19.00,171.00 A19.00,19.00 0 0 0 57.00,171.00 M25.33,171.00 A12.67,12.67 0 0 0 50.67,171.00 M31.67,171.00 A6.33,6.33 0 0 0 44.33,171.00 M57.00,171.00 A19.00,19.00 0 0 0 95.00,171.00 M63.33,171.00 A12.67,12.67 0 0 0 88.67,171.00 M69.67,171.00 A6.33,6.33 0 0 0 82.33,171.00"/></g></g></g><g clip-path="url(#wk-seg-5)"><g transform="translate(554.75,20)"><rect width="9.25" height="156" fill="#e0a878"/><g fill="none" stroke="#8f6949" stroke-width="1.6" opacity="0.6"><path d="M-38.00,0.00 A19.00,19.00 0 0 0 0.00,0.00 M-31.67,0.00 A12.67,12.67 0 0 0 -6.33,0.00 M-25.33,0.00 A6.33,6.33 0 0 0 -12.67,0.00 M0.00,0.00 A19.00,19.00 0 0 0 38.00,0.00 M6.33,0.00 A12.67,12.67 0 0 0 31.67,0.00 M12.67,0.00 A6.33,6.33 0 0 0 25.33,0.00 M38.00,0.00 A19.00,19.00 0 0 0 76.00,0.00 M44.33,0.00 A12.67,12.67 0 0 0 69.67,0.00 M50.67,0.00 A6.33,6.33 0 0 0 63.33,0.00 M-19.00,19.00 A19.00,19.00 0 0 0 19.00,19.00 M-12.67,19.00 A12.67,12.67 0 0 0 12.67,19.00 M-6.33,19.00 A6.33,6.33 0 0 0 6.33,19.00 M19.00,19.00 A19.00,19.00 0 0 0 57.00,19.00 M25.33,19.00 A12.67,12.67 0 0 0 50.67,19.00 M31.67,19.00 A6.33,6.33 0 0 0 44.33,19.00 M-38.00,38.00 A19.00,19.00 0 0 0 0.00,38.00 M-31.67,38.00 A12.67,12.67 0 0 0 -6.33,38.00 M-25.33,38.00 A6.33,6.33 0 0 0 -12.67,38.00 M0.00,38.00 A19.00,19.00 0 0 0 38.00,38.00 M6.33,38.00 A12.67,12.67 0 0 0 31.67,38.00 M12.67,38.00 A6.33,6.33 0 0 0 25.33,38.00 M38.00,38.00 A19.00,19.00 0 0 0 76.00,38.00 M44.33,38.00 A12.67,12.67 0 0 0 69.67,38.00 M50.67,38.00 A6.33,6.33 0 0 0 63.33,38.00 M-19.00,57.00 A19.00,19.00 0 0 0 19.00,57.00 M-12.67,57.00 A12.67,12.67 0 0 0 12.67,57.00 M-6.33,57.00 A6.33,6.33 0 0 0 6.33,57.00 M19.00,57.00 A19.00,19.00 0 0 0 57.00,57.00 M25.33,57.00 A12.67,12.67 0 0 0 50.67,57.00 M31.67,57.00 A6.33,6.33 0 0 0 44.33,57.00 M-38.00,76.00 A19.00,19.00 0 0 0 0.00,76.00 M-31.67,76.00 A12.67,12.67 0 0 0 -6.33,76.00 M-25.33,76.00 A6.33,6.33 0 0 0 -12.67,76.00 M0.00,76.00 A19.00,19.00 0 0 0 38.00,76.00 M6.33,76.00 A12.67,12.67 0 0 0 31.67,76.00 M12.67,76.00 A6.33,6.33 0 0 0 25.33,76.00 M38.00,76.00 A19.00,19.00 0 0 0 76.00,76.00 M44.33,76.00 A12.67,12.67 0 0 0 69.67,76.00 M50.67,76.00 A6.33,6.33 0 0 0 63.33,76.00 M-19.00,95.00 A19.00,19.00 0 0 0 19.00,95.00 M-12.67,95.00 A12.67,12.67 0 0 0 12.67,95.00 M-6.33,95.00 A6.33,6.33 0 0 0 6.33,95.00 M19.00,95.00 A19.00,19.00 0 0 0 57.00,95.00 M25.33,95.00 A12.67,12.67 0 0 0 50.67,95.00 M31.67,95.00 A6.33,6.33 0 0 0 44.33,95.00 M-38.00,114.00 A19.00,19.00 0 0 0 0.00,114.00 M-31.67,114.00 A12.67,12.67 0 0 0 -6.33,114.00 M-25.33,114.00 A6.33,6.33 0 0 0 -12.67,114.00 M0.00,114.00 A19.00,19.00 0 0 0 38.00,114.00 M6.33,114.00 A12.67,12.67 0 0 0 31.67,114.00 M12.67,114.00 A6.33,6.33 0 0 0 25.33,114.00 M38.00,114.00 A19.00,19.00 0 0 0 76.00,114.00 M44.33,114.00 A12.67,12.67 0 0 0 69.67,114.00 M50.67,114.00 A6.33,6.33 0 0 0 63.33,114.00 M-19.00,133.00 A19.00,19.00 0 0 0 19.00,133.00 M-12.67,133.00 A12.67,12.67 0 0 0 12.67,133.00 M-6.33,133.00 A6.33,6.33 0 0 0 6.33,133.00 M19.00,133.00 A19.00,19.00 0 0 0 57.00,133.00 M25.33,133.00 A12.67,12.67 0 0 0 50.67,133.00 M31.67,133.00 A6.33,6.33 0 0 0 44.33,133.00 M-38.00,152.00 A19.00,19.00 0 0 0 0.00,152.00 M-31.67,152.00 A12.67,12.67 0 0 0 -6.33,152.00 M-25.33,152.00 A6.33,6.33 0 0 0 -12.67,152.00 M0.00,152.00 A19.00,19.00 0 0 0 38.00,152.00 M6.33,152.00 A12.67,12.67 0 0 0 31.67,152.00 M12.67,152.00 A6.33,6.33 0 0 0 25.33,152.00 M38.00,152.00 A19.00,19.00 0 0 0 76.00,152.00 M44.33,152.00 A12.67,12.67 0 0 0 69.67,152.00 M50.67,152.00 A6.33,6.33 0 0 0 63.33,152.00 M-19.00,171.00 A19.00,19.00 0 0 0 19.00,171.00 M-12.67,171.00 A12.67,12.67 0 0 0 12.67,171.00 M-6.33,171.00 A6.33,6.33 0 0 0 6.33,171.00 M19.00,171.00 A19.00,19.00 0 0 0 57.00,171.00 M25.33,171.00 A12.67,12.67 0 0 0 50.67,171.00 M31.67,171.00 A6.33,6.33 0 0 0 44.33,171.00"/></g></g></g><line x1="591.00" y1="26" x2="591.00" y2="170" stroke="#2a1810" stroke-width="1" opacity="0.3"/><rect x="615.00" y="27.00" width="12" height="12" rx="3" fill="#b87040"/><text x="635.00" y="37.00" fill="#1e1108" font-size="13" font-weight="600">TypeScript</text><text x="800.00" y="37.00" fill="#2a1810" font-size="12" text-anchor="end" opacity="0.7">47.8%</text><rect x="615.00" y="53.00" width="12" height="12" rx="3" fill="#7a4a2a"/><text x="635.00" y="63.00" fill="#1e1108" font-size="13" font-weight="600">Python</text><text x="800.00" y="63.00" fill="#2a1810" font-size="12" text-anchor="end" opacity="0.7">24.6%</text><rect x="615.00" y="79.00" width="12" height="12" rx="3" fill="#d89868"/><text x="635.00" y="89.00" fill="#1e1108" font-size="13" font-weight="600">Rust</text><text x="800.00" y="89.00" fill="#2a1810" font-size="12" text-anchor="end" opacity="0.7">12.7%</text><rect x="615.00" y="105.00" width="12" height="12" rx="3" fill="#9a5a3a"/><text x="635.00" y="115.00" fill="#1e1108" font-size="13" font-weight="600">Markdown</text><text x="800.00" y="115.00" fill="#2a1810" font-size="12" text-anchor="end" opacity="0.7">8.2%</text><rect x="615.00" y="131.00" width="12" height="12" rx="3" fill="#c4a488"/><text x="635.00" y="141.00" fill="#1e1108" font-size="13" font-weight="600">CSS</text><text x="800.00" y="141.00" fill="#2a1810" font-size="12" text-anchor="end" opacity="0.7">4.5%</text><rect x="615.00" y="157.00" width="12" height="12" rx="3" fill="#e0a878"/><text x="635.00" y="167.00" fill="#1e1108" font-size="13" font-weight="600">Shell</text><text x="800.00" y="167.00" fill="#2a1810" font-size="12" text-anchor="end" opacity="0.7">2.2%</text></svg>