<svg xmlns="http://www.w3.org/2000/svg" width="1526" height="216" viewBox="0 0 1526 216" font-family="Segoe UI, Helvetica, Arial, sans-serif"><rect width="1526" height="216" rx="10" fill="#ece4d6"/><clipPath id="c0"><rect x="22" y="22" width="232" height="140" rx="8"/></clipPath><g clip-path="url(#c0)"><g transform="translate(22,22)"><rect width="232" height="140" fill="#b87040"/><g fill="none" stroke="#7c4b2c" stroke-width="1.6" opacity="0.6"><path d="M-38.0,0.0 A19.0,19.0 0 0 0 0.0,0.0 M-31.7,0.0 A12.7,12.7 0 0 0 -6.3,0.0 M-25.3,0.0 A6.3,6.3 0 0 0 -12.7,0.0 M0.0,0.0 A19.0,19.0 0 0 0 38.0,0.0 M6.3,0.0 A12.7,12.7 0 0 0 31.7,0.0 M12.7,0.0 A6.3,6.3 0 0 0 25.3,0.0 M38.0,0.0 A19.0,19.0 0 0 0 76.0,0.0 M44.3,0.0 A12.7,12.7 0 0 0 69.7,0.0 M50.7,0.0 A6.3,6.3 0 0 0 63.3,0.0 M76.0,0.0 A19.0,19.0 0 0 0 114.0,0.0 M82.3,0.0 A12.7,12.7 0 0 0 107.7,0.0 M88.7,0.0 A6.3,6.3 0 0 0 101.3,0.0 M114.0,0.0 A19.0,19.0 0 0 0 152.0,0.0 M120.3,0.0 A12.7,12.7 0 0 0 145.7,0.0 M126.7,0.0 A6.3,6.3 0 0 0 139.3,0.0 M152.0,0.0 A19.0,19.0 0 0 0 190.0,0.0 M158.3,0.0 A12.7,12.7 0 0 0 183.7,0.0 M164.7,0.0 A6.3,6.3 0 0 0 177.3,0.0 M190.0,0.0 A19.0,19.0 0 0 0 228.0,0.0 M196.3,0.0 A12.7,12.7 0 0 0 221.7,0.0 M202.7,0.0 A6.3,6.3 0 0 0 215.3,0.0 M228.0,0.0 A19.0,19.0 0 0 0 266.0,0.0 M234.3,0.0 A12.7,12.7 0 0 0 259.7,0.0 M240.7,0.0 A6.3,6.3 0 0 0 253.3,0.0 M266.0,0.0 A19.0,19.0 0 0 0 304.0,0.0 M272.3,0.0 A12.7,12.7 0 0 0 297.7,0.0 M278.7,0.0 A6.3,6.3 0 0 0 291.3,0.0 M-19.0,19.0 A19.0,19.0 0 0 0 19.0,19.0 M-12.7,19.0 A12.7,12.7 0 0 0 12.7,19.0 M-6.3,19.0 A6.3,6.3 0 0 0 6.3,19.0 M19.0,19.0 A19.0,19.0 0 0 0 57.0,19.0 M25.3,19.0 A12.7,12.7 0 0 0 50.7,19.0 M31.7,19.0 A6.3,6.3 0 0 0 44.3,19.0 M57.0,19.0 A19.0,19.0 0 0 0 95.0,19.0 M63.3,19.0 A12.7,12.7 0 0 0 88.7,19.0 M69.7,19.0 A6.3,6.3 0 0 0 82.3,19.0 M95.0,19.0 A19.0,19.0 0 0 0 133.0,19.0 M101.3,19.0 A12.7,12.7 0 0 0 126.7,19.0 M107.7,19.0 A6.3,6.3 0 0 0 120.3,19.0 M133.0,19.0 A19.0,19.0 0 0 0 171.0,19.0 M139.3,19.0 A12.7,12.7 0 0 0 164.7,19.0 M145.7,19.0 A6.3,6.3 0 0 0 158.3,19.0 M171.0,19.0 A19.0,19.0 0 0 0 209.0,19.0 M177.3,19.0 A12.7,12.7 0 0 0 202.7,19.0 M183.7,19.0 A6.3,6.3 0 0 0 196.3,19.0 M209.0,19.0 A19.0,19.0 0 0 0 247.0,19.0 M215.3,19.0 A12.7,12.7 0 0 0 240.7,19.0 M221.7,19.0 A6.3,6.3 0 0 0 234.3,19.0 M247.0,19.0 A19.0,19.0 0 0 0 285.0,19.0 M253.3,19.0 A12.7,12.7 0 0 0 278.7,19.0 M259.7,19.0 A6.3,6.3 0 0 0 272.3,19.0 M285.0,19.0 A19.0,19.0 0 0 0 323.0,19.0 M291.3,19.0 A12.7,12.7 0 0 0 316.7,19.0 M297.7,19.0 A6.3,6.3 0 0 0 310.3,19.0 M-38.0,38.0 A19.0,19.0 0 0 0 0.0,38.0 M-31.7,38.0 A12.7,12.7 0 0 0 -6.3,38.0 M-25.3,38.0 A6.3,6.3 0 0 0 -12.7,38.0 M0.0,38.0 A19.0,19.0 0 0 0 38.0,38.0 M6.3,38.0 A12.7,12.7 0 0 0 31.7,38.0 M12.7,38.0 A6.3,6.3 0 0 0 25.3,38.0 M38.0,38.0 A19.0,19.0 0 0 0 76.0,38.0 M44.3,38.0 A12.7,12.7 0 0 0 69.7,38.0 M50.7,38.0 A6.3,6.3 0 0 0 63.3,38.0 M76.0,38.0 A19.0,19.0 0 0 0 114.0,38.0 M82.3,38.0 A12.7,12.7 0 0 0 107.7,38.0 M88.7,38.0 A6.3,6.3 0 0 0 101.3,38.0 M114.0,38.0 A19.0,19.0 0 0 0 152.0,38.0 M120.3,38.0 A12.7,12.7 0 0 0 145.7,38.0 M126.7,38.0 A6.3,6.3 0 0 0 139.3,38.0 M152.0,38.0 A19.0,19.0 0 0 0 190.0,38.0 M158.3,38.0 A12.7,12.7 0 0 0 183.7,38.0 M164.7,38.0 A6.3,6.3 0 0 0 177.3,38.0 M190.0,38.0 A19.0,19.0 0 0 0 228.0,38.0 M196.3,38.0 A12.7,12.7 0 0 0 221.7,38.0 M202.7,38.0 A6.3,6.3 0 0 0 215.3,38.0 M228.0,38.0 A19.0,19.0 0 0 0 266.0,38.0 M234.3,38.0 A12.7,12.7 0 0 0 259.7,38.0 M240.7,38.0 A6.3,6.3 0 0 0 253.3,38.0 M266.0,38.0 A19.0,19.0 0 0 0 304.0,38.0 M272.3,38.0 A12.7,12.7 0 0 0 297.7,38.0 M278.7,38.0 A6.3,6.3 0 0 0 291.3,38.0 M-19.0,57.0 A19.0,19.0 0 0 0 19.0,57.0 M-12.7,57.0 A12.7,12.7 0 0 0 12.7,57.0 M-6.3,57.0 A6.3,6.3 0 0 0 6.3,57.0 M19.0,57.0 A19.0,19.0 0 0 0 57.0,57.0 M25.3,57.0 A12.7,12.7 0 0 0 50.7,57.0 M31.7,57.0 A6.3,6.3 0 0 0 44.3,57.0 M57.0,57.0 A19.0,19.0 0 0 0 95.0,57.0 M63.3,57.0 A12.7,12.7 0 0 0 88.7,57.0 M69.7,57.0 A6.3,6.3 0 0 0 82.3,57.0 M95.0,57.0 A19.0,19.0 0 0 0 133.0,57.0 M101.3,57.0 A12.7,12.7 0 0 0 126.7,57.0 M107.7,57.0 A6.3,6.3 0 0 0 120.3,57.0 M133.0,57.0 A19.0,19.0 0 0 0 171.0,57.0 M139.3,57.0 A12.7,12.7 0 0 0 164.7,57.0 M145.7,57.0 A6.3,6.3 0 0 0 158.3,57.0 M171.0,57.0 A19.0,19.0 0 0 0 209.0,57.0 M177.3,57.0 A12.7,12.7 0 0 0 202.7,57.0 M183.7,57.0 A6.3,6.3 0 0 0 196.3,57.0 M209.0,57.0 A19.0,19.0 0 0 0 247.0,57.0 M215.3,57.0 A12.7,12.7 0 0 0 240.7,57.0 M221.7,57.0 A6.3,6.3 0 0 0 234.3,57.0 M247.0,57.0 A19.0,19.0 0 0 0 285.0,57.0 M253.3,57.0 A12.7,12.7 0 0 0 278.7,57.0 M259.7,57.0 A6.3,6.3 0 0 0 272.3,57.0 M285.0,57.0 A19.0,19.0 0 0 0 323.0,57.0 M291.3,57.0 A12.7,12.7 0 0 0 316.7,57.0 M297.7,57.0 A6.3,6.3 0 0 0 310.3,57.0 M-38.0,76.0 A19.0,19.0 0 0 0 0.0,76.0 M-31.7,76.0 A12.7,12.7 0 0 0 -6.3,76.0 M-25.3,76.0 A6.3,6.3 0 0 0 -12.7,76.0 M0.0,76.0 A19.0,19.0 0 0 0 38.0,76.0 M6.3,76.0 A12.7,12.7 0 0 0 31.7,76.0 M12.7,76.0 A6.3,6.3 0 0 0 25.3,76.0 M38.0,76.0 A19.0,19.0 0 0 0 76.0,76.0 M44.3,76.0 A12.7,12.7 0 0 0 69.7,76.0 M50.7,76.0 A6.3,6.3 0 0 0 63.3,76.0 M76.0,76.0 A19.0,19.0 0 0 0 114.0,76.0 M82.3,76.0 A12.7,12.7 0 0 0 107.7,76.0 M88.7,76.0 A6.3,6.3 0 0 0 101.3,76.0 M114.0,76.0 A19.0,19.0 0 0 0 152.0,76.0 M120.3,76.0 A12.7,12.7 0 0 0 145.7,76.0 M126.7,76.0 A6.3,6.3 0 0 0 139.3,76.0 M152.0,76.0 A19.0,19.0 0 0 0 190.0,76.0 M158.3,76.0 A12.7,12.7 0 0 0 183.7,76.0 M164.7,76.0 A6.3,6.3 0 0 0 177.3,76.0 M190.0,76.0 A19.0,19.0 0 0 0 228.0,76.0 M196.3,76.0 A12.7,12.7 0 0 0 221.7,76.0 M202.7,76.0 A6.3,6.3 0 0 0 215.3,76.0 M228.0,76.0 A19.0,19.0 0 0 0 266.0,76.0 M234.3,76.0 A12.7,12.7 0 0 0 259.7,76.0 M240.7,76.0 A6.3,6.3 0 0 0 253.3,76.0 M266.0,76.0 A19.0,19.0 0 0 0 304.0,76.0 M272.3,76.0 A12.7,12.7 0 0 0 297.7,76.0 M278.7,76.0 A6.3,6.3 0 0 0 291.3,76.0 M-19.0,95.0 A19.0,19.0 0 0 0 19.0,95.0 M-12.7,95.0 A12.7,12.7 0 0 0 12.7,95.0 M-6.3,95.0 A6.3,6.3 0 0 0 6.3,95.0 M19.0,95.0 A19.0,19.0 0 0 0 57.0,95.0 M25.3,95.0 A12.7,12.7 0 0 0 50.7,95.0 M31.7,95.0 A6.3,6.3 0 0 0 44.3,95.0 M57.0,95.0 A19.0,19.0 0 0 0 95.0,95.0 M63.3,95.0 A12.7,12.7 0 0 0 88.7,95.0 M69.7,95.0 A6.3,6.3 0 0 0 82.3,95.0 M95.0,95.0 A19.0,19.0 0 0 0 133.0,95.0 M101.3,95.0 A12.7,12.7 0 0 0 126.7,95.0 M107.7,95.0 A6.3,6.3 0 0 0 120.3,95.0 M133.0,95.0 A19.0,19.0 0 0 0 171.0,95.0 M139.3,95.0 A12.7,12.7 0 0 0 164.7,95.0 M145.7,95.0 A6.3,6.3 0 0 0 158.3,95.0 M171.0,95.0 A19.0,19.0 0 0 0 209.0,95.0 M177.3,95.0 A12.7,12.7 0 0 0 202.7,95.0 M183.7,95.0 A6.3,6.3 0 0 0 196.3,95.0 M209.0,95.0 A19.0,19.0 0 0 0 247.0,95.0 M215.3,95.0 A12.7,12.7 0 0 0 240.7,95.0 M221.7,95.0 A6.3,6.3 0 0 0 234.3,95.0 M247.0,95.0 A19.0,19.0 0 0 0 285.0,95.0 M253.3,95.0 A12.7,12.7 0 0 0 278.7,95.0 M259.7,95.0 A6.3,6.3 0 0 0 272.3,95.0 M285.0,95.0 A19.0,19.0 0 0 0 323.0,95.0 M291.3,95.0 A12.7,12.7 0 0 0 316.7,95.0 M297.7,95.0 A6.3,6.3 0 0 0 310.3,95.0 M-38.0,114.0 A19.0,19.0 0 0 0 0.0,114.0 M-31.7,114.0 A12.7,12.7 0 0 0 -6.3,114.0 M-25.3,114.0 A6.3,6.3 0 0 0 -12.7,114.0 M0.0,114.0 A19.0,19.0 0 0 0 38.0,114.0 M6.3,114.0 A12.7,12.7 0 0 0 31.7,114.0 M12.7,114.0 A6.3,6.3 0 0 0 25.3,114.0 M38.0,114.0 A19.0,19.0 0 0 0 76.0,114.0 M44.3,114.0 A12.7,12.7 0 0 0 69.7,114.0 M50.7,114.0 A6.3,6.3 0 0 0 63.3,114.0 M76.0,114.0 A19.0,19.0 0 0 0 114.0,114.0 M82.3,114.0 A12.7,12.7 0 0 0 107.7,114.0 M88.7,114.0 A6.3,6.3 0 0 0 101.3,114.0 M114.0,114.0 A19.0,19.0 0 0 0 152.0,114.0 M120.3,114.0 A12.7,12.7 0 0 0 145.7,114.0 M126.7,114.0 A6.3,6.3 0 0 0 139.3,114.0 M152.0,114.0 A19.0,19.0 0 0 0 190.0,114.0 M158.3,114.0 A12.7,12.7 0 0 0 183.7,114.0 M164.7,114.0 A6.3,6.3 0 0 0 177.3,114.0 M190.0,114.0 A19.0,19.0 0 0 0 228.0,114.0 M196.3,114.0 A12.7,12.7 0 0 0 221.7,114.0 M202.7,114.0 A6.3,6.3 0 0 0 215.3,114.0 M228.0,114.0 A19.0,19.0 0 0 0 266.0,114.0 M234.3,114.0 A12.7,12.7 0 0 0 259.7,114.0 M240.7,114.0 A6.3,6.3 0 0 0 253.3,114.0 M266.0,114.0 A19.0,19.0 0 0 0 304.0,114.0 M272.3,114.0 A12.7,12.7 0 0 0 297.7,114.0 M278.7,114.0 A6.3,6.3 0 0 0 291.3,114.0 M-19.0,133.0 A19.0,19.0 0 0 0 19.0,133.0 M-12.7,133.0 A12.7,12.7 0 0 0 12.7,133.0 M-6.3,133.0 A6.3,6.3 0 0 0 6.3,133.0 M19.0,133.0 A19.0,19.0 0 0 0 57.0,133.0 M25.3,133.0 A12.7,12.7 0 0 0 50.7,133.0 M31.7,133.0 A6.3,6.3 0 0 0 44.3,133.0 M57.0,133.0 A19.0,19.0 0 0 0 95.0,133.0 M63.3,133.0 A12.7,12.7 0 0 0 88.7,133.0 M69.7,133.0 A6.3,6.3 0 0 0 82.3,133.0 M95.0,133.0 A19.0,19.0 0 0 0 133.0,133.0 M101.3,133.0 A12.7,12.7 0 0 0 126.7,133.0 M107.7,133.0 A6.3,6.3 0 0 0 120.3,133.0 M133.0,133.0 A19.0,19.0 0 0 0 171.0,133.0 M139.3,133.0 A12.7,12.7 0 0 0 164.7,133.0 M145.7,133.0 A6.3,6.3 0 0 0 158.3,133.0 M171.0,133.0 A19.0,19.0 0 0 0 209.0,133.0 M177.3,133.0 A12.7,12.7 0 0 0 202.7,133.0 M183.7,133.0 A6.3,6.3 0 0 0 196.3,133.0 M209.0,133.0 A19.0,19.0 0 0 0 247.0,133.0 M215.3,133.0 A12.7,12.7 0 0 0 240.7,133.0 M221.7,133.0 A6.3,6.3 0 0 0 234.3,133.0 M247.0,133.0 A19.0,19.0 0 0 0 285.0,133.0 M253.3,133.0 A12.7,12.7 0 0 0 278.7,133.0 M259.7,133.0 A6.3,6.3 0 0 0 272.3,133.0 M285.0,133.0 A19.0,19.0 0 0 0 323.0,133.0 M291.3,133.0 A12.7,12.7 0 0 0 316.7,133.0 M297.7,133.0 A6.3,6.3 0 0 0 310.3,133.0 M-38.0,152.0 A19.0,19.0 0 0 0 0.0,152.0 M-31.7,152.0 A12.7,12.7 0 0 0 -6.3,152.0 M-25.3,152.0 A6.3,6.3 0 0 0 -12.7,152.0 M0.0,152.0 A19.0,19.0 0 0 0 38.0,152.0 M6.3,152.0 A12.7,12.7 0 0 0 31.7,152.0 M12.7,152.0 A6.3,6.3 0 0 0 25.3,152.0 M38.0,152.0 A19.0,19.0 0 0 0 76.0,152.0 M44.3,152.0 A12.7,12.7 0 0 0 69.7,152.0 M50.7,152.0 A6.3,6.3 0 0 0 63.3,152.0 M76.0,152.0 A19.0,19.0 0 0 0 114.0,152.0 M82.3,152.0 A12.7,12.7 0 0 0 107.7,152.0 M88.7,152.0 A6.3,6.3 0 0 0 101.3,152.0 M114.0,152.0 A19.0,19.0 0 0 0 152.0,152.0 M120.3,152.0 A12.7,12.7 0 0 0 145.7,152.0 M126.7,152.0 A6.3,6.3 0 0 0 139.3,152.0 M152.0,152.0 A19.0,19.0 0 0 0 190.0,152.0 M158.3,152.0 A12.7,12.7 0 0 0 183.7,152.0 M164.7,152.0 A6.3,6.3 0 0 0 177.3,152.0 M190.0,152.0 A19.0,19.0 0 0 0 228.0,152.0 M196.3,152.0 A12.7,12.7 0 0 0 221.7,152.0 M202.7,152.0 A6.3,6.3 0 0 0 215.3,152.0 M228.0,152.0 A19.0,19.0 0 0 0 266.0,152.0 M234.3,152.0 A12.7,12.7 0 0 0 259.7,152.0 M240.7,152.0 A6.3,6.3 0 0 0 253.3,152.0 M266.0,152.0 A19.0,19.0 0 0 0 304.0,152.0 M272.3,152.0 A12.7,12.7 0 0 0 297.7,152.0 M278.7,152.0 A6.3,6.3 0 0 0 291.3,152.0"/></g></g></g><text x="138.0" y="183" text-anchor="middle" font-size="14" font-weight="600" fill="#3a2a1a">terracotta</text><clipPath id="c1"><rect x="272" y="22" width="232" height="140" rx="8"/></clipPath><g clip-path="url(#c1)"><g transform="translate(272,22)"><rect width="232" height="140" fill="#3a3228"/><g fill="none" stroke="#a29c8f" stroke-width="1.6" opacity="0.6"><path d="M-38.0,0.0 A19.0,19.0 0 0 0 0.0,0.0 M-31.7,0.0 A12.7,12.7 0 0 0 -6.3,0.0 M-25.3,0.0 A6.3,6.3 0 0 0 -12.7,0.0 M0.0,0.0 A19.0,19.0 0 0 0 38.0,0.0 M6.3,0.0 A12.7,12.7 0 0 0 31.7,0.0 M12.7,0.0 A6.3,6.3 0 0 0 25.3,0.0 M38.0,0.0 A19.0,19.0 0 0 0 76.0,0.0 M44.3,0.0 A12.7,12.7 0 0 0 69.7,0.0 M50.7,0.0 A6.3,6.3 0 0 0 63.3,0.0 M76.0,0.0 A19.0,19.0 0 0 0 114.0,0.0 M82.3,0.0 A12.7,12.7 0 0 0 107.7,0.0 M88.7,0.0 A6.3,6.3 0 0 0 101.3,0.0 M114.0,0.0 A19.0,19.0 0 0 0 152.0,0.0 M120.3,0.0 A12.7,12.7 0 0 0 145.7,0.0 M126.7,0.0 A6.3,6.3 0 0 0 139.3,0.0 M152.0,0.0 A19.0,19.0 0 0 0 190.0,0.0 M158.3,0.0 A12.7,12.7 0 0 0 183.7,0.0 M164.7,0.0 A6.3,6.3 0 0 0 177.3,0.0 M190.0,0.0 A19.0,19.0 0 0 0 228.0,0.0 M196.3,0.0 A12.7,12.7 0 0 0 221.7,0.0 M202.7,0.0 A6.3,6.3 0 0 0 215.3,0.0 M228.0,0.0 A19.0,19.0 0 0 0 266.0,0.0 M234.3,0.0 A12.7,12.7 0 0 0 259.7,0.0 M240.7,0.0 A6.3,6.3 0 0 0 253.3,0.0 M266.0,0.0 A19.0,19.0 0 0 0 304.0,0.0 M272.3,0.0 A12.7,12.7 0 0 0 297.7,0.0 M278.7,0.0 A6.3,6.3 0 0 0 291.3,0.0 M-19.0,19.0 A19.0,19.0 0 0 0 19.0,19.0 M-12.7,19.0 A12.7,12.7 0 0 0 12.7,19.0 M-6.3,19.0 A6.3,6.3 0 0 0 6.3,19.0 M19.0,19.0 A19.0,19.0 0 0 0 57.0,19.0 M25.3,19.0 A12.7,12.7 0 0 0 50.7,19.0 M31.7,19.0 A6.3,6.3 0 0 0 44.3,19.0 M57.0,19.0 A19.0,19.0 0 0 0 95.0,19.0 M63.3,19.0 A12.7,12.7 0 0 0 88.7,19.0 M69.7,19.0 A6.3,6.3 0 0 0 82.3,19.0 M95.0,19.0 A19.0,19.0 0 0 0 133.0,19.0 M101.3,19.0 A12.7,12.7 0 0 0 126.7,19.0 M107.7,19.0 A6.3,6.3 0 0 0 120.3,19.0 M133.0,19.0 A19.0,19.0 0 0 0 171.0,19.0 M139.3,19.0 A12.7,12.7 0 0 0 164.7,19.0 M145.7,19.0 A6.3,6.3 0 0 0 158.3,19.0 M171.0,19.0 A19.0,19.0 0 0 0 209.0,19.0 M177.3,19.0 A12.7,12.7 0 0 0 202.7,19.0 M183.7,19.0 A6.3,6.3 0 0 0 196.3,19.0 M209.0,19.0 A19.0,19.0 0 0 0 247.0,19.0 M215.3,19.0 A12.7,12.7 0 0 0 240.7,19.0 M221.7,19.0 A6.3,6.3 0 0 0 234.3,19.0 M247.0,19.0 A19.0,19.0 0 0 0 285.0,19.0 M253.3,19.0 A12.7,12.7 0 0 0 278.7,19.0 M259.7,19.0 A6.3,6.3 0 0 0 272.3,19.0 M285.0,19.0 A19.0,19.0 0 0 0 323.0,19.0 M291.3,19.0 A12.7,12.7 0 0 0 316.7,19.0 M297.7,19.0 A6.3,6.3 0 0 0 310.3,19.0 M-38.0,38.0 A19.0,19.0 0 0 0 0.0,38.0 M-31.7,38.0 A12.7,12.7 0 0 0 -6.3,38.0 M-25.3,38.0 A6.3,6.3 0 0 0 -12.7,38.0 M0.0,38.0 A19.0,19.0 0 0 0 38.0,38.0 M6.3,38.0 A12.7,12.7 0 0 0 31.7,38.0 M12.7,38.0 A6.3,6.3 0 0 0 25.3,38.0 M38.0,38.0 A19.0,19.0 0 0 0 76.0,38.0 M44.3,38.0 A12.7,12.7 0 0 0 69.7,38.0 M50.7,38.0 A6.3,6.3 0 0 0 63.3,38.0 M76.0,38.0 A19.0,19.0 0 0 0 114.0,38.0 M82.3,38.0 A12.7,12.7 0 0 0 107.7,38.0 M88.7,38.0 A6.3,6.3 0 0 0 101.3,38.0 M114.0,38.0 A19.0,19.0 0 0 0 152.0,38.0 M120.3,38.0 A12.7,12.7 0 0 0 145.7,38.0 M126.7,38.0 A6.3,6.3 0 0 0 139.3,38.0 M152.0,38.0 A19.0,19.0 0 0 0 190.0,38.0 M158.3,38.0 A12.7,12.7 0 0 0 183.7,38.0 M164.7,38.0 A6.3,6.3 0 0 0 177.3,38.0 M190.0,38.0 A19.0,19.0 0 0 0 228.0,38.0 M196.3,38.0 A12.7,12.7 0 0 0 221.7,38.0 M202.7,38.0 A6.3,6.3 0 0 0 215.3,38.0 M228.0,38.0 A19.0,19.0 0 0 0 266.0,38.0 M234.3,38.0 A12.7,12.7 0 0 0 259.7,38.0 M240.7,38.0 A6.3,6.3 0 0 0 253.3,38.0 M266.0,38.0 A19.0,19.0 0 0 0 304.0,38.0 M272.3,38.0 A12.7,12.7 0 0 0 297.7,38.0 M278.7,38.0 A6.3,6.3 0 0 0 291.3,38.0 M-19.0,57.0 A19.0,19.0 0 0 0 19.0,57.0 M-12.7,57.0 A12.7,12.7 0 0 0 12.7,57.0 M-6.3,57.0 A6.3,6.3 0 0 0 6.3,57.0 M19.0,57.0 A19.0,19.0 0 0 0 57.0,57.0 M25.3,57.0 A12.7,12.7 0 0 0 50.7,57.0 M31.7,57.0 A6.3,6.3 0 0 0 44.3,57.0 M57.0,57.0 A19.0,19.0 0 0 0 95.0,57.0 M63.3,57.0 A12.7,12.7 0 0 0 88.7,57.0 M69.7,57.0 A6.3,6.3 0 0 0 82.3,57.0 M95.0,57.0 A19.0,19.0 0 0 0 133.0,57.0 M101.3,57.0 A12.7,12.7 0 0 0 126.7,57.0 M107.7,57.0 A6.3,6.3 0 0 0 120.3,57.0 M133.0,57.0 A19.0,19.0 0 0 0 171.0,57.0 M139.3,57.0 A12.7,12.7 0 0 0 164.7,57.0 M145.7,57.0 A6.3,6.3 0 0 0 158.3,57.0 M171.0,57.0 A19.0,19.0 0 0 0 209.0,57.0 M177.3,57.0 A12.7,12.7 0 0 0 202.7,57.0 M183.7,57.0 A6.3,6.3 0 0 0 196.3,57.0 M209.0,57.0 A19.0,19.0 0 0 0 247.0,57.0 M215.3,57.0 A12.7,12.7 0 0 0 240.7,57.0 M221.7,57.0 A6.3,6.3 0 0 0 234.3,57.0 M247.0,57.0 A19.0,19.0 0 0 0 285.0,57.0 M253.3,57.0 A12.7,12.7 0 0 0 278.7,57.0 M259.7,57.0 A6.3,6.3 0 0 0 272.3,57.0 M285.0,57.0 A19.0,19.0 0 0 0 323.0,57.0 M291.3,57.0 A12.7,12.7 0 0 0 316.7,57.0 M297.7,57.0 A6.3,6.3 0 0 0 310.3,57.0 M-38.0,76.0 A19.0,19.0 0 0 0 0.0,76.0 M-31.7,76.0 A12.7,12.7 0 0 0 -6.3,76.0 M-25.3,76.0 A6.3,6.3 0 0 0 -12.7,76.0 M0.0,76.0 A19.0,19.0 0 0 0 38.0,76.0 M6.3,76.0 A12.7,12.7 0 0 0 31.7,76.0 M12.7,76.0 A6.3,6.3 0 0 0 25.3,76.0 M38.0,76.0 A19.0,19.0 0 0 0 76.0,76.0 M44.3,76.0 A12.7,12.7 0 0 0 69.7,76.0 M50.7,76.0 A6.3,6.3 0 0 0 63.3,76.0 M76.0,76.0 A19.0,19.0 0 0 0 114.0,76.0 M82.3,76.0 A12.7,12.7 0 0 0 107.7,76.0 M88.7,76.0 A6.3,6.3 0 0 0 101.3,76.0 M114.0,76.0 A19.0,19.0 0 0 0 152.0,76.0 M120.3,76.0 A12.7,12.7 0 0 0 145.7,76.0 M126.7,76.0 A6.3,6.3 0 0 0 139.3,76.0 M152.0,76.0 A19.0,19.0 0 0 0 190.0,76.0 M158.3,76.0 A12.7,12.7 0 0 0 183.7,76.0 M164.7,76.0 A6.3,6.3 0 0 0 177.3,76.0 M190.0,76.0 A19.0,19.0 0 0 0 228.0,76.0 M196.3,76.0 A12.7,12.7 0 0 0 221.7,76.0 M202.7,76.0 A6.3,6.3 0 0 0 215.3,76.0 M228.0,76.0 A19.0,19.0 0 0 0 266.0,76.0 M234.3,76.0 A12.7,12.7 0 0 0 259.7,76.0 M240.7,76.0 A6.3,6.3 0 0 0 253.3,76.0 M266.0,76.0 A19.0,19.0 0 0 0 304.0,76.0 M272.3,76.0 A12.7,12.7 0 0 0 297.7,76.0 M278.7,76.0 A6.3,6.3 0 0 0 291.3,76.0 M-19.0,95.0 A19.0,19.0 0 0 0 19.0,95.0 M-12.7,95.0 A12.7,12.7 0 0 0 12.7,95.0 M-6.3,95.0 A6.3,6.3 0 0 0 6.3,95.0 M19.0,95.0 A19.0,19.0 0 0 0 57.0,95.0 M25.3,95.0 A12.7,12.7 0 0 0 50.7,95.0 M31.7,95.0 A6.3,6.3 0 0 0 44.3,95.0 M57.0,95.0 A19.0,19.0 0 0 0 95.0,95.0 M63.3,95.0 A12.7,12.7 0 0 0 88.7,95.0 M69.7,95.0 A6.3,6.3 0 0 0 82.3,95.0 M95.0,95.0 A19.0,19.0 0 0 0 133.0,95.0 M101.3,95.0 A12.7,12.7 0 0 0 126.7,95.0 M107.7,95.0 A6.3,6.3 0 0 0 120.3,95.0 M133.0,95.0 A19.0,19.0 0 0 0 171.0,95.0 M139.3,95.0 A12.7,12.7 0 0 0 164.7,95.0 M145.7,95.0 A6.3,6.3 0 0 0 158.3,95.0 M171.0,95.0 A19.0,19.0 0 0 0 209.0,95.0 M177.3,95.0 A12.7,12.7 0 0 0 202.7,95.0 M183.7,95.0 A6.3,6.3 0 0 0 196.3,95.0 M209.0,95.0 A19.0,19.0 0 0 0 247.0,95.0 M215.3,95.0 A12.7,12.7 0 0 0 240.7,95.0 M221.7,95.0 A6.3,6.3 0 0 0 234.3,95.0 M247.0,95.0 A19.0,19.0 0 0 0 285.0,95.0 M253.3,95.0 A12.7,12.7 0 0 0 278.7,95.0 M259.7,95.0 A6.3,6.3 0 0 0 272.3,95.0 M285.0,95.0 A19.0,19.0 0 0 0 323.0,95.0 M291.3,95.0 A12.7,12.7 0 0 0 316.7,95.0 M297.7,95.0 A6.3,6.3 0 0 0 310.3,95.0 M-38.0,114.0 A19.0,19.0 0 0 0 0.0,114.0 M-31.7,114.0 A12.7,12.7 0 0 0 -6.3,114.0 M-25.3,114.0 A6.3,6.3 0 0 0 -12.7,114.0 M0.0,114.0 A19.0,19.0 0 0 0 38.0,114.0 M6.3,114.0 A12.7,12.7 0 0 0 31.7,114.0 M12.7,114.0 A6.3,6.3 0 0 0 25.3,114.0 M38.0,114.0 A19.0,19.0 0 0 0 76.0,114.0 M44.3,114.0 A12.7,12.7 0 0 0 69.7,114.0 M50.7,114.0 A6.3,6.3 0 0 0 63.3,114.0 M76.0,114.0 A19.0,19.0 0 0 0 114.0,114.0 M82.3,114.0 A12.7,12.7 0 0 0 107.7,114.0 M88.7,114.0 A6.3,6.3 0 0 0 101.3,114.0 M114.0,114.0 A19.0,19.0 0 0 0 152.0,114.0 M120.3,114.0 A12.7,12.7 0 0 0 145.7,114.0 M126.7,114.0 A6.3,6.3 0 0 0 139.3,114.0 M152.0,114.0 A19.0,19.0 0 0 0 190.0,114.0 M158.3,114.0 A12.7,12.7 0 0 0 183.7,114.0 M164.7,114.0 A6.3,6.3 0 0 0 177.3,114.0 M190.0,114.0 A19.0,19.0 0 0 0 228.0,114.0 M196.3,114.0 A12.7,12.7 0 0 0 221.7,114.0 M202.7,114.0 A6.3,6.3 0 0 0 215.3,114.0 M228.0,114.0 A19.0,19.0 0 0 0 266.0,114.0 M234.3,114.0 A12.7,12.7 0 0 0 259.7,114.0 M240.7,114.0 A6.3,6.3 0 0 0 253.3,114.0 M266.0,114.0 A19.0,19.0 0 0 0 304.0,114.0 M272.3,114.0 A12.7,12.7 0 0 0 297.7,114.0 M278.7,114.0 A6.3,6.3 0 0 0 291.3,114.0 M-19.0,133.0 A19.0,19.0 0 0 0 19.0,133.0 M-12.7,133.0 A12.7,12.7 0 0 0 12.7,133.0 M-6.3,133.0 A6.3,6.3 0 0 0 6.3,133.0 M19.0,133.0 A19.0,19.0 0 0 0 57.0,133.0 M25.3,133.0 A12.7,12.7 0 0 0 50.7,133.0 M31.7,133.0 A6.3,6.3 0 0 0 44.3,133.0 M57.0,133.0 A19.0,19.0 0 0 0 95.0,133.0 M63.3,133.0 A12.7,12.7 0 0 0 88.7,133.0 M69.7,133.0 A6.3,6.3 0 0 0 82.3,133.0 M95.0,133.0 A19.0,19.0 0 0 0 133.0,133.0 M101.3,133.0 A12.7,12.7 0 0 0 126.7,133.0 M107.7,133.0 A6.3,6.3 0 0 0 120.3,133.0 M133.0,133.0 A19.0,19.0 0 0 0 171.0,133.0 M139.3,133.0 A12.7,12.7 0 0 0 164.7,133.0 M145.7,133.0 A6.3,6.3 0 0 0 158.3,133.0 M171.0,133.0 A19.0,19.0 0 0 0 209.0,133.0 M177.3,133.0 A12.7,12.7 0 0 0 202.7,133.0 M183.7,133.0 A6.3,6.3 0 0 0 196.3,133.0 M209.0,133.0 A19.0,19.0 0 0 0 247.0,133.0 M215.3,133.0 A12.7,12.7 0 0 0 240.7,133.0 M221.7,133.0 A6.3,6.3 0 0 0 234.3,133.0 M247.0,133.0 A19.0,19.0 0 0 0 285.0,133.0 M253.3,133.0 A12.7,12.7 0 0 0 278.7,133.0 M259.7,133.0 A6.3,6.3 0 0 0 272.3,133.0 M285.0,133.0 A19.0,19.0 0 0 0 323.0,133.0 M291.3,133.0 A12.7,12.7 0 0 0 316.7,133.0 M297.7,133.0 A6.3,6.3 0 0 0 310.3,133.0 M-38.0,152.0 A19.0,19.0 0 0 0 0.0,152.0 M-31.7,152.0 A12.7,12.7 0 0 0 -6.3,152.0 M-25.3,152.0 A6.3,6.3 0 0 0 -12.7,152.0 M0.0,152.0 A19.0,19.0 0 0 0 38.0,152.0 M6.3,152.0 A12.7,12.7 0 0 0 31.7,152.0 M12.7,152.0 A6.3,6.3 0 0 0 25.3,152.0 M38.0,152.0 A19.0,19.0 0 0 0 76.0,152.0 M44.3,152.0 A12.7,12.7 0 0 0 69.7,152.0 M50.7,152.0 A6.3,6.3 0 0 0 63.3,152.0 M76.0,152.0 A19.0,19.0 0 0 0 114.0,152.0 M82.3,152.0 A12.7,12.7 0 0 0 107.7,152.0 M88.7,152.0 A6.3,6.3 0 0 0 101.3,152.0 M114.0,152.0 A19.0,19.0 0 0 0 152.0,152.0 M120.3,152.0 A12.7,12.7 0 0 0 145.7,152.0 M126.7,152.0 A6.3,6.3 0 0 0 139.3,152.0 M152.0,152.0 A19.0,19.0 0 0 0 190.0,152.0 M158.3,152.0 A12.7,12.7 0 0 0 183.7,152.0 M164.7,152.0 A6.3,6.3 0 0 0 177.3,152.0 M190.0,152.0 A19.0,19.0 0 0 0 228.0,152.0 M196.3,152.0 A12.7,12.7 0 0 0 221.7,152.0 M202.7,152.0 A6.3,6.3 0 0 0 215.3,152.0 M228.0,152.0 A19.0,19.0 0 0 0 266.0,152.0 M234.3,152.0 A12.7,12.7 0 0 0 259.7,152.0 M240.7,152.0 A6.3,6.3 0 0 0 253.3,152.0 M266.0,152.0 A19.0,19.0 0 0 0 304.0,152.0 M272.3,152.0 A12.7,12.7 0 0 0 297.7,152.0 M278.7,152.0 A6.3,6.3 0 0 0 291.3,152.0"/></g></g></g><text x="388.0" y="183" text-anchor="middle" font-size="14" font-weight="600" fill="#3a2a1a">sumi</text><clipPath id="c2"><rect x="522" y="22" width="232" height="140" rx="8"/></clipPath><g clip-path="url(#c2)"><g transform="translate(522,22)"><rect width="232" height="140" fill="#4a5a38"/><g fill="none" stroke="#a8b297" stroke-width="1.6" opacity="0.6"><path d="M-38.0,0.0 A19.0,19.0 0 0 0 0.0,0.0 M-31.7,0.0 A12.7,12.7 0 0 0 -6.3,0.0 M-25.3,0.0 A6.3,6.3 0 0 0 -12.7,0.0 M0.0,0.0 A19.0,19.0 0 0 0 38.0,0.0 M6.3,0.0 A12.7,12.7 0 0 0 31.7,0.0 M12.7,0.0 A6.3,6.3 0 0 0 25.3,0.0 M38.0,0.0 A19.0,19.0 0 0 0 76.0,0.0 M44.3,0.0 A12.7,12.7 0 0 0 69.7,0.0 M50.7,0.0 A6.3,6.3 0 0 0 63.3,0.0 M76.0,0.0 A19.0,19.0 0 0 0 114.0,0.0 M82.3,0.0 A12.7,12.7 0 0 0 107.7,0.0 M88.7,0.0 A6.3,6.3 0 0 0 101.3,0.0 M114.0,0.0 A19.0,19.0 0 0 0 152.0,0.0 M120.3,0.0 A12.7,12.7 0 0 0 145.7,0.0 M126.7,0.0 A6.3,6.3 0 0 0 139.3,0.0 M152.0,0.0 A19.0,19.0 0 0 0 190.0,0.0 M158.3,0.0 A12.7,12.7 0 0 0 183.7,0.0 M164.7,0.0 A6.3,6.3 0 0 0 177.3,0.0 M190.0,0.0 A19.0,19.0 0 0 0 228.0,0.0 M196.3,0.0 A12.7,12.7 0 0 0 221.7,0.0 M202.7,0.0 A6.3,6.3 0 0 0 215.3,0.0 M228.0,0.0 A19.0,19.0 0 0 0 266.0,0.0 M234.3,0.0 A12.7,12.7 0 0 0 259.7,0.0 M240.7,0.0 A6.3,6.3 0 0 0 253.3,0.0 M266.0,0.0 A19.0,19.0 0 0 0 304.0,0.0 M272.3,0.0 A12.7,12.7 0 0 0 297.7,0.0 M278.7,0.0 A6.3,6.3 0 0 0 291.3,0.0 M-19.0,19.0 A19.0,19.0 0 0 0 19.0,19.0 M-12.7,19.0 A12.7,12.7 0 0 0 12.7,19.0 M-6.3,19.0 A6.3,6.3 0 0 0 6.3,19.0 M19.0,19.0 A19.0,19.0 0 0 0 57.0,19.0 M25.3,19.0 A12.7,12.7 0 0 0 50.7,19.0 M31.7,19.0 A6.3,6.3 0 0 0 44.3,19.0 M57.0,19.0 A19.0,19.0 0 0 0 95.0,19.0 M63.3,19.0 A12.7,12.7 0 0 0 88.7,19.0 M69.7,19.0 A6.3,6.3 0 0 0 82.3,19.0 M95.0,19.0 A19.0,19.0 0 0 0 133.0,19.0 M101.3,19.0 A12.7,12.7 0 0 0 126.7,19.0 M107.7,19.0 A6.3,6.3 0 0 0 120.3,19.0 M133.0,19.0 A19.0,19.0 0 0 0 171.0,19.0 M139.3,19.0 A12.7,12.7 0 0 0 164.7,19.0 M145.7,19.0 A6.3,6.3 0 0 0 158.3,19.0 M171.0,19.0 A19.0,19.0 0 0 0 209.0,19.0 M177.3,19.0 A12.7,12.7 0 0 0 202.7,19.0 M183.7,19.0 A6.3,6.3 0 0 0 196.3,19.0 M209.0,19.0 A19.0,19.0 0 0 0 247.0,19.0 M215.3,19.0 A12.7,12.7 0 0 0 240.7,19.0 M221.7,19.0 A6.3,6.3 0 0 0 234.3,19.0 M247.0,19.0 A19.0,19.0 0 0 0 285.0,19.0 M253.3,19.0 A12.7,12.7 0 0 0 278.7,19.0 M259.7,19.0 A6.3,6.3 0 0 0 272.3,19.0 M285.0,19.0 A19.0,19.0 0 0 0 323.0,19.0 M291.3,19.0 A12.7,12.7 0 0 0 316.7,19.0 M297.7,19.0 A6.3,6.3 0 0 0 310.3,19.0 M-38.0,38.0 A19.0,19.0 0 0 0 0.0,38.0 M-31.7,38.0 A12.7,12.7 0 0 0 -6.3,38.0 M-25.3,38.0 A6.3,6.3 0 0 0 -12.7,38.0 M0.0,38.0 A19.0,19.0 0 0 0 38.0,38.0 M6.3,38.0 A12.7,12.7 0 0 0 31.7,38.0 M12.7,38.0 A6.3,6.3 0 0 0 25.3,38.0 M38.0,38.0 A19.0,19.0 0 0 0 76.0,38.0 M44.3,38.0 A12.7,12.7 0 0 0 69.7,38.0 M50.7,38.0 A6.3,6.3 0 0 0 63.3,38.0 M76.0,38.0 A19.0,19.0 0 0 0 114.0,38.0 M82.3,38.0 A12.7,12.7 0 0 0 107.7,38.0 M88.7,38.0 A6.3,6.3 0 0 0 101.3,38.0 M114.0,38.0 A19.0,19.0 0 0 0 152.0,38.0 M120.3,38.0 A12.7,12.7 0 0 0 145.7,38.0 M126.7,38.0 A6.3,6.3 0 0 0 139.3,38.0 M152.0,38.0 A19.0,19.0 0 0 0 190.0,38.0 M158.3,38.0 A12.7,12.7 0 0 0 183.7,38.0 M164.7,38.0 A6.3,6.3 0 0 0 177.3,38.0 M190.0,38.0 A19.0,19.0 0 0 0 228.0,38.0 M196.3,38.0 A12.7,12.7 0 0 0 221.7,38.0 M202.7,38.0 A6.3,6.3 0 0 0 215.3,38.0 M228.0,38.0 A19.0,19.0 0 0 0 266.0,38.0 M234.3,38.0 A12.7,12.7 0 0 0 259.7,38.0 M240.7,38.0 A6.3,6.3 0 0 0 253.3,38.0 M266.0,38.0 A19.0,19.0 0 0 0 304.0,38.0 M272.3,38.0 A12.7,12.7 0 0 0 297.7,38.0 M278.7,38.0 A6.3,6.3 0 0 0 291.3,38.0 M-19.0,57.0 A19.0,19.0 0 0 0 19.0,57.0 M-12.7,57.0 A12.7,12.7 0 0 0 12.7,57.0 M-6.3,57.0 A6.3,6.3 0 0 0 6.3,57.0 M19.0,57.0 A19.0,19.0 0 0 0 57.0,57.0 M25.3,57.0 A12.7,12.7 0 0 0 50.7,57.0 M31.7,57.0 A6.3,6.3 0 0 0 44.3,57.0 M57.0,57.0 A19.0,19.0 0 0 0 95.0,57.0 M63.3,57.0 A12.7,12.7 0 0 0 88.7,57.0 M69.7,57.0 A6.3,6.3 0 0 0 82.3,57.0 M95.0,57.0 A19.0,19.0 0 0 0 133.0,57.0 M101.3,57.0 A12.7,12.7 0 0 0 126.7,57.0 M107.7,57.0 A6.3,6.3 0 0 0 120.3,57.0 M133.0,57.0 A19.0,19.0 0 0 0 171.0,57.0 M139.3,57.0 A12.7,12.7 0 0 0 164.7,57.0 M145.7,57.0 A6.3,6.3 0 0 0 158.3,57.0 M171.0,57.0 A19.0,19.0 0 0 0 209.0,57.0 M177.3,57.0 A12.7,12.7 0 0 0 202.7,57.0 M183.7,57.0 A6.3,6.3 0 0 0 196.3,57.0 M209.0,57.0 A19.0,19.0 0 0 0 247.0,57.0 M215.3,57.0 A12.7,12.7 0 0 0 240.7,57.0 M221.7,57.0 A6.3,6.3 0 0 0 234.3,57.0 M247.0,57.0 A19.0,19.0 0 0 0 285.0,57.0 M253.3,57.0 A12.7,12.7 0 0 0 278.7,57.0 M259.7,57.0 A6.3,6.3 0 0 0 272.3,57.0 M285.0,57.0 A19.0,19.0 0 0 0 323.0,57.0 M291.3,57.0 A12.7,12.7 0 0 0 316.7,57.0 M297.7,57.0 A6.3,6.3 0 0 0 310.3,57.0 M-38.0,76.0 A19.0,19.0 0 0 0 0.0,76.0 M-31.7,76.0 A12.7,12.7 0 0 0 -6.3,76.0 M-25.3,76.0 A6.3,6.3 0 0 0 -12.7,76.0 M0.0,76.0 A19.0,19.0 0 0 0 38.0,76.0 M6.3,76.0 A12.7,12.7 0 0 0 31.7,76.0 M12.7,76.0 A6.3,6.3 0 0 0 25.3,76.0 M38.0,76.0 A19.0,19.0 0 0 0 76.0,76.0 M44.3,76.0 A12.7,12.7 0 0 0 69.7,76.0 M50.7,76.0 A6.3,6.3 0 0 0 63.3,76.0 M76.0,76.0 A19.0,19.0 0 0 0 114.0,76.0 M82.3,76.0 A12.7,12.7 0 0 0 107.7,76.0 M88.7,76.0 A6.3,6.3 0 0 0 101.3,76.0 M114.0,76.0 A19.0,19.0 0 0 0 152.0,76.0 M120.3,76.0 A12.7,12.7 0 0 0 145.7,76.0 M126.7,76.0 A6.3,6.3 0 0 0 139.3,76.0 M152.0,76.0 A19.0,19.0 0 0 0 190.0,76.0 M158.3,76.0 A12.7,12.7 0 0 0 183.7,76.0 M164.7,76.0 A6.3,6.3 0 0 0 177.3,76.0 M190.0,76.0 A19.0,19.0 0 0 0 228.0,76.0 M196.3,76.0 A12.7,12.7 0 0 0 221.7,76.0 M202.7,76.0 A6.3,6.3 0 0 0 215.3,76.0 M228.0,76.0 A19.0,19.0 0 0 0 266.0,76.0 M234.3,76.0 A12.7,12.7 0 0 0 259.7,76.0 M240.7,76.0 A6.3,6.3 0 0 0 253.3,76.0 M266.0,76.0 A19.0,19.0 0 0 0 304.0,76.0 M272.3,76.0 A12.7,12.7 0 0 0 297.7,76.0 M278.7,76.0 A6.3,6.3 0 0 0 291.3,76.0 M-19.0,95.0 A19.0,19.0 0 0 0 19.0,95.0 M-12.7,95.0 A12.7,12.7 0 0 0 12.7,95.0 M-6.3,95.0 A6.3,6.3 0 0 0 6.3,95.0 M19.0,95.0 A19.0,19.0 0 0 0 57.0,95.0 M25.3,95.0 A12.7,12.7 0 0 0 50.7,95.0 M31.7,95.0 A6.3,6.3 0 0 0 44.3,95.0 M57.0,95.0 A19.0,19.0 0 0 0 95.0,95.0 M63.3,95.0 A12.7,12.7 0 0 0 88.7,95.0 M69.7,95.0 A6.3,6.3 0 0 0 82.3,95.0 M95.0,95.0 A19.0,19.0 0 0 0 133.0,95.0 M101.3,95.0 A12.7,12.7 0 0 0 126.7,95.0 M107.7,95.0 A6.3,6.3 0 0 0 120.3,95.0 M133.0,95.0 A19.0,19.0 0 0 0 171.0,95.0 M139.3,95.0 A12.7,12.7 0 0 0 164.7,95.0 M145.7,95.0 A6.3,6.3 0 0 0 158.3,95.0 M171.0,95.0 A19.0,19.0 0 0 0 209.0,95.0 M177.3,95.0 A12.7,12.7 0 0 0 202.7,95.0 M183.7,95.0 A6.3,6.3 0 0 0 196.3,95.0 M209.0,95.0 A19.0,19.0 0 0 0 247.0,95.0 M215.3,95.0 A12.7,12.7 0 0 0 240.7,95.0 M221.7,95.0 A6.3,6.3 0 0 0 234.3,95.0 M247.0,95.0 A19.0,19.0 0 0 0 285.0,95.0 M253.3,95.0 A12.7,12.7 0 0 0 278.7,95.0 M259.7,95.0 A6.3,6.3 0 0 0 272.3,95.0 M285.0,95.0 A19.0,19.0 0 0 0 323.0,95.0 M291.3,95.0 A12.7,12.7 0 0 0 316.7,95.0 M297.7,95.0 A6.3,6.3 0 0 0 310.3,95.0 M-38.0,114.0 A19.0,19.0 0 0 0 0.0,114.0 M-31.7,114.0 A12.7,12.7 0 0 0 -6.3,114.0 M-25.3,114.0 A6.3,6.3 0 0 0 -12.7,114.0 M0.0,114.0 A19.0,19.0 0 0 0 38.0,114.0 M6.3,114.0 A12.7,12.7 0 0 0 31.7,114.0 M12.7,114.0 A6.3,6.3 0 0 0 25.3,114.0 M38.0,114.0 A19.0,19.0 0 0 0 76.0,114.0 M44.3,114.0 A12.7,12.7 0 0 0 69.7,114.0 M50.7,114.0 A6.3,6.3 0 0 0 63.3,114.0 M76.0,114.0 A19.0,19.0 0 0 0 114.0,114.0 M82.3,114.0 A12.7,12.7 0 0 0 107.7,114.0 M88.7,114.0 A6.3,6.3 0 0 0 101.3,114.0 M114.0,114.0 A19.0,19.0 0 0 0 152.0,114.0 M120.3,114.0 A12.7,12.7 0 0 0 145.7,114.0 M126.7,114.0 A6.3,6.3 0 0 0 139.3,114.0 M152.0,114.0 A19.0,19.0 0 0 0 190.0,114.0 M158.3,114.0 A12.7,12.7 0 0 0 183.7,114.0 M164.7,114.0 A6.3,6.3 0 0 0 177.3,114.0 M190.0,114.0 A19.0,19.0 0 0 0 228.0,114.0 M196.3,114.0 A12.7,12.7 0 0 0 221.7,114.0 M202.7,114.0 A6.3,6.3 0 0 0 215.3,114.0 M228.0,114.0 A19.0,19.0 0 0 0 266.0,114.0 M234.3,114.0 A12.7,12.7 0 0 0 259.7,114.0 M240.7,114.0 A6.3,6.3 0 0 0 253.3,114.0 M266.0,114.0 A19.0,19.0 0 0 0 304.0,114.0 M272.3,114.0 A12.7,12.7 0 0 0 297.7,114.0 M278.7,114.0 A6.3,6.3 0 0 0 291.3,114.0 M-19.0,133.0 A19.0,19.0 0 0 0 19.0,133.0 M-12.7,133.0 A12.7,12.7 0 0 0 12.7,133.0 M-6.3,133.0 A6.3,6.3 0 0 0 6.3,133.0 M19.0,133.0 A19.0,19.0 0 0 0 57.0,133.0 M25.3,133.0 A12.7,12.7 0 0 0 50.7,133.0 M31.7,133.0 A6.3,6.3 0 0 0 44.3,133.0 M57.0,133.0 A19.0,19.0 0 0 0 95.0,133.0 M63.3,133.0 A12.7,12.7 0 0 0 88.7,133.0 M69.7,133.0 A6.3,6.3 0 0 0 82.3,133.0 M95.0,133.0 A19.0,19.0 0 0 0 133.0,133.0 M101.3,133.0 A12.7,12.7 0 0 0 126.7,133.0 M107.7,133.0 A6.3,6.3 0 0 0 120.3,133.0 M133.0,133.0 A19.0,19.0 0 0 0 171.0,133.0 M139.3,133.0 A12.7,12.7 0 0 0 164.7,133.0 M145.7,133.0 A6.3,6.3 0 0 0 158.3,133.0 M171.0,133.0 A19.0,19.0 0 0 0 209.0,133.0 M177.3,133.0 A12.7,12.7 0 0 0 202.7,133.0 M183.7,133.0 A6.3,6.3 0 0 0 196.3,133.0 M209.0,133.0 A19.0,19.0 0 0 0 247.0,133.0 M215.3,133.0 A12.7,12.7 0 0 0 240.7,133.0 M221.7,133.0 A6.3,6.3 0 0 0 234.3,133.0 M247.0,133.0 A19.0,19.0 0 0 0 285.0,133.0 M253.3,133.0 A12.7,12.7 0 0 0 278.7,133.0 M259.7,133.0 A6.3,6.3 0 0 0 272.3,133.0 M285.0,133.0 A19.0,19.0 0 0 0 323.0,133.0 M291.3,133.0 A12.7,12.7 0 0 0 316.7,133.0 M297.7,133.0 A6.3,6.3 0 0 0 310.3,133.0 M-38.0,152.0 A19.0,19.0 0 0 0 0.0,152.0 M-31.7,152.0 A12.7,12.7 0 0 0 -6.3,152.0 M-25.3,152.0 A6.3,6.3 0 0 0 -12.7,152.0 M0.0,152.0 A19.0,19.0 0 0 0 38.0,152.0 M6.3,152.0 A12.7,12.7 0 0 0 31.7,152.0 M12.7,152.0 A6.3,6.3 0 0 0 25.3,152.0 M38.0,152.0 A19.0,19.0 0 0 0 76.0,152.0 M44.3,152.0 A12.7,12.7 0 0 0 69.7,152.0 M50.7,152.0 A6.3,6.3 0 0 0 63.3,152.0 M76.0,152.0 A19.0,19.0 0 0 0 114.0,152.0 M82.3,152.0 A12.7,12.7 0 0 0 107.7,152.0 M88.7,152.0 A6.3,6.3 0 0 0 101.3,152.0 M114.0,152.0 A19.0,19.0 0 0 0 152.0,152.0 M120.3,152.0 A12.7,12.7 0 0 0 145.7,152.0 M126.7,152.0 A6.3,6.3 0 0 0 139.3,152.0 M152.0,152.0 A19.0,19.0 0 0 0 190.0,152.0 M158.3,152.0 A12.7,12.7 0 0 0 183.7,152.0 M164.7,152.0 A6.3,6.3 0 0 0 177.3,152.0 M190.0,152.0 A19.0,19.0 0 0 0 228.0,152.0 M196.3,152.0 A12.7,12.7 0 0 0 221.7,152.0 M202.7,152.0 A6.3,6.3 0 0 0 215.3,152.0 M228.0,152.0 A19.0,19.0 0 0 0 266.0,152.0 M234.3,152.0 A12.7,12.7 0 0 0 259.7,152.0 M240.7,152.0 A6.3,6.3 0 0 0 253.3,152.0 M266.0,152.0 A19.0,19.0 0 0 0 304.0,152.0 M272.3,152.0 A12.7,12.7 0 0 0 297.7,152.0 M278.7,152.0 A6.3,6.3 0 0 0 291.3,152.0"/></g></g></g><text x="638.0" y="183" text-anchor="middle" font-size="14" font-weight="600" fill="#3a2a1a">matcha</text><clipPath id="c3"><rect x="772" y="22" width="232" height="140" rx="8"/></clipPath><g clip-path="url(#c3)"><g transform="translate(772,22)"><rect width="232" height="140" fill="#8b7860"/><g fill="none" stroke="#62503e" stroke-width="1.6" opacity="0.6"><path d="M-38.0,0.0 A19.0,19.0 0 0 0 0.0,0.0 M-31.7,0.0 A12.7,12.7 0 0 0 -6.3,0.0 M-25.3,0.0 A6.3,6.3 0 0 0 -12.7,0.0 M0.0,0.0 A19.0,19.0 0 0 0 38.0,0.0 M6.3,0.0 A12.7,12.7 0 0 0 31.7,0.0 M12.7,0.0 A6.3,6.3 0 0 0 25.3,0.0 M38.0,0.0 A19.0,19.0 0 0 0 76.0,0.0 M44.3,0.0 A12.7,12.7 0 0 0 69.7,0.0 M50.7,0.0 A6.3,6.3 0 0 0 63.3,0.0 M76.0,0.0 A19.0,19.0 0 0 0 114.0,0.0 M82.3,0.0 A12.7,12.7 0 0 0 107.7,0.0 M88.7,0.0 A6.3,6.3 0 0 0 101.3,0.0 M114.0,0.0 A19.0,19.0 0 0 0 152.0,0.0 M120.3,0.0 A12.7,12.7 0 0 0 145.7,0.0 M126.7,0.0 A6.3,6.3 0 0 0 139.3,0.0 M152.0,0.0 A19.0,19.0 0 0 0 190.0,0.0 M158.3,0.0 A12.7,12.7 0 0 0 183.7,0.0 M164.7,0.0 A6.3,6.3 0 0 0 177.3,0.0 M190.0,0.0 A19.0,19.0 0 0 0 228.0,0.0 M196.3,0.0 A12.7,12.7 0 0 0 221.7,0.0 M202.7,0.0 A6.3,6.3 0 0 0 215.3,0.0 M228.0,0.0 A19.0,19.0 0 0 0 266.0,0.0 M234.3,0.0 A12.7,12.7 0 0 0 259.7,0.0 M240.7,0.0 A6.3,6.3 0 0 0 253.3,0.0 M266.0,0.0 A19.0,19.0 0 0 0 304.0,0.0 M272.3,0.0 A12.7,12.7 0 0 0 297.7,0.0 M278.7,0.0 A6.3,6.3 0 0 0 291.3,0.0 M-19.0,19.0 A19.0,19.0 0 0 0 19.0,19.0 M-12.7,19.0 A12.7,12.7 0 0 0 12.7,19.0 M-6.3,19.0 A6.3,6.3 0 0 0 6.3,19.0 M19.0,19.0 A19.0,19.0 0 0 0 57.0,19.0 M25.3,19.0 A12.7,12.7 0 0 0 50.7,19.0 M31.7,19.0 A6.3,6.3 0 0 0 44.3,19.0 M57.0,19.0 A19.0,19.0 0 0 0 95.0,19.0 M63.3,19.0 A12.7,12.7 0 0 0 88.7,19.0 M69.7,19.0 A6.3,6.3 0 0 0 82.3,19.0 M95.0,19.0 A19.0,19.0 0 0 0 133.0,19.0 M101.3,19.0 A12.7,12.7 0 0 0 126.7,19.0 M107.7,19.0 A6.3,6.3 0 0 0 120.3,19.0 M133.0,19.0 A19.0,19.0 0 0 0 171.0,19.0 M139.3,19.0 A12.7,12.7 0 0 0 164.7,19.0 M145.7,19.0 A6.3,6.3 0 0 0 158.3,19.0 M171.0,19.0 A19.0,19.0 0 0 0 209.0,19.0 M177.3,19.0 A12.7,12.7 0 0 0 202.7,19.0 M183.7,19.0 A6.3,6.3 0 0 0 196.3,19.0 M209.0,19.0 A19.0,19.0 0 0 0 247.0,19.0 M215.3,19.0 A12.7,12.7 0 0 0 240.7,19.0 M221.7,19.0 A6.3,6.3 0 0 0 234.3,19.0 M247.0,19.0 A19.0,19.0 0 0 0 285.0,19.0 M253.3,19.0 A12.7,12.7 0 0 0 278.7,19.0 M259.7,19.0 A6.3,6.3 0 0 0 272.3,19.0 M285.0,19.0 A19.0,19.0 0 0 0 323.0,19.0 M291.3,19.0 A12.7,12.7 0 0 0 316.7,19.0 M297.7,19.0 A6.3,6.3 0 0 0 310.3,19.0 M-38.0,38.0 A19.0,19.0 0 0 0 0.0,38.0 M-31.7,38.0 A12.7,12.7 0 0 0 -6.3,38.0 M-25.3,38.0 A6.3,6.3 0 0 0 -12.7,38.0 M0.0,38.0 A19.0,19.0 0 0 0 38.0,38.0 M6.3,38.0 A12.7,12.7 0 0 0 31.7,38.0 M12.7,38.0 A6.3,6.3 0 0 0 25.3,38.0 M38.0,38.0 A19.0,19.0 0 0 0 76.0,38.0 M44.3,38.0 A12.7,12.7 0 0 0 69.7,38.0 M50.7,38.0 A6.3,6.3 0 0 0 63.3,38.0 M76.0,38.0 A19.0,19.0 0 0 0 114.0,38.0 M82.3,38.0 A12.7,12.7 0 0 0 107.7,38.0 M88.7,38.0 A6.3,6.3 0 0 0 101.3,38.0 M114.0,38.0 A19.0,19.0 0 0 0 152.0,38.0 M120.3,38.0 A12.7,12.7 0 0 0 145.7,38.0 M126.7,38.0 A6.3,6.3 0 0 0 139.3,38.0 M152.0,38.0 A19.0,19.0 0 0 0 190.0,38.0 M158.3,38.0 A12.7,12.7 0 0 0 183.7,38.0 M164.7,38.0 A6.3,6.3 0 0 0 177.3,38.0 M190.0,38.0 A19.0,19.0 0 0 0 228.0,38.0 M196.3,38.0 A12.7,12.7 0 0 0 221.7,38.0 M202.7,38.0 A6.3,6.3 0 0 0 215.3,38.0 M228.0,38.0 A19.0,19.0 0 0 0 266.0,38.0 M234.3,38.0 A12.7,12.7 0 0 0 259.7,38.0 M240.7,38.0 A6.3,6.3 0 0 0 253.3,38.0 M266.0,38.0 A19.0,19.0 0 0 0 304.0,38.0 M272.3,38.0 A12.7,12.7 0 0 0 297.7,38.0 M278.7,38.0 A6.3,6.3 0 0 0 291.3,38.0 M-19.0,57.0 A19.0,19.0 0 0 0 19.0,57.0 M-12.7,57.0 A12.7,12.7 0 0 0 12.7,57.0 M-6.3,57.0 A6.3,6.3 0 0 0 6.3,57.0 M19.0,57.0 A19.0,19.0 0 0 0 57.0,57.0 M25.3,57.0 A12.7,12.7 0 0 0 50.7,57.0 M31.7,57.0 A6.3,6.3 0 0 0 44.3,57.0 M57.0,57.0 A19.0,19.0 0 0 0 95.0,57.0 M63.3,57.0 A12.7,12.7 0 0 0 88.7,57.0 M69.7,57.0 A6.3,6.3 0 0 0 82.3,57.0 M95.0,57.0 A19.0,19.0 0 0 0 133.0,57.0 M101.3,57.0 A12.7,12.7 0 0 0 126.7,57.0 M107.7,57.0 A6.3,6.3 0 0 0 120.3,57.0 M133.0,57.0 A19.0,19.0 0 0 0 171.0,57.0 M139.3,57.0 A12.7,12.7 0 0 0 164.7,57.0 M145.7,57.0 A6.3,6.3 0 0 0 158.3,57.0 M171.0,57.0 A19.0,19.0 0 0 0 209.0,57.0 M177.3,57.0 A12.7,12.7 0 0 0 202.7,57.0 M183.7,57.0 A6.3,6.3 0 0 0 196.3,57.0 M209.0,57.0 A19.0,19.0 0 0 0 247.0,57.0 M215.3,57.0 A12.7,12.7 0 0 0 240.7,57.0 M221.7,57.0 A6.3,6.3 0 0 0 234.3,57.0 M247.0,57.0 A19.0,19.0 0 0 0 285.0,57.0 M253.3,57.0 A12.7,12.7 0 0 0 278.7,57.0 M259.7,57.0 A6.3,6.3 0 0 0 272.3,57.0 M285.0,57.0 A19.0,19.0 0 0 0 323.0,57.0 M291.3,57.0 A12.7,12.7 0 0 0 316.7,57.0 M297.7,57.0 A6.3,6.3 0 0 0 310.3,57.0 M-38.0,76.0 A19.0,19.0 0 0 0 0.0,76.0 M-31.7,76.0 A12.7,12.7 0 0 0 -6.3,76.0 M-25.3,76.0 A6.3,6.3 0 0 0 -12.7,76.0 M0.0,76.0 A19.0,19.0 0 0 0 38.0,76.0 M6.3,76.0 A12.7,12.7 0 0 0 31.7,76.0 M12.7,76.0 A6.3,6.3 0 0 0 25.3,76.0 M38.0,76.0 A19.0,19.0 0 0 0 76.0,76.0 M44.3,76.0 A12.7,12.7 0 0 0 69.7,76.0 M50.7,76.0 A6.3,6.3 0 0 0 63.3,76.0 M76.0,76.0 A19.0,19.0 0 0 0 114.0,76.0 M82.3,76.0 A12.7,12.7 0 0 0 107.7,76.0 M88.7,76.0 A6.3,6.3 0 0 0 101.3,76.0 M114.0,76.0 A19.0,19.0 0 0 0 152.0,76.0 M120.3,76.0 A12.7,12.7 0 0 0 145.7,76.0 M126.7,76.0 A6.3,6.3 0 0 0 139.3,76.0 M152.0,76.0 A19.0,19.0 0 0 0 190.0,76.0 M158.3,76.0 A12.7,12.7 0 0 0 183.7,76.0 M164.7,76.0 A6.3,6.3 0 0 0 177.3,76.0 M190.0,76.0 A19.0,19.0 0 0 0 228.0,76.0 M196.3,76.0 A12.7,12.7 0 0 0 221.7,76.0 M202.7,76.0 A6.3,6.3 0 0 0 215.3,76.0 M228.0,76.0 A19.0,19.0 0 0 0 266.0,76.0 M234.3,76.0 A12.7,12.7 0 0 0 259.7,76.0 M240.7,76.0 A6.3,6.3 0 0 0 253.3,76.0 M266.0,76.0 A19.0,19.0 0 0 0 304.0,76.0 M272.3,76.0 A12.7,12.7 0 0 0 297.7,76.0 M278.7,76.0 A6.3,6.3 0 0 0 291.3,76.0 M-19.0,95.0 A19.0,19.0 0 0 0 19.0,95.0 M-12.7,95.0 A12.7,12.7 0 0 0 12.7,95.0 M-6.3,95.0 A6.3,6.3 0 0 0 6.3,95.0 M19.0,95.0 A19.0,19.0 0 0 0 57.0,95.0 M25.3,95.0 A12.7,12.7 0 0 0 50.7,95.0 M31.7,95.0 A6.3,6.3 0 0 0 44.3,95.0 M57.0,95.0 A19.0,19.0 0 0 0 95.0,95.0 M63.3,95.0 A12.7,12.7 0 0 0 88.7,95.0 M69.7,95.0 A6.3,6.3 0 0 0 82.3,95.0 M95.0,95.0 A19.0,19.0 0 0 0 133.0,95.0 M101.3,95.0 A12.7,12.7 0 0 0 126.7,95.0 M107.7,95.0 A6.3,6.3 0 0 0 120.3,95.0 M133.0,95.0 A19.0,19.0 0 0 0 171.0,95.0 M139.3,95.0 A12.7,12.7 0 0 0 164.7,95.0 M145.7,95.0 A6.3,6.3 0 0 0 158.3,95.0 M171.0,95.0 A19.0,19.0 0 0 0 209.0,95.0 M177.3,95.0 A12.7,12.7 0 0 0 202.7,95.0 M183.7,95.0 A6.3,6.3 0 0 0 196.3,95.0 M209.0,95.0 A19.0,19.0 0 0 0 247.0,95.0 M215.3,95.0 A12.7,12.7 0 0 0 240.7,95.0 M221.7,95.0 A6.3,6.3 0 0 0 234.3,95.0 M247.0,95.0 A19.0,19.0 0 0 0 285.0,95.0 M253.3,95.0 A12.7,12.7 0 0 0 278.7,95.0 M259.7,95.0 A6.3,6.3 0 0 0 272.3,95.0 M285.0,95.0 A19.0,19.0 0 0 0 323.0,95.0 M291.3,95.0 A12.7,12.7 0 0 0 316.7,95.0 M297.7,95.0 A6.3,6.3 0 0 0 310.3,95.0 M-38.0,114.0 A19.0,19.0 0 0 0 0.0,114.0 M-31.7,114.0 A12.7,12.7 0 0 0 -6.3,114.0 M-25.3,114.0 A6.3,6.3 0 0 0 -12.7,114.0 M0.0,114.0 A19.0,19.0 0 0 0 38.0,114.0 M6.3,114.0 A12.7,12.7 0 0 0 31.7,114.0 M12.7,114.0 A6.3,6.3 0 0 0 25.3,114.0 M38.0,114.0 A19.0,19.0 0 0 0 76.0,114.0 M44.3,114.0 A12.7,12.7 0 0 0 69.7,114.0 M50.7,114.0 A6.3,6.3 0 0 0 63.3,114.0 M76.0,114.0 A19.0,19.0 0 0 0 114.0,114.0 M82.3,114.0 A12.7,12.7 0 0 0 107.7,114.0 M88.7,114.0 A6.3,6.3 0 0 0 101.3,114.0 M114.0,114.0 A19.0,19.0 0 0 0 152.0,114.0 M120.3,114.0 A12.7,12.7 0 0 0 145.7,114.0 M126.7,114.0 A6.3,6.3 0 0 0 139.3,114.0 M152.0,114.0 A19.0,19.0 0 0 0 190.0,114.0 M158.3,114.0 A12.7,12.7 0 0 0 183.7,114.0 M164.7,114.0 A6.3,6.3 0 0 0 177.3,114.0 M190.0,114.0 A19.0,19.0 0 0 0 228.0,114.0 M196.3,114.0 A12.7,12.7 0 0 0 221.7,114.0 M202.7,114.0 A6.3,6.3 0 0 0 215.3,114.0 M228.0,114.0 A19.0,19.0 0 0 0 266.0,114.0 M234.3,114.0 A12.7,12.7 0 0 0 259.7,114.0 M240.7,114.0 A6.3,6.3 0 0 0 253.3,114.0 M266.0,114.0 A19.0,19.0 0 0 0 304.0,114.0 M272.3,114.0 A12.7,12.7 0 0 0 297.7,114.0 M278.7,114.0 A6.3,6.3 0 0 0 291.3,114.0 M-19.0,133.0 A19.0,19.0 0 0 0 19.0,133.0 M-12.7,133.0 A12.7,12.7 0 0 0 12.7,133.0 M-6.3,133.0 A6.3,6.3 0 0 0 6.3,133.0 M19.0,133.0 A19.0,19.0 0 0 0 57.0,133.0 M25.3,133.0 A12.7,12.7 0 0 0 50.7,133.0 M31.7,133.0 A6.3,6.3 0 0 0 44.3,133.0 M57.0,133.0 A19.0,19.0 0 0 0 95.0,133.0 M63.3,133.0 A12.7,12.7 0 0 0 88.7,133.0 M69.7,133.0 A6.3,6.3 0 0 0 82.3,133.0 M95.0,133.0 A19.0,19.0 0 0 0 133.0,133.0 M101.3,133.0 A12.7,12.7 0 0 0 126.7,133.0 M107.7,133.0 A6.3,6.3 0 0 0 120.3,133.0 M133.0,133.0 A19.0,19.0 0 0 0 171.0,133.0 M139.3,133.0 A12.7,12.7 0 0 0 164.7,133.0 M145.7,133.0 A6.3,6.3 0 0 0 158.3,133.0 M171.0,133.0 A19.0,19.0 0 0 0 209.0,133.0 M177.3,133.0 A12.7,12.7 0 0 0 202.7,133.0 M183.7,133.0 A6.3,6.3 0 0 0 196.3,133.0 M209.0,133.0 A19.0,19.0 0 0 0 247.0,133.0 M215.3,133.0 A12.7,12.7 0 0 0 240.7,133.0 M221.7,133.0 A6.3,6.3 0 0 0 234.3,133.0 M247.0,133.0 A19.0,19.0 0 0 0 285.0,133.0 M253.3,133.0 A12.7,12.7 0 0 0 278.7,133.0 M259.7,133.0 A6.3,6.3 0 0 0 272.3,133.0 M285.0,133.0 A19.0,19.0 0 0 0 323.0,133.0 M291.3,133.0 A12.7,12.7 0 0 0 316.7,133.0 M297.7,133.0 A6.3,6.3 0 0 0 310.3,133.0 M-38.0,152.0 A19.0,19.0 0 0 0 0.0,152.0 M-31.7,152.0 A12.7,12.7 0 0 0 -6.3,152.0 M-25.3,152.0 A6.3,6.3 0 0 0 -12.7,152.0 M0.0,152.0 A19.0,19.0 0 0 0 38.0,152.0 M6.3,152.0 A12.7,12.7 0 0 0 31.7,152.0 M12.7,152.0 A6.3,6.3 0 0 0 25.3,152.0 M38.0,152.0 A19.0,19.0 0 0 0 76.0,152.0 M44.3,152.0 A12.7,12.7 0 0 0 69.7,152.0 M50.7,152.0 A6.3,6.3 0 0 0 63.3,152.0 M76.0,152.0 A19.0,19.0 0 0 0 114.0,152.0 M82.3,152.0 A12.7,12.7 0 0 0 107.7,152.0 M88.7,152.0 A6.3,6.3 0 0 0 101.3,152.0 M114.0,152.0 A19.0,19.0 0 0 0 152.0,152.0 M120.3,152.0 A12.7,12.7 0 0 0 145.7,152.0 M126.7,152.0 A6.3,6.3 0 0 0 139.3,152.0 M152.0,152.0 A19.0,19.0 0 0 0 190.0,152.0 M158.3,152.0 A12.7,12.7 0 0 0 183.7,152.0 M164.7,152.0 A6.3,6.3 0 0 0 177.3,152.0 M190.0,152.0 A19.0,19.0 0 0 0 228.0,152.0 M196.3,152.0 A12.7,12.7 0 0 0 221.7,152.0 M202.7,152.0 A6.3,6.3 0 0 0 215.3,152.0 M228.0,152.0 A19.0,19.0 0 0 0 266.0,152.0 M234.3,152.0 A12.7,12.7 0 0 0 259.7,152.0 M240.7,152.0 A6.3,6.3 0 0 0 253.3,152.0 M266.0,152.0 A19.0,19.0 0 0 0 304.0,152.0 M272.3,152.0 A12.7,12.7 0 0 0 297.7,152.0 M278.7,152.0 A6.3,6.3 0 0 0 291.3,152.0"/></g></g></g><text x="888.0" y="183" text-anchor="middle" font-size="14" font-weight="600" fill="#3a2a1a">washi</text><clipPath id="c4"><rect x="1022" y="22" width="232" height="140" rx="8"/></clipPath><g clip-path="url(#c4)"><g transform="translate(1022,22)"><rect width="232" height="140" fill="#2a5a72"/><g fill="none" stroke="#95afbe" stroke-width="1.6" opacity="0.6"><path d="M-38.0,0.0 A19.0,19.0 0 0 0 0.0,0.0 M-31.7,0.0 A12.7,12.7 0 0 0 -6.3,0.0 M-25.3,0.0 A6.3,6.3 0 0 0 -12.7,0.0 M0.0,0.0 A19.0,19.0 0 0 0 38.0,0.0 M6.3,0.0 A12.7,12.7 0 0 0 31.7,0.0 M12.7,0.0 A6.3,6.3 0 0 0 25.3,0.0 M38.0,0.0 A19.0,19.0 0 0 0 76.0,0.0 M44.3,0.0 A12.7,12.7 0 0 0 69.7,0.0 M50.7,0.0 A6.3,6.3 0 0 0 63.3,0.0 M76.0,0.0 A19.0,19.0 0 0 0 114.0,0.0 M82.3,0.0 A12.7,12.7 0 0 0 107.7,0.0 M88.7,0.0 A6.3,6.3 0 0 0 101.3,0.0 M114.0,0.0 A19.0,19.0 0 0 0 152.0,0.0 M120.3,0.0 A12.7,12.7 0 0 0 145.7,0.0 M126.7,0.0 A6.3,6.3 0 0 0 139.3,0.0 M152.0,0.0 A19.0,19.0 0 0 0 190.0,0.0 M158.3,0.0 A12.7,12.7 0 0 0 183.7,0.0 M164.7,0.0 A6.3,6.3 0 0 0 177.3,0.0 M190.0,0.0 A19.0,19.0 0 0 0 228.0,0.0 M196.3,0.0 A12.7,12.7 0 0 0 221.7,0.0 M202.7,0.0 A6.3,6.3 0 0 0 215.3,0.0 M228.0,0.0 A19.0,19.0 0 0 0 266.0,0.0 M234.3,0.0 A12.7,12.7 0 0 0 259.7,0.0 M240.7,0.0 A6.3,6.3 0 0 0 253.3,0.0 M266.0,0.0 A19.0,19.0 0 0 0 304.0,0.0 M272.3,0.0 A12.7,12.7 0 0 0 297.7,0.0 M278.7,0.0 A6.3,6.3 0 0 0 291.3,0.0 M-19.0,19.0 A19.0,19.0 0 0 0 19.0,19.0 M-12.7,19.0 A12.7,12.7 0 0 0 12.7,19.0 M-6.3,19.0 A6.3,6.3 0 0 0 6.3,19.0 M19.0,19.0 A19.0,19.0 0 0 0 57.0,19.0 M25.3,19.0 A12.7,12.7 0 0 0 50.7,19.0 M31.7,19.0 A6.3,6.3 0 0 0 44.3,19.0 M57.0,19.0 A19.0,19.0 0 0 0 95.0,19.0 M63.3,19.0 A12.7,12.7 0 0 0 88.7,19.0 M69.7,19.0 A6.3,6.3 0 0 0 82.3,19.0 M95.0,19.0 A19.0,19.0 0 0 0 133.0,19.0 M101.3,19.0 A12.7,12.7 0 0 0 126.7,19.0 M107.7,19.0 A6.3,6.3 0 0 0 120.3,19.0 M133.0,19.0 A19.0,19.0 0 0 0 171.0,19.0 M139.3,19.0 A12.7,12.7 0 0 0 164.7,19.0 M145.7,19.0 A6.3,6.3 0 0 0 158.3,19.0 M171.0,19.0 A19.0,19.0 0 0 0 209.0,19.0 M177.3,19.0 A12.7,12.7 0 0 0 202.7,19.0 M183.7,19.0 A6.3,6.3 0 0 0 196.3,19.0 M209.0,19.0 A19.0,19.0 0 0 0 247.0,19.0 M215.3,19.0 A12.7,12.7 0 0 0 240.7,19.0 M221.7,19.0 A6.3,6.3 0 0 0 234.3,19.0 M247.0,19.0 A19.0,19.0 0 0 0 285.0,19.0 M253.3,19.0 A12.7,12.7 0 0 0 278.7,19.0 M259.7,19.0 A6.3,6.3 0 0 0 272.3,19.0 M285.0,19.0 A19.0,19.0 0 0 0 323.0,19.0 M291.3,19.0 A12.7,12.7 0 0 0 316.7,19.0 M297.7,19.0 A6.3,6.3 0 0 0 310.3,19.0 M-38.0,38.0 A19.0,19.0 0 0 0 0.0,38.0 M-31.7,38.0 A12.7,12.7 0 0 0 -6.3,38.0 M-25.3,38.0 A6.3,6.3 0 0 0 -12.7,38.0 M0.0,38.0 A19.0,19.0 0 0 0 38.0,38.0 M6.3,38.0 A12.7,12.7 0 0 0 31.7,38.0 M12.7,38.0 A6.3,6.3 0 0 0 25.3,38.0 M38.0,38.0 A19.0,19.0 0 0 0 76.0,38.0 M44.3,38.0 A12.7,12.7 0 0 0 69.7,38.0 M50.7,38.0 A6.3,6.3 0 0 0 63.3,38.0 M76.0,38.0 A19.0,19.0 0 0 0 114.0,38.0 M82.3,38.0 A12.7,12.7 0 0 0 107.7,38.0 M88.7,38.0 A6.3,6.3 0 0 0 101.3,38.0 M114.0,38.0 A19.0,19.0 0 0 0 152.0,38.0 M120.3,38.0 A12.7,12.7 0 0 0 145.7,38.0 M126.7,38.0 A6.3,6.3 0 0 0 139.3,38.0 M152.0,38.0 A19.0,19.0 0 0 0 190.0,38.0 M158.3,38.0 A12.7,12.7 0 0 0 183.7,38.0 M164.7,38.0 A6.3,6.3 0 0 0 177.3,38.0 M190.0,38.0 A19.0,19.0 0 0 0 228.0,38.0 M196.3,38.0 A12.7,12.7 0 0 0 221.7,38.0 M202.7,38.0 A6.3,6.3 0 0 0 215.3,38.0 M228.0,38.0 A19.0,19.0 0 0 0 266.0,38.0 M234.3,38.0 A12.7,12.7 0 0 0 259.7,38.0 M240.7,38.0 A6.3,6.3 0 0 0 253.3,38.0 M266.0,38.0 A19.0,19.0 0 0 0 304.0,38.0 M272.3,38.0 A12.7,12.7 0 0 0 297.7,38.0 M278.7,38.0 A6.3,6.3 0 0 0 291.3,38.0 M-19.0,57.0 A19.0,19.0 0 0 0 19.0,57.0 M-12.7,57.0 A12.7,12.7 0 0 0 12.7,57.0 M-6.3,57.0 A6.3,6.3 0 0 0 6.3,57.0 M19.0,57.0 A19.0,19.0 0 0 0 57.0,57.0 M25.3,57.0 A12.7,12.7 0 0 0 50.7,57.0 M31.7,57.0 A6.3,6.3 0 0 0 44.3,57.0 M57.0,57.0 A19.0,19.0 0 0 0 95.0,57.0 M63.3,57.0 A12.7,12.7 0 0 0 88.7,57.0 M69.7,57.0 A6.3,6.3 0 0 0 82.3,57.0 M95.0,57.0 A19.0,19.0 0 0 0 133.0,57.0 M101.3,57.0 A12.7,12.7 0 0 0 126.7,57.0 M107.7,57.0 A6.3,6.3 0 0 0 120.3,57.0 M133.0,57.0 A19.0,19.0 0 0 0 171.0,57.0 M139.3,57.0 A12.7,12.7 0 0 0 164.7,57.0 M145.7,57.0 A6.3,6.3 0 0 0 158.3,57.0 M171.0,57.0 A19.0,19.0 0 0 0 209.0,57.0 M177.3,57.0 A12.7,12.7 0 0 0 202.7,57.0 M183.7,57.0 A6.3,6.3 0 0 0 196.3,57.0 M209.0,57.0 A19.0,19.0 0 0 0 247.0,57.0 M215.3,57.0 A12.7,12.7 0 0 0 240.7,57.0 M221.7,57.0 A6.3,6.3 0 0 0 234.3,57.0 M247.0,57.0 A19.0,19.0 0 0 0 285.0,57.0 M253.3,57.0 A12.7,12.7 0 0 0 278.7,57.0 M259.7,57.0 A6.3,6.3 0 0 0 272.3,57.0 M285.0,57.0 A19.0,19.0 0 0 0 323.0,57.0 M291.3,57.0 A12.7,12.7 0 0 0 316.7,57.0 M297.7,57.0 A6.3,6.3 0 0 0 310.3,57.0 M-38.0,76.0 A19.0,19.0 0 0 0 0.0,76.0 M-31.7,76.0 A12.7,12.7 0 0 0 -6.3,76.0 M-25.3,76.0 A6.3,6.3 0 0 0 -12.7,76.0 M0.0,76.0 A19.0,19.0 0 0 0 38.0,76.0 M6.3,76.0 A12.7,12.7 0 0 0 31.7,76.0 M12.7,76.0 A6.3,6.3 0 0 0 25.3,76.0 M38.0,76.0 A19.0,19.0 0 0 0 76.0,76.0 M44.3,76.0 A12.7,12.7 0 0 0 69.7,76.0 M50.7,76.0 A6.3,6.3 0 0 0 63.3,76.0 M76.0,76.0 A19.0,19.0 0 0 0 114.0,76.0 M82.3,76.0 A12.7,12.7 0 0 0 107.7,76.0 M88.7,76.0 A6.3,6.3 0 0 0 101.3,76.0 M114.0,76.0 A19.0,19.0 0 0 0 152.0,76.0 M120.3,76.0 A12.7,12.7 0 0 0 145.7,76.0 M126.7,76.0 A6.3,6.3 0 0 0 139.3,76.0 M152.0,76.0 A19.0,19.0 0 0 0 190.0,76.0 M158.3,76.0 A12.7,12.7 0 0 0 183.7,76.0 M164.7,76.0 A6.3,6.3 0 0 0 177.3,76.0 M190.0,76.0 A19.0,19.0 0 0 0 228.0,76.0 M196.3,76.0 A12.7,12.7 0 0 0 221.7,76.0 M202.7,76.0 A6.3,6.3 0 0 0 215.3,76.0 M228.0,76.0 A19.0,19.0 0 0 0 266.0,76.0 M234.3,76.0 A12.7,12.7 0 0 0 259.7,76.0 M240.7,76.0 A6.3,6.3 0 0 0 253.3,76.0 M266.0,76.0 A19.0,19.0 0 0 0 304.0,76.0 M272.3,76.0 A12.7,12.7 0 0 0 297.7,76.0 M278.7,76.0 A6.3,6.3 0 0 0 291.3,76.0 M-19.0,95.0 A19.0,19.0 0 0 0 19.0,95.0 M-12.7,95.0 A12.7,12.7 0 0 0 12.7,95.0 M-6.3,95.0 A6.3,6.3 0 0 0 6.3,95.0 M19.0,95.0 A19.0,19.0 0 0 0 57.0,95.0 M25.3,95.0 A12.7,12.7 0 0 0 50.7,95.0 M31.7,95.0 A6.3,6.3 0 0 0 44.3,95.0 M57.0,95.0 A19.0,19.0 0 0 0 95.0,95.0 M63.3,95.0 A12.7,12.7 0 0 0 88.7,95.0 M69.7,95.0 A6.3,6.3 0 0 0 82.3,95.0 M95.0,95.0 A19.0,19.0 0 0 0 133.0,95.0 M101.3,95.0 A12.7,12.7 0 0 0 126.7,95.0 M107.7,95.0 A6.3,6.3 0 0 0 120.3,95.0 M133.0,95.0 A19.0,19.0 0 0 0 171.0,95.0 M139.3,95.0 A12.7,12.7 0 0 0 164.7,95.0 M145.7,95.0 A6.3,6.3 0 0 0 158.3,95.0 M171.0,95.0 A19.0,19.0 0 0 0 209.0,95.0 M177.3,95.0 A12.7,12.7 0 0 0 202.7,95.0 M183.7,95.0 A6.3,6.3 0 0 0 196.3,95.0 M209.0,95.0 A19.0,19.0 0 0 0 247.0,95.0 M215.3,95.0 A12.7,12.7 0 0 0 240.7,95.0 M221.7,95.0 A6.3,6.3 0 0 0 234.3,95.0 M247.0,95.0 A19.0,19.0 0 0 0 285.0,95.0 M253.3,95.0 A12.7,12.7 0 0 0 278.7,95.0 M259.7,95.0 A6.3,6.3 0 0 0 272.3,95.0 M285.0,95.0 A19.0,19.0 0 0 0 323.0,95.0 M291.3,95.0 A12.7,12.7 0 0 0 316.7,95.0 M297.7,95.0 A6.3,6.3 0 0 0 310.3,95.0 M-38.0,114.0 A19.0,19.0 0 0 0 0.0,114.0 M-31.7,114.0 A12.7,12.7 0 0 0 -6.3,114.0 M-25.3,114.0 A6.3,6.3 0 0 0 -12.7,114.0 M0.0,114.0 A19.0,19.0 0 0 0 38.0,114.0 M6.3,114.0 A12.7,12.7 0 0 0 31.7,114.0 M12.7,114.0 A6.3,6.3 0 0 0 25.3,114.0 M38.0,114.0 A19.0,19.0 0 0 0 76.0,114.0 M44.3,114.0 A12.7,12.7 0 0 0 69.7,114.0 M50.7,114.0 A6.3,6.3 0 0 0 63.3,114.0 M76.0,114.0 A19.0,19.0 0 0 0 114.0,114.0 M82.3,114.0 A12.7,12.7 0 0 0 107.7,114.0 M88.7,114.0 A6.3,6.3 0 0 0 101.3,114.0 M114.0,114.0 A19.0,19.0 0 0 0 152.0,114.0 M120.3,114.0 A12.7,12.7 0 0 0 145.7,114.0 M126.7,114.0 A6.3,6.3 0 0 0 139.3,114.0 M152.0,114.0 A19.0,19.0 0 0 0 190.0,114.0 M158.3,114.0 A12.7,12.7 0 0 0 183.7,114.0 M164.7,114.0 A6.3,6.3 0 0 0 177.3,114.0 M190.0,114.0 A19.0,19.0 0 0 0 228.0,114.0 M196.3,114.0 A12.7,12.7 0 0 0 221.7,114.0 M202.7,114.0 A6.3,6.3 0 0 0 215.3,114.0 M228.0,114.0 A19.0,19.0 0 0 0 266.0,114.0 M234.3,114.0 A12.7,12.7 0 0 0 259.7,114.0 M240.7,114.0 A6.3,6.3 0 0 0 253.3,114.0 M266.0,114.0 A19.0,19.0 0 0 0 304.0,114.0 M272.3,114.0 A12.7,12.7 0 0 0 297.7,114.0 M278.7,114.0 A6.3,6.3 0 0 0 291.3,114.0 M-19.0,133.0 A19.0,19.0 0 0 0 19.0,133.0 M-12.7,133.0 A12.7,12.7 0 0 0 12.7,133.0 M-6.3,133.0 A6.3,6.3 0 0 0 6.3,133.0 M19.0,133.0 A19.0,19.0 0 0 0 57.0,133.0 M25.3,133.0 A12.7,12.7 0 0 0 50.7,133.0 M31.7,133.0 A6.3,6.3 0 0 0 44.3,133.0 M57.0,133.0 A19.0,19.0 0 0 0 95.0,133.0 M63.3,133.0 A12.7,12.7 0 0 0 88.7,133.0 M69.7,133.0 A6.3,6.3 0 0 0 82.3,133.0 M95.0,133.0 A19.0,19.0 0 0 0 133.0,133.0 M101.3,133.0 A12.7,12.7 0 0 0 126.7,133.0 M107.7,133.0 A6.3,6.3 0 0 0 120.3,133.0 M133.0,133.0 A19.0,19.0 0 0 0 171.0,133.0 M139.3,133.0 A12.7,12.7 0 0 0 164.7,133.0 M145.7,133.0 A6.3,6.3 0 0 0 158.3,133.0 M171.0,133.0 A19.0,19.0 0 0 0 209.0,133.0 M177.3,133.0 A12.7,12.7 0 0 0 202.7,133.0 M183.7,133.0 A6.3,6.3 0 0 0 196.3,133.0 M209.0,133.0 A19.0,19.0 0 0 0 247.0,133.0 M215.3,133.0 A12.7,12.7 0 0 0 240.7,133.0 M221.7,133.0 A6.3,6.3 0 0 0 234.3,133.0 M247.0,133.0 A19.0,19.0 0 0 0 285.0,133.0 M253.3,133.0 A12.7,12.7 0 0 0 278.7,133.0 M259.7,133.0 A6.3,6.3 0 0 0 272.3,133.0 M285.0,133.0 A19.0,19.0 0 0 0 323.0,133.0 M291.3,133.0 A12.7,12.7 0 0 0 316.7,133.0 M297.7,133.0 A6.3,6.3 0 0 0 310.3,133.0 M-38.0,152.0 A19.0,19.0 0 0 0 0.0,152.0 M-31.7,152.0 A12.7,12.7 0 0 0 -6.3,152.0 M-25.3,152.0 A6.3,6.3 0 0 0 -12.7,152.0 M0.0,152.0 A19.0,19.0 0 0 0 38.0,152.0 M6.3,152.0 A12.7,12.7 0 0 0 31.7,152.0 M12.7,152.0 A6.3,6.3 0 0 0 25.3,152.0 M38.0,152.0 A19.0,19.0 0 0 0 76.0,152.0 M44.3,152.0 A12.7,12.7 0 0 0 69.7,152.0 M50.7,152.0 A6.3,6.3 0 0 0 63.3,152.0 M76.0,152.0 A19.0,19.0 0 0 0 114.0,152.0 M82.3,152.0 A12.7,12.7 0 0 0 107.7,152.0 M88.7,152.0 A6.3,6.3 0 0 0 101.3,152.0 M114.0,152.0 A19.0,19.0 0 0 0 152.0,152.0 M120.3,152.0 A12.7,12.7 0 0 0 145.7,152.0 M126.7,152.0 A6.3,6.3 0 0 0 139.3,152.0 M152.0,152.0 A19.0,19.0 0 0 0 190.0,152.0 M158.3,152.0 A12.7,12.7 0 0 0 183.7,152.0 M164.7,152.0 A6.3,6.3 0 0 0 177.3,152.0 M190.0,152.0 A19.0,19.0 0 0 0 228.0,152.0 M196.3,152.0 A12.7,12.7 0 0 0 221.7,152.0 M202.7,152.0 A6.3,6.3 0 0 0 215.3,152.0 M228.0,152.0 A19.0,19.0 0 0 0 266.0,152.0 M234.3,152.0 A12.7,12.7 0 0 0 259.7,152.0 M240.7,152.0 A6.3,6.3 0 0 0 253.3,152.0 M266.0,152.0 A19.0,19.0 0 0 0 304.0,152.0 M272.3,152.0 A12.7,12.7 0 0 0 297.7,152.0 M278.7,152.0 A6.3,6.3 0 0 0 291.3,152.0"/></g></g></g><text x="1138.0" y="183" text-anchor="middle" font-size="14" font-weight="600" fill="#3a2a1a">ai</text><clipPath id="c5"><rect x="1272" y="22" width="232" height="140" rx="8"/></clipPath><g clip-path="url(#c5)"><g transform="translate(1272,22)"><rect width="232" height="140" fill="#c07a7a"/><g fill="none" stroke="#835252" stroke-width="1.6" opacity="0.6"><path d="M-38.0,0.0 A19.0,19.0 0 0 0 0.0,0.0 M-31.7,0.0 A12.7,12.7 0 0 0 -6.3,0.0 M-25.3,0.0 A6.3,6.3 0 0 0 -12.7,0.0 M0.0,0.0 A19.0,19.0 0 0 0 38.0,0.0 M6.3,0.0 A12.7,12.7 0 0 0 31.7,0.0 M12.7,0.0 A6.3,6.3 0 0 0 25.3,0.0 M38.0,0.0 A19.0,19.0 0 0 0 76.0,0.0 M44.3,0.0 A12.7,12.7 0 0 0 69.7,0.0 M50.7,0.0 A6.3,6.3 0 0 0 63.3,0.0 M76.0,0.0 A19.0,19.0 0 0 0 114.0,0.0 M82.3,0.0 A12.7,12.7 0 0 0 107.7,0.0 M88.7,0.0 A6.3,6.3 0 0 0 101.3,0.0 M114.0,0.0 A19.0,19.0 0 0 0 152.0,0.0 M120.3,0.0 A12.7,12.7 0 0 0 145.7,0.0 M126.7,0.0 A6.3,6.3 0 0 0 139.3,0.0 M152.0,0.0 A19.0,19.0 0 0 0 190.0,0.0 M158.3,0.0 A12.7,12.7 0 0 0 183.7,0.0 M164.7,0.0 A6.3,6.3 0 0 0 177.3,0.0 M190.0,0.0 A19.0,19.0 0 0 0 228.0,0.0 M196.3,0.0 A12.7,12.7 0 0 0 221.7,0.0 M202.7,0.0 A6.3,6.3 0 0 0 215.3,0.0 M228.0,0.0 A19.0,19.0 0 0 0 266.0,0.0 M234.3,0.0 A12.7,12.7 0 0 0 259.7,0.0 M240.7,0.0 A6.3,6.3 0 0 0 253.3,0.0 M266.0,0.0 A19.0,19.0 0 0 0 304.0,0.0 M272.3,0.0 A12.7,12.7 0 0 0 297.7,0.0 M278.7,0.0 A6.3,6.3 0 0 0 291.3,0.0 M-19.0,19.0 A19.0,19.0 0 0 0 19.0,19.0 M-12.7,19.0 A12.7,12.7 0 0 0 12.7,19.0 M-6.3,19.0 A6.3,6.3 0 0 0 6.3,19.0 M19.0,19.0 A19.0,19.0 0 0 0 57.0,19.0 M25.3,19.0 A12.7,12.7 0 0 0 50.7,19.0 M31.7,19.0 A6.3,6.3 0 0 0 44.3,19.0 M57.0,19.0 A19.0,19.0 0 0 0 95.0,19.0 M63.3,19.0 A12.7,12.7 0 0 0 88.7,19.0 M69.7,19.0 A6.3,6.3 0 0 0 82.3,19.0 M95.0,19.0 A19.0,19.0 0 0 0 133.0,19.0 M101.3,19.0 A12.7,12.7 0 0 0 126.7,19.0 M107.7,19.0 A6.3,6.3 0 0 0 120.3,19.0 M133.0,19.0 A19.0,19.0 0 0 0 171.0,19.0 M139.3,19.0 A12.7,12.7 0 0 0 164.7,19.0 M145.7,19.0 A6.3,6.3 0 0 0 158.3,19.0 M171.0,19.0 A19.0,19.0 0 0 0 209.0,19.0 M177.3,19.0 A12.7,12.7 0 0 0 202.7,19.0 M183.7,19.0 A6.3,6.3 0 0 0 196.3,19.0 M209.0,19.0 A19.0,19.0 0 0 0 247.0,19.0 M215.3,19.0 A12.7,12.7 0 0 0 240.7,19.0 M221.7,19.0 A6.3,6.3 0 0 0 234.3,19.0 M247.0,19.0 A19.0,19.0 0 0 0 285.0,19.0 M253.3,19.0 A12.7,12.7 0 0 0 278.7,19.0 M259.7,19.0 A6.3,6.3 0 0 0 272.3,19.0 M285.0,19.0 A19.0,19.0 0 0 0 323.0,19.0 M291.3,19.0 A12.7,12.7 0 0 0 316.7,19.0 M297.7,19.0 A6.3,6.3 0 0 0 310.3,19.0 M-38.0,38.0 A19.0,19.0 0 0 0 0.0,38.0 M-31.7,38.0 A12.7,12.7 0 0 0 -6.3,38.0 M-25.3,38.0 A6.3,6.3 0 0 0 -12.7,38.0 M0.0,38.0 A19.0,19.0 0 0 0 38.0,38.0 M6.3,38.0 A12.7,12.7 0 0 0 31.7,38.0 M12.7,38.0 A6.3,6.3 0 0 0 25.3,38.0 M38.0,38.0 A19.0,19.0 0 0 0 76.0,38.0 M44.3,38.0 A12.7,12.7 0 0 0 69.7,38.0 M50.7,38.0 A6.3,6.3 0 0 0 63.3,38.0 M76.0,38.0 A19.0,19.0 0 0 0 114.0,38.0 M82.3,38.0 A12.7,12.7 0 0 0 107.7,38.0 M88.7,38.0 A6.3,6.3 0 0 0 101.3,38.0 M114.0,38.0 A19.0,19.0 0 0 0 152.0,38.0 M120.3,38.0 A12.7,12.7 0 0 0 145.7,38.0 M126.7,38.0 A6.3,6.3 0 0 0 139.3,38.0 M152.0,38.0 A19.0,19.0 0 0 0 190.0,38.0 M158.3,38.0 A12.7,12.7 0 0 0 183.7,38.0 M164.7,38.0 A6.3,6.3 0 0 0 177.3,38.0 M190.0,38.0 A19.0,19.0 0 0 0 228.0,38.0 M196.3,38.0 A12.7,12.7 0 0 0 221.7,38.0 M202.7,38.0 A6.3,6.3 0 0 0 215.3,38.0 M228.0,38.0 A19.0,19.0 0 0 0 266.0,38.0 M234.3,38.0 A12.7,12.7 0 0 0 259.7,38.0 M240.7,38.0 A6.3,6.3 0 0 0 253.3,38.0 M266.0,38.0 A19.0,19.0 0 0 0 304.0,38.0 M272.3,38.0 A12.7,12.7 0 0 0 297.7,38.0 M278.7,38.0 A6.3,6.3 0 0 0 291.3,38.0 M-19.0,57.0 A19.0,19.0 0 0 0 19.0,57.0 M-12.7,57.0 A12.7,12.7 0 0 0 12.7,57.0 M-6.3,57.0 A6.3,6.3 0 0 0 6.3,57.0 M19.0,57.0 A19.0,19.0 0 0 0 57.0,57.0 M25.3,57.0 A12.7,12.7 0 0 0 50.7,57.0 M31.7,57.0 A6.3,6.3 0 0 0 44.3,57.0 M57.0,57.0 A19.0,19.0 0 0 0 95.0,57.0 M63.3,57.0 A12.7,12.7 0 0 0 88.7,57.0 M69.7,57.0 A6.3,6.3 0 0 0 82.3,57.0 M95.0,57.0 A19.0,19.0 0 0 0 133.0,57.0 M101.3,57.0 A12.7,12.7 0 0 0 126.7,57.0 M107.7,57.0 A6.3,6.3 0 0 0 120.3,57.0 M133.0,57.0 A19.0,19.0 0 0 0 171.0,57.0 M139.3,57.0 A12.7,12.7 0 0 0 164.7,57.0 M145.7,57.0 A6.3,6.3 0 0 0 158.3,57.0 M171.0,57.0 A19.0,19.0 0 0 0 209.0,57.0 M177.3,57.0 A12.7,12.7 0 0 0 202.7,57.0 M183.7,57.0 A6.3,6.3 0 0 0 196.3,57.0 M209.0,57.0 A19.0,19.0 0 0 0 247.0,57.0 M215.3,57.0 A12.7,12.7 0 0 0 240.7,57.0 M221.7,57.0 A6.3,6.3 0 0 0 234.3,57.0 M247.0,57.0 A19.0,19.0 0 0 0 285.0,57.0 M253.3,57.0 A12.7,12.7 0 0 0 278.7,57.0 M259.7,57.0 A6.3,6.3 0 0 0 272.3,57.0 M285.0,57.0 A19.0,19.0 0 0 0 323.0,57.0 M291.3,57.0 A12.7,12.7 0 0 0 316.7,57.0 M297.7,57.0 A6.3,6.3 0 0 0 310.3,57.0 M-38.0,76.0 A19.0,19.0 0 0 0 0.0,76.0 M-31.7,76.0 A12.7,12.7 0 0 0 -6.3,76.0 M-25.3,76.0 A6.3,6.3 0 0 0 -12.7,76.0 M0.0,76.0 A19.0,19.0 0 0 0 38.0,76.0 M6.3,76.0 A12.7,12.7 0 0 0 31.7,76.0 M12.7,76.0 A6.3,6.3 0 0 0 25.3,76.0 M38.0,76.0 A19.0,19.0 0 0 0 76.0,76.0 M44.3,76.0 A12.7,12.7 0 0 0 69.7,76.0 M50.7,76.0 A6.3,6.3 0 0 0 63.3,76.0 M76.0,76.0 A19.0,19.0 0 0 0 114.0,76.0 M82.3,76.0 A12.7,12.7 0 0 0 107.7,76.0 M88.7,76.0 A6.3,6.3 0 0 0 101.3,76.0 M114.0,76.0 A19.0,19.0 0 0 0 152.0,76.0 M120.3,76.0 A12.7,12.7 0 0 0 145.7,76.0 M126.7,76.0 A6.3,6.3 0 0 0 139.3,76.0 M152.0,76.0 A19.0,19.0 0 0 0 190.0,76.0 M158.3,76.0 A12.7,12.7 0 0 0 183.7,76.0 M164.7,76.0 A6.3,6.3 0 0 0 177.3,76.0 M190.0,76.0 A19.0,19.0 0 0 0 228.0,76.0 M196.3,76.0 A12.7,12.7 0 0 0 221.7,76.0 M202.7,76.0 A6.3,6.3 0 0 0 215.3,76.0 M228.0,76.0 A19.0,19.0 0 0 0 266.0,76.0 M234.3,76.0 A12.7,12.7 0 0 0 259.7,76.0 M240.7,76.0 A6.3,6.3 0 0 0 253.3,76.0 M266.0,76.0 A19.0,19.0 0 0 0 304.0,76.0 M272.3,76.0 A12.7,12.7 0 0 0 297.7,76.0 M278.7,76.0 A6.3,6.3 0 0 0 291.3,76.0 M-19.0,95.0 A19.0,19.0 0 0 0 19.0,95.0 M-12.7,95.0 A12.7,12.7 0 0 0 12.7,95.0 M-6.3,95.0 A6.3,6.3 0 0 0 6.3,95.0 M19.0,95.0 A19.0,19.0 0 0 0 57.0,95.0 M25.3,95.0 A12.7,12.7 0 0 0 50.7,95.0 M31.7,95.0 A6.3,6.3 0 0 0 44.3,95.0 M57.0,95.0 A19.0,19.0 0 0 0 95.0,95.0 M63.3,95.0 A12.7,12.7 0 0 0 88.7,95.0 M69.7,95.0 A6.3,6.3 0 0 0 82.3,95.0 M95.0,95.0 A19.0,19.0 0 0 0 133.0,95.0 M101.3,95.0 A12.7,12.7 0 0 0 126.7,95.0 M107.7,95.0 A6.3,6.3 0 0 0 120.3,95.0 M133.0,95.0 A19.0,19.0 0 0 0 171.0,95.0 M139.3,95.0 A12.7,12.7 0 0 0 164.7,95.0 M145.7,95.0 A6.3,6.3 0 0 0 158.3,95.0 M171.0,95.0 A19.0,19.0 0 0 0 209.0,95.0 M177.3,95.0 A12.7,12.7 0 0 0 202.7,95.0 M183.7,95.0 A6.3,6.3 0 0 0 196.3,95.0 M209.0,95.0 A19.0,19.0 0 0 0 247.0,95.0 M215.3,95.0 A12.7,12.7 0 0 0 240.7,95.0 M221.7,95.0 A6.3,6.3 0 0 0 234.3,95.0 M247.0,95.0 A19.0,19.0 0 0 0 285.0,95.0 M253.3,95.0 A12.7,12.7 0 0 0 278.7,95.0 M259.7,95.0 A6.3,6.3 0 0 0 272.3,95.0 M285.0,95.0 A19.0,19.0 0 0 0 323.0,95.0 M291.3,95.0 A12.7,12.7 0 0 0 316.7,95.0 M297.7,95.0 A6.3,6.3 0 0 0 310.3,95.0 M-38.0,114.0 A19.0,19.0 0 0 0 0.0,114.0 M-31.7,114.0 A12.7,12.7 0 0 0 -6.3,114.0 M-25.3,114.0 A6.3,6.3 0 0 0 -12.7,114.0 M0.0,114.0 A19.0,19.0 0 0 0 38.0,114.0 M6.3,114.0 A12.7,12.7 0 0 0 31.7,114.0 M12.7,114.0 A6.3,6.3 0 0 0 25.3,114.0 M38.0,114.0 A19.0,19.0 0 0 0 76.0,114.0 M44.3,114.0 A12.7,12.7 0 0 0 69.7,114.0 M50.7,114.0 A6.3,6.3 0 0 0 63.3,114.0 M76.0,114.0 A19.0,19.0 0 0 0 114.0,114.0 M82.3,114.0 A12.7,12.7 0 0 0 107.7,114.0 M88.7,114.0 A6.3,6.3 0 0 0 101.3,114.0 M114.0,114.0 A19.0,19.0 0 0 0 152.0,114.0 M120.3,114.0 A12.7,12.7 0 0 0 145.7,114.0 M126.7,114.0 A6.3,6.3 0 0 0 139.3,114.0 M152.0,114.0 A19.0,19.0 0 0 0 190.0,114.0 M158.3,114.0 A12.7,12.7 0 0 0 183.7,114.0 M164.7,114.0 A6.3,6.3 0 0 0 177.3,114.0 M190.0,114.0 A19.0,19.0 0 0 0 228.0,114.0 M196.3,114.0 A12.7,12.7 0 0 0 221.7,114.0 M202.7,114.0 A6.3,6.3 0 0 0 215.3,114.0 M228.0,114.0 A19.0,19.0 0 0 0 266.0,114.0 M234.3,114.0 A12.7,12.7 0 0 0 259.7,114.0 M240.7,114.0 A6.3,6.3 0 0 0 253.3,114.0 M266.0,114.0 A19.0,19.0 0 0 0 304.0,114.0 M272.3,114.0 A12.7,12.7 0 0 0 297.7,114.0 M278.7,114.0 A6.3,6.3 0 0 0 291.3,114.0 M-19.0,133.0 A19.0,19.0 0 0 0 19.0,133.0 M-12.7,133.0 A12.7,12.7 0 0 0 12.7,133.0 M-6.3,133.0 A6.3,6.3 0 0 0 6.3,133.0 M19.0,133.0 A19.0,19.0 0 0 0 57.0,133.0 M25.3,133.0 A12.7,12.7 0 0 0 50.7,133.0 M31.7,133.0 A6.3,6.3 0 0 0 44.3,133.0 M57.0,133.0 A19.0,19.0 0 0 0 95.0,133.0 M63.3,133.0 A12.7,12.7 0 0 0 88.7,133.0 M69.7,133.0 A6.3,6.3 0 0 0 82.3,133.0 M95.0,133.0 A19.0,19.0 0 0 0 133.0,133.0 M101.3,133.0 A12.7,12.7 0 0 0 126.7,133.0 M107.7,133.0 A6.3,6.3 0 0 0 120.3,133.0 M133.0,133.0 A19.0,19.0 0 0 0 171.0,133.0 M139.3,133.0 A12.7,12.7 0 0 0 164.7,133.0 M145.7,133.0 A6.3,6.3 0 0 0 158.3,133.0 M171.0,133.0 A19.0,19.0 0 0 0 209.0,133.0 M177.3,133.0 A12.7,12.7 0 0 0 202.7,133.0 M183.7,133.0 A6.3,6.3 0 0 0 196.3,133.0 M209.0,133.0 A19.0,19.0 0 0 0 247.0,133.0 M215.3,133.0 A12.7,12.7 0 0 0 240.7,133.0 M221.7,133.0 A6.3,6.3 0 0 0 234.3,133.0 M247.0,133.0 A19.0,19.0 0 0 0 285.0,133.0 M253.3,133.0 A12.7,12.7 0 0 0 278.7,133.0 M259.7,133.0 A6.3,6.3 0 0 0 272.3,133.0 M285.0,133.0 A19.0,19.0 0 0 0 323.0,133.0 M291.3,133.0 A12.7,12.7 0 0 0 316.7,133.0 M297.7,133.0 A6.3,6.3 0 0 0 310.3,133.0 M-38.0,152.0 A19.0,19.0 0 0 0 0.0,152.0 M-31.7,152.0 A12.7,12.7 0 0 0 -6.3,152.0 M-25.3,152.0 A6.3,6.3 0 0 0 -12.7,152.0 M0.0,152.0 A19.0,19.0 0 0 0 38.0,152.0 M6.3,152.0 A12.7,12.7 0 0 0 31.7,152.0 M12.7,152.0 A6.3,6.3 0 0 0 25.3,152.0 M38.0,152.0 A19.0,19.0 0 0 0 76.0,152.0 M44.3,152.0 A12.7,12.7 0 0 0 69.7,152.0 M50.7,152.0 A6.3,6.3 0 0 0 63.3,152.0 M76.0,152.0 A19.0,19.0 0 0 0 114.0,152.0 M82.3,152.0 A12.7,12.7 0 0 0 107.7,152.0 M88.7,152.0 A6.3,6.3 0 0 0 101.3,152.0 M114.0,152.0 A19.0,19.0 0 0 0 152.0,152.0 M120.3,152.0 A12.7,12.7 0 0 0 145.7,152.0 M126.7,152.0 A6.3,6.3 0 0 0 139.3,152.0 M152.0,152.0 A19.0,19.0 0 0 0 190.0,152.0 M158.3,152.0 A12.7,12.7 0 0 0 183.7,152.0 M164.7,152.0 A6.3,6.3 0 0 0 177.3,152.0 M190.0,152.0 A19.0,19.0 0 0 0 228.0,152.0 M196.3,152.0 A12.7,12.7 0 0 0 221.7,152.0 M202.7,152.0 A6.3,6.3 0 0 0 215.3,152.0 M228.0,152.0 A19.0,19.0 0 0 0 266.0,152.0 M234.3,152.0 A12.7,12.7 0 0 0 259.7,152.0 M240.7,152.0 A6.3,6.3 0 0 0 253.3,152.0 M266.0,152.0 A19.0,19.0 0 0 0 304.0,152.0 M272.3,152.0 A12.7,12.7 0 0 0 297.7,152.0 M278.7,152.0 A6.3,6.3 0 0 0 291.3,152.0"/></g></g></g><text x="1388.0" y="183" text-anchor="middle" font-size="14" font-weight="600" fill="#3a2a1a">sakura</text></svg>